<mxfile host="app.diagrams.net" modified="2024-06-17T03:42:57.575Z" agent="Mozilla/5.0 (Windows NT 10.0; Win64; x64) AppleWebKit/537.36 (KHTML, like Gecko) Chrome/125.0.0.0 Safari/537.36" etag="uxr1QGI1ChCp3a-XRWIW" version="24.5.2" type="github">
  <diagram name="第 1 页" id="IG-_BNxsQQcfuFVgWoul">
    <mxGraphModel dx="1418" dy="633" grid="0" gridSize="10" guides="1" tooltips="1" connect="1" arrows="1" fold="1" page="0" pageScale="1" pageWidth="827" pageHeight="1169" math="0" shadow="0">
      <root>
        <mxCell id="0" />
        <mxCell id="1" parent="0" />
        <mxCell id="AAcZYnokH5HvOokKQEHz-2" value="" style="shape=image;verticalLabelPosition=bottom;labelBackgroundColor=default;verticalAlign=top;aspect=fixed;imageAspect=0;image=data:image/png,iVBORw0KGgoAAAANSUhEUgAAAMgAAADICAYAAACtWK6eAAAAAXNSR0IArs4c6QAAIABJREFUeF7tfQl8G8XZ939WhyXL95XYSRzHISRxDkhiJ1wvhRZ4obTQty30gpLkTWzgBT4otiFQ4rWhBSJTaPkKWIHGlJaW0uuFr+UoDZRCIXFIQg7nghxOYjuO79uSdufrrOzEiu1YlnalHUnz++m3sjzzXPP8d2d2Zp6HIFpGWGBV6cNziey6BIRcAiB7FBPVAagDpXUwoI5SU92AbKl7qbKkR0/mvL1EnCwB58sEOYTS6SDIAUUSpThIBHpYpjhGZPrZ+icertGT3HqShehJmFDKctv99yfLkuV/ZMjfJSBz/ZSlBYQBhngAxD4CrYOLHKOCu8EdZ2yoFsV+P2mftdnK0sfjzXJfgUzoUlAUgNACgEzzkddroOSVtiN5r7z66o2Sj20iolrEA+SG3/3OkFSz6w4C4X8AOkv7XqdtAGnwfGgDKGmgQCMlcgOo0HAmf4MgGyiEeCIjjhI5HiDxhJIkEJpJgSwQkgkqZwEkNWDZKfYC9BVHZYUYMK0wIRDRACksERcDdD2AxWHSn6qoQYH3KCXlz1eK76lCkGMiEQuQovvES6lM3wAQy3H/aSs6peWR/jSJSIAU3St+nQr0D9p6V9hQf81hL78+bLSZoCIRB5DC4rUiCCmboJ0ivDrd5LBXXBCJRogogETBEYiL00MOe0VuIBR4bBsxACksFe8CpT/lsZP0IzPtcdgr4vQjj/aSRARACkvFr4HSP2lvzojgsMdhL8+LCE0BhD1AVqxZk25ymzcCmB8pnaq5npT8yFEp/lBzPjpgEPYAWV1S9iwBbtWBrcNLBEq+56gUXw4vpUZqE9YAKSoWb6KEvhTunRgy/QT8h+Px8g9Cxj8IjMMWILfe8+AU2Wj6J0BnBMGOkcmC0m02qeviJ598si9cDRC2ACksKfsRgAfCteN0oxelax2VFQ/rRh6VBQlLgKws/eFsIzVsApCosr2i5EZYgHZBoBc7Hn94ZzgaJywBUlha9lNQ3BWOHaZHnSjwy/X28lv0KFugMoUdQDw7dLEZoIZAjRNt77sFKKVfX19ZEXZrTWEIkLIqAIW+d220pioWoPiXo7L8YlVo6YhIWAFk1b0PLREEYYuO7BtRohBKbq6qFH8VTkqHFUAKS6JPj1A6J6HkrapK8epQyqA277ABSPTpobZr+EePEHpF1bqKv/vXWn+twgYgq0vEnxHQO/Vn4siSiADVVfbyFeGidfgApLjsACE4J1w6hmM93EQm51U9IdZyrMMp0cMCIKvvXXsNEchfw6FDwkEHQsmjVZViWOxiCA+ARIdXesPVQXQ0zHE4HC69CTZRecIDINHh1UT7XfP6FMI319vLuA+MwT1AosMrzX3dPwaUvOSoFL/vX2P9tOIfINHhlX68yVuSDrhccx1P/XhEtEi9CjyaXPwDJDq80q+/UXqro7KCbf3htnANkOjwSt9+R4C/VtnLr9W3lGeXjmuAFJaWPQmKu3nugHCXXaBkwXOV4i5e9eQdIFtBsYhX40eE3JT+0FFZwU53clm4BUjhfRULIEs7uLR6RAlNNjnsIrdhS/kFSKl4Byh9OqJ8jVNlKcii9XZxO4/i8wuQEvE1gH6VR6NHmswUpGS9XazkUW8uAVIoirHoobrKB8hj5wdLZpfLuXHDU49+KVj81OTDJUBuLRG/IoO+rqYhorTUtQCVZbS3tqC99STaWpqRf8kXZjz3mHhYXS7aU+MSINGTg9o7hj8cJFlGZ2sz2loYKE6it7v7FJncuQse/8tvq+/3h24o23AJkO/fWXLQYomNRkwMpecM8u7u6kRHWys621vQ2doKp3NgVKnSM6fsf//N12brQOQJicAdQL572/3J+z79uLW3pwtxCYlISZ+E1PRJyvdo0d4CDAAdrR5AtLc0o7fn9FPibNxjLFb5oiVXJD7zjOhbA+1V8YkDdwC5+oabCo/s3zPq/h6rLQ5JKalITk1XgEMId+r51GnBrtTZ1oq21ma0t5xEZ3ub3+yzc89d+daffrPBbwIhaMidB1153Y2vHDvy+Y2+2Moaa0NiSioSk1KRmJKCGIvVl2YRXae3pwf9Pd3o7e1Whk5ski1Lsio2SUlLf/PDv795jSrEgkSEO4Bcds31O0/UH/MrGY7FGou4hARYbfGwWm2ItdnAnjpGkylI5g49G7fLhYH+Ps+nrw/9/X0KGBRQ9Gj75twSG3ty20f/zAi9FXyXgDuALPvCFe2d7W2qTjhMZrMClNhYGyyxsTCazDCxj3nwYzIrv+ltyEYpheR2w618XGDOL7Hr0MfpwsBAP5wKIPoVMMiS5Lt3qFyTCIJcu62Gq5CwXAHkW9+6Zeau/XsOyLIUErnZk8bMQGMyQzAaYTAYYVCuBuVvk2Ac/N0w+LsRxCD47mYyHeHszOFdbhckl9tzZWBgQHC54JbcvtPWSc2pubmX/e1Pr/5DJ+KMK0ZIHG1cqQYrXCaKxuyBgURjf0wiIVLi0c/3X3j08Gc/97V9tJ7+LDBl+oxH3nnt9w/pT7LRJdIFQG4QRXNKLxbKFPMJRR4ldB4BWCbVnOFi19cdxud7uT1awItPaCrnpKwpf5s9f3EtQJNlII2wQtEqA62Eyq0QhHYC0gHQDoB0CELf1mcfe8z/V2cBahMSgBSWlF1FQRYSioWU0PMIsNAXPfbu2IqTjfW+VI3W0akFJmVNw7nzz5ugdHQTqPA+odjcuizvT6/eeGPQJlJBA0jRfeKlVMJXQOhXAMydoIWU6pvff0eZbEYLvxZISk7FgoILA1CA7KQU1UZjzIZnH1uj+ZNFU4AU3leWDYmuBCHsXHJ+AFZRJqYfvftWICSibXVggcABMqQEOQIqVzsqK0Qt1dIEIEX3inlUoCsBsCDGKWoo0NXRju2bwjrjsBpm0j2NqTm5mHEum16qVchuh130a13MFwlUBcjNxXablfQ8AVAGDLMvAvhahw2t2BArWvi1gMFowNyFS5CcpvZaIfnEYRcDGqGMZVXVALKq+OEZhLh/QYDLtOrC2m01aDl5QivyUboaWiA5LR3Tz5mN+IQkjbiQZx128Xa1iasGkNUlZe9qCQ6meOvJE9i9rUZtG0TpaWgBNudIz5qKyVOmachFId0BAQsdj5fXqclIFYAUFq8VQUiZmoKNRav5RAMO1O5QJu3Rok8LsC06aZOykDY5EwwgwSqUkNvWrxOfU5OfOgApKTt05qKemkKeSYudBak7+BlONhzXkk2U9gQswPawseFTYnKKAg4GkhCUXzns5TeryTdggKwqFi8TCH1XTaF8pdXR3obWpka0nmzUfCeqrzJFSr34xCSwT0JisnK1xNpCrjoF3ltvL79cTUG4BshwQ7CzCx3sUM/gVU0jRTotW3yCcmKTPSHiEj1XPRZdAuT2+8Vz3BI9oCeDse3f7PRbu3IKrhl9vdqec9CT7oHKws7IxCUkIz4hETb2lEhIhCBMYEdyoAIE1v4PDnv5NwMj4d064CcII1dYKv4VlOr2pBg7HMQWGtn56d7uLs+1pxssNE2kFdbhbDjEPlZrrNc1JjYWBn7AMKLrKMiK9XaxWs0+VQUgq0vE5QSUq7PGzIj9vb1gE34GFna6TjlcpBww6le+81YEg8FzXsUcA3NMjHJlH4vVCouFgSEW7FRlmJbDJmNM/s8ffaBFTf1UAQgTqKikbAMFlqspXKhpeU7jeUDDvrucTuWpwz4yZVcKmX1nv7G/6dB3z+9KXUoHr8P/R73qsnrMuY0GIwSDoHxXDmOxg1inruz/7G/P/4acfwgIDBjsf5FatHh6MFuqBpBb7xdzJIn+r69b1yO1I6N6q28BAlRX2cvZ9ibVi2oAYZLdUSpmOaky1LpKdUmjBKMWGN0Cf3bYy/9LK+OoChAm5D333GPtNSY8RwHuM5xqZfQoXdUs0O6wlyerRm0UQqoDZIhHYal4F6H0MQpEg1Fp2YORSptiv6OyXPNQppoBhPXbrSUVF8tEflDPr4Aj1b941puC/Ga9XfxuMHTQFCBDChQVizdRIt8FkIJgKBXlEaYWIOQkgEcc68SfBUvDoACEKSOKotDQI99JQe4CkBssBaN8wsYCLxuJ8ZFn1j20J5gaBQ0gQ0qtWLMm3eg230WAOwGoGiExmIaL8gqWBcgmAXjuOZVXyH2VPugAOTWJXyPOgRt3gdLvgSDBV4Gj9SLFAuTvlMgb1q+r+HUoNQ4ZQE4B5YEfZcI18DVChespof8ZSmNEeevCAq8SSn9dVVnxv3qQJuQAGW6E1SXi+YTKXwMh1wM4Xw8GisqgvQVoTydoX9dfDSlTS6qeEGu15+g7B10BZLjYK79zU4kgYJ2QmgXERJdSfO9STmpKEuTm457PyWMAJfdUb9n9lN6k1y1AlufPuQxEeJcYTCBpmRCSMkCS0kGscXqzYVSeCViAtp6A1FIP2lwPOtB7uiUh91dv3v34BEgFpapuAbKiYP5FFPKHw63QD4L++AyQ5EmwJKcjPlmVmHRBMXSkMnG5nOhqb4PU2Qa5uR7m3jbYyMhzOBSk7MWa3RV6s5NuAXLLkvkziSB/NmSwg24zTsre27nZlu+UtHQkp2YgKS1NydsRLaG1ADuc1tHWgs62NnR1tqO7s2OEQAlExlyTdzZcChS/WFP7RGilH8ldtwC5IS8vzmZD15DIm5zjz0PiE5ORnJqGuMGjouYYi97sHTbysDMsLAU0O3DW09WJnq4u9HR3KmdmfCkF5j4MP8hLCV314uY9L/jSNph1dAsQZoQVS/O6KIUy6fAFIGcajgFEOVvNgg5EQeO3X7GTl8z5FRD0dKJXAUZg5/znmwbOGGoJ36iu2fVHv4XUqKGuAbK8II8NsWb6C5DRbBYFzeiexFK9DQwMgOVB72VAYE+Fbs9TQYu8hueb+hFD6ClhCCFf2rB590aN/NxvsjoHyNwPAXIR026HKwZ9VJvoGixBpzU2FjGWWOXKzm6zgAYxLKgBx2e4JVmCa9DplevAAFzOAc/xYeV3p+fq6lct1bMvnmgkFEtM3mf+DRSLX9hSu82X9sGso2uArCjIq6JAITNImyzgsGSGkwZXZJbZloHEE/DApnxnIDKaY5QIIJ4z4gYQQfCcIRcMfmfDZefXZVlS7tjsTLskScp5duboLFf50P+U3wbreH6Twd4WDQHA6fQAgIU/0mPJNriQafCWTSJS7kub97EInboqwfW2Cap+S35eISGoGmrGwHFEMqH1jLdZEySreXUGEiX4gnJlABr8LhgGnXzQ2ZWAD6fBAHp6yKG5kCFgYCUyphtcSBRGCbfkMidXb9/eHgKxzspS3wBZNmcJkYUtZ2pwzG3EcdmkN1v6LY/ZICA93oTMxBgYCUFTtxMnOp3ocQYtFZ/fsvvaME2QwJ4cpmHzjuFtq2tqdemLuhRquOGWF+SNelttkow4JPENkgSLEfnT47FsRiLiY4wjfO3tPS14b7/mafh89XG/67HhFAPHWUp9dU3tFL8ZaNhQ/wDJz9sCgiWj2YD3J8mt/zEV2SlnX6vpGnDj0TcPa+gC2pJOFmSca/ReFBzBkeKT6i21mmSIClQ73QPklqV5TxOKO0ZT1AWCXc4YONUL7xWoPX1uf3FuEq5dkOZT/Xf2tmDjPj6fJAwcDCTjlNera2qvG69SKP6ve4Asz5/3bRD6m7GMc9Btwkl55PAkFMacCM87L5umzDl8KU1dTjy1UdXESb6wDbiORaA4zzh+CFcCODbU1BYFzFADAroHyIqC+dMo5DG9o0k24pCbr7mIzWzAg9fMmFB3/nRjHU50+baNY0KENaycbpCQa/BBZory6i21mqZz9ldN3QOEKba8II8BZNQkd71UwE6Xb3dif42kdrtZGbFYcWHWhMj+cXsTthzpnFCbUFfOMbowSRh/LYZSFL24pdYRanlH488JQOb+BiDfHsuA210WDAR5ATGQzrz0nCRcPc+3+ccQHwYOBhKeyjxTP+LGeK07XA9ChK9u2Lzr/+lRNy4AsiI/7w5K8PRYBjzgNut+8XC47N/On4yFUyZ28Iu3eYiZUCw6YzvJWP0nGYS8lz7eFdRwPr6CkQuAfD8/b5FAsHUspRolo7LCzku576ocJFon/mLhZ+8eRWPnOK9MdWKEFEHCLKMP8w/AVV1Tq9uDPFwAZHAewvZXj5r9pUsWUOvmYx6SEW/G3V/M9suNX9/ZjI8O6m43xqi6ZBvcyDz74uBQu63VNbWjrnP5ZSSVG3EEkHlvA/TK0fRnb9m3Oy1g6yJ6LxfOSMRXF6b7Jeau+h68XNPgV9tgN2InBtnJQR9KdXVNrSa5PXzgPW4V/XvUoArL8/NEEJSNpdE+lxntVP8Zlm5emom5mf6lTGZ7s+xvH4FT8snxxu18rSoYCLDY5H1icExeBPdWb679iVayBEqXG4Dckj/vOkLomMHEeNh2YjEKWHP1DJiYB/lZXvy4HvtODIsG4icdLZslChLm+Db/gAB65S9q9ryjpTyB0Pa/pwLh6kfbVcsWTnXL7qNjNe2mAnbrfD1k7mQbbl6W6Yf2p5v840Ab3qpVNU9lQPKM1ni60YXJPqx/sLZGQZj8/KZdJ1QXQiWC3ACE6bu8II8ZMmMs3fcLNrT163f4cd3CdFwwI7B43cfaB/DMP8a8T6jkFoGRWWjqh9WH9Q+AHKqu2a3rSP+8AeQNAFeP1X09CYnY1ezTq8XAPMCP1mxr+/+5PBtWc+DHhl/a1IA9jYEFTfBDBZ+apJiAWaTPp7qg5IXqLbtX+VY5NLW4AsgtBXk/JsCasUyVmJmCt4/42DlBtvclM5Pw5fkTWz0fS8Qdx7vx2y2NQdbAN3bnxhEkO32cIxHyverNu1/2jXJoanEFkBX5875JCX11LFPNPicDbxwdwEmdbeqLMRIUXsJ276q3Hvbs+8dwtG38nbLBdqtL0w0Y6Oj2lW1mdU2tPpE+qAFXAFlZsCBXhvT52QByoN+gu8W0/8xLxRdmqZuM9dNjXXjlE33NbaclW5AfL6O+cWQ0xZF9Rv9VXbPnYl+RFKp6XAFkcKLOTg4ljWYw9gRJzEjCc+8fg0vWRwCE3PRYrLpoYjt3fXWG6o/rsV9Hr3y/sTgDQnsn6o6Nf7iLAI9uqKl9wFddQ1WPO4Dckp+3kRBcPhZA5syahDd3N+P9z0K/JcNqMmDlRVmYkqTNNpj6jgGwCXtH3/hbyrV2sHPSrVh50RTsrK3HwSO+vIYm11TX7H5Ta7kCpc8dQFYU5FVS4N6zAaSj340XPjyO5u6zBgoI1Hbjtv9OwWQsyJrYrt1xiZ5R4eDJXry4qQEuKbRPTLa+w9Z5avc34sDnLBnt2IVSfPbiltpZE9U1FPX5A8hZJuqzZqYj79zJih0Pt/SBrToPuIPvOAIBLjs3GVfMSQ1Kn+6u78YbtS1o7QnNDeFr52VgaY4nzaQvAAHF09Vbalm2Y90X7gDy34vmTpeMZNQwHzNyUrFw7unxPnOc9w604Xh78LaIz55kw+Wzk5GdHNzI8p39biVE0MeHfJkgq+OXQ2GLht8Iduypx6HDZx9iyRRf/uWWWrampfvCHUCYRZcX5LEQlTlnWjd7SjIWLZw6wuibj3Rg65EuHGvvhxZz99w0K9gbnClJFszP8m8jolqesr+pF3WtfTjWNoC61n70u9XfWZCZEIO5mbGjxvPatuMY6o6PPUnnaXjF+oRLgNySP/dlQsh3znSqrMkJKFg0fUxfY8Ot4+39yhOlpceJtj4J7b0utPW64D5jDM+GSWxzocVsgMUkwGIywMr+Zt+NAmJMBLlpsQowAtl8qBYwxqLD1kqOtPajq19Cv1NCn1vGgFtGn0vCgItdZQVEZ+rP6CXHmpAca0Sy1YTEWAOmp1iVSCxxMWPvmq7ZdgT1jWc5O8/R8IpngJQSQkbks8tIi8OFBROLFqK1g0Ya/Y9qDqGpeeyFQp6GV/wCZMmcq4ggvHWm88XHW/DFS7h4ORK2uNn4wQF0dY25wr+xuqb2Szwpz+UQa3AesgPAguHGZqkKrrt6vu7tz9IUTCRDk9lkhsUWC0EIfKOj1sZ57c1dYGkcRisCIbf8YvPuX2otg5r0uQBIUamYDxlzQJBDQWcQIMd98NNFUt3+Efs3rvjCubDFarMwp4bh25tb0Nk+8UVMc4wZKekZMFv0q1tP7wDe+cf+0c1ksXWaL7j2JUrlowIx1IHQA1XrxBGR+9WwsZo0dA2QVfeuvVIQCAtJ+Q3JLaGjvQW93d3o6+kC7WpFTn/zCFssW5KDyRnxatpIRVoU9Ufq4Hb5t/KdkJyEpNTgrK34o3RjUxc2fTJ6oO32+Elwp02D1RaHxOQUJW/Kv0cAf5BlWvX8ExV/84dfMNroFiCFJWWl/b29j588UY/25pNobxv5bn2OyYlE4p1DI2/2ZMzK9S8ogtYG7+/tQ1N9vd9sLFYrMqZos6/Lb6GGNTxw8CRq943cnMsSH7Hol+5hL01T0jKQlJKK5PQM2Gxxd1XZK8aMe6aGbP7S0DNA6M6aj0YFxpCyGYKEGWecfdbzmyy3y6U8QfwtsXFxSJs8yd/mmrcb6w3WUcmEemn0OGBMp3mLluKX/9euS1/UpVCsJwtLyigo0FhfhwO72Xzcu7BpIBN+vnEAtmHh9VnewGuvmgeiU81aTzShu+tU+vcJOS0DB3MoPRY2L//L27shyd4Lkz1UQK0rBmcuVyalpCB75mwkJqeCpZ5zVFbossd0KZQCkNKyQ6Ce1XKZyuhobsaRg/vR1eE9wWVnn6cZXUiEDGHwHPSyxdMxeZJnb5DeitvpUt5gsdzjvhajyaQAwxJr9bVJ0Os1nujEpq1HTvFlwfzaqYAmyYShGRcDQ1JqGiZlTkWMdZguMt3peKJiYdCF9oGhfgFSXPYHEHz9TB0YQNqam9Da3OQFFhYLls1HkgQZ581IwuI8/Y7VfegX7qrs2tuArZ+3oYMK6JAFsKj7rCSlpCElLR1JqemwxY9+06KUPL6+Urxfj0rrGCBrHwQhj5zNaENgaWs5ie6u0wnvWVyEvKx45KSyrRFmT3JMtnckWlS1AMtX0tgxgLq2Aew40o4eCQoI4tgnIRHJqRmw2sbfmyZI8uLnfvKw7nKkM2Pp1mtWl5R/g0D+va89ysa+fV2d6OnuQldnB7o62tDd6dnZysCRmRSDrETPhwFmUoIZpihofDUvWHT5xk4n6tv7Ud/hREPHAKgp1gOGpETExSfBFhcPNhyccOkgNodD9H3MOWEG/jfQLUBuf/CRaW6ny/9XPoM2YesmvT1d6OnqRG9Pt7KOwv5mJcVmwqR4swKWyQkxp777b07+W7b2unGic0BJQ93U6VSyWrW7DYi1xSM2Lh6x8fGwDX5nOxcCL+QTh13UZQJPXT9BmHCFJeJegM4OvBNGUmBA6e/rgcvphHOgH06XE66BAbBtIBZBQpxJRoKJIslqRJLNhCSLEUlsd6vVCGMAoUO10GUiNNv7XGjrcaO9b/DT40KXbESfbIRTMMNotsJisSqTaIslFjEWKwSDpltc1jns5fdNRIdg1lXjFqCZvIWlZU9jjAy3mjEdRpjtKZLcLkiSpKx+S5Jb+Vt2S5BkNyC7IbvdAJVB2ItMWQKVJQiQYYAMEyiMggQDoYghgEmQEMO2yhsNyhZ5s5HAbBBgNgpg26wEZcRLAcqoUfS7KQYkAQMgcEoCnBLgogRuKigfGYIS0Z5xoyzKrWAAu6tTYgQxGAYd2wDChpKEgBAD2GtwYhBABAECYXw1df5xu4kQ4aqqdWXRlfRxLTVKhaLitddTQv7sT1s9tWFPqZ6eLvR1d6G3tweugX7IEoXBKMAcY4UpJgYmkxlmsxkmcwzM5hiYzGbFicO9OG3EWi2K+gvwNWh4XT9Bbrv/0WRJ6m/l0Uk621pxov4o2tta0d/rCRPK3uxMnpqtLI7F2vS54BdMWxNgY5W9XNfb33UNEGUeUlz2IQguCmbHBcKrv68XB/fVoqXJe0/SOXkLkDl17NOOgfDkuO2DDnv5j/Usv/4BUiqK/z5gMGbiHL0Zd9cnm8DWZYaXuectQdqkwNIe6E1PVeSR8R+OJ8o/UIWWRkR0D5BVxeIXBUL/rpH+qpP959sjsxkvu/QKmC3BjXKiumKqE6RdWTYhSRRF9aNKqCir7gFy550/i3FaWtoooN+NSMM6pOaDjSP2WeWdn4/UDE+8rmjxWICA/KnKLo7YSqQ3++geIMo8pER8DaBf1ZvxRpOHnVth2/SHF0tsLBYsvgDsGi1DAKF3V9krfqp3e/ABkNK194KSSr0bc0i+0UDCniDsSRItHgtQ2bB0/RNra/RuDy4AclupeIFEqfdtWeeWbWtpxq5PPvaSMiNzKmYvOF/nkgdFvGMOe/m0oHAKkAkXAPEMs8pYYr6RYRMDNICWzdmW/N1bN3uxYOsgs/J0efRBS1OcSftXDnv5zcFk6C8vbgBSVCL+ioJ+z19FQ9WOrYfUbvcO3pGVnYOZc/Qfnkg7m9HbHfaKZ7Wjrx5lbgBSWFJ+GyA/o57qwaN0srEee3ds9WI4NWcmZpw7N3hC6IgTkeTzq37y8Kc6EmlMUbgBSNEPHjqPGoTtPBh1NBmb6o9j3y7vM0HZubMw/RxNNivr10wUex2V5dzcGbgByOA8ZDeAPP32/tklazx+FAd2e984IxAkv3DYy/+blz7kCiBFJeLPKOidvBh3NDkbjh7BZ3t2ev0rkkBCCb1p/bqKX/PSh1wBpLB47bUgZOReDl6sPShn/ZFD+HwfexieLhECklbJTWa98KTIzQ5trgByww2/MyTn1B4AKPc5Do4d/hyH9u+JKJAQkF9X2cWbeLqfcQUQZtjVJWXPEuBWnow8lqxHD32Gwwf2RgxIeBtesY7hDiDhcspwCBUMIAwowwt7s8WGXGFWuBtecQkQtrt3wNLCPIqrVfWzOfu+ndvR1HDMq8rM2fOQNZ37keQpnXgcXnEJkMGnkWEjAAAJXElEQVTXvesBrAqnO+xogbpnzT8Pk7O42LI0blfwOLziFiCrS9Z+g4D4HFRu3N7TQQUWbujTzR+CHdkdXsLkLAmXwytuAXL77WKc20YPAAirU0gdba3KDmB5WIR0FvFk3qICxCck6QDG/onA6/CKW4AwwYtKyjZQYLl/XabfVscPH8TB/bVeAqamT0LeogL9Cj2OZLwOrzgHSPm3KOTfcus1ZxF85ycfo73FO70cAwgDCoeF2+EV1wBZfreYZDYpw6w0Dp3mrCIfrzuIg3u9nyJTpucidzZ/29B4Hl5xDZDBt1kvAeBqZdYXMI92hoSFDWLhg3grPA+vuAdIUbF4EyWUgSRsCkvZsHvbZiWI9lBhERnnL16mhCPlrHA9vOIeICvWrEk3uc1smJXImeOMEJe93m2oO4zjdYf+HSePZWAELNZYZGbnYEr2DCUoNYflZYe9nLtToMPtzKXVhytQVFr2CqW4kUPnUUR2OgcUYDQcPwLXgFP5zRxjweQp05CVPYPHp8aprqCEfn/9ugqun/DcA2R1ibiSgL7AG0CGgMEOUbH8JMOBkTltugISzkuHyxgza8OjD3jHYeVMKe4BcuuDj0yRnS62N4sLj4oAYAxCgLzisIvf5gwPI8TlHiBMo9Ul4p8J6PV67ozIAYanFyjIivV2sVrPfeKLbGEBkMKStbcBRJcRTwb6+tBYfxSNx+pODaVYWjM2x2AxssJgKDXSzwi6jZTMesYueueA8MUjdVYnLABy2/1iriQpi4a6ScnEkuaw+QUDhsvlmXxbrDZMnuoBBssoFa6FEPy+al35DeGgH1cAWVUsXkYEeRqRkQ0iTPv35HwaBbIBsD3hunjVyzLonjjmAYZbcis+wjLEMmBMmpoNo8EYDn5zdh08qRZZDu6jBKijIEdB5aNUQB2VhaPPV4rv8WIEXQOksLDQRBOnXEcovR6EXssyN49l2MH0lyGzO0szzUDRWF8HWfKkvLDFJyhPi8lZ2Vpnig2Z3mcyVvqBrdkMruWMJhgFPQlKXhUIeT3ThndEUfTcSXRYdAmQ1aVrvydQ4RoKes3ZQOFlzxAi5PCBPTh2+OCpBT4m18w585A5LYfXBb6guSoDCwF5nYC+U2Wv+E3QGPvISFcAKbx37S0QhNsAusxH+UNajWWv3fvpJ2DpDoYKW/2et3hpNEmnXz1DNkGWn3U8UfGiX801aKQLgKwuLrsRBLcR4DINdNSE5Gg5QNhcY8nFX9CEHxdE2bBKhS0xFHgPFM+uryz/Xaj1DilAiorXfpWyJwZVhlKBF7aFKQgasfnGpzUfQXK7TsnMwLEgf1l4vrb1tWdUAsgpdoS8QWT52arKitd9FUHtekFwp9FFLiwW7wKh6qfgCsJcZLSnB8t9vrDgQrX7hy96Wt2gKBUdlRXloTBGSABSVCo+Rim9LxQKq8EzCpDRraj2A2Q4l1Al/QwqQG4uttuspOfv2k7CtX+E9PV0Y8uH3q/yrbZ45Efy/EONO8+4NMjnBkNMwbOPrWkbt6pKFYIGkMLih5aBCN5J+1RSIhRkPvjbX7xe6zIZLrmSxdYOmklDofaYPLUaXY3GUIJ8yQv2hz8MhgGC0pu3/+CRaW6Dqy4YCgWLx7aP3kd3V6cXu0UXXoq4+IRgiRDRfEzGmLSfP/rA6ffrGlkjKAApLCljZwLCKrjC/l3bcaLeO1zoufPPx6SssImIqpHLqUWWHHHYxRy1qI1FR3OArC4pe5en9Q1fDc5Wzg+dEb9qak4uZpzLX+QRX3XWYb3nHfby1VrKpSlACkvLngbFHVoqECra0TdZobK8N19K6APr11U8qpU0mgGksHhtEQh5TivBQ01Xckv418Y3vMQwGA246IvqrHmGWj+e+Gt5OEsTgKz4wYPTTAbj5lDGzg3GW5UtH7yLvt4eL1/Kv/hyWG02nvwrHGRtdEnupRt+8qOjaiujCUCKSsUfU0rXqC3sROlpvSKyb+dWNDXUe4k1e8FiZGRmTVTUaP0ALUAIebRqnfhAgGRGNFcdIEUlD8+icNUARBcHmNQ22HB60Ym6ltadKG3aQWAqqLI/xE6WqlZUB0hhadmToLhbNQl1TCg6UddZ5xA85VhXfo+aUqkKkFXF4kKBYDNAY9QUUq+0ohN1vfUMGZAplj5fKe5QSzJVAVJYIj4H0CK1hFODzjinPwNmEZ2oB2xClQmQKoddVC0LsmoAWVlaGm+gls8JSLrKGuuaXKRO1LW+8QTQ6a0Q+nMdjz/OgkYEXFQDyOritf9FCPljwBJxRiA6Uddfh6mZckFFgJT9nBDcrj9zaStRdKKurX39oa5m0h71AFKytinShles81iqArb1fXhhW94vufLLwTn/648HhX+bVoe9PFUNNVUBCAvoJhD6rhoC8Uhjx5aP0dHqnVNwYf4FSEwJqw3MXHWNDHLt83bxr4EKrQpAVhdH5vBqyPh1Bw/gyGf7vPoiO3cWpp8zO9D+0Wd7rbcoqKK1Om+z1AFISdkmAixVRS8OiXS2teLTmn95SR7WQRw4AAgFNq+3lwccX00VgBSWlH0OIJdD31ZFZMntxkfvvuV1BNdgNOLCy68CIbqJp62KrhwROeiwl88MVF61ANKul+DRgRrE3/a7PtmEthbvZErzlyxDcmqYLQsFY5u0v53g3a7DYS9PCpRUwABhAaaRmOmJ7x/B5eihz3D4wF4vC0ybcQ5yZs0JL6vwAxCgo8HscDhOR/fzoycCB8jdD2TCZPLe8+2HILw3aWs+iV1bN3mpkZyWrqRvjpYQWcDlynI89eOGQLgHDJBbi8X5MqE7AxEiHNq6nAPY/M+NkCXplDomcwyWXvpFCIIhHFTkTgeBkgXPVYq7AhE8YIBE+hrIcOPv3roZrc1NXv3BIr2npGUE0kfRtn5aQKbk8kCT9UQB4qfxR2vG1kLYmsjwwtZC2JpItATfAlGABN/mZ+XY0tSI2u1bvOqkZkxG3vn5OpM0MsSJAsTfftZooau/rxfb/vX+qdyETDyWUGfRRZdGRm5Cf/tDo3ZRgPhr2EGAKJdhYGET7dNvMYmSa4QMJRwhBILA/hJAhLFHptF9Wf52ivrtogBR36YToOgBiQdfDFaecnB/LXq7ukAMAgRigMEgICNzKmKsViX7ktJq6Dr03fOjB4yD2FOCYHvVH/x78Lf+/r7BN2Z0MF+m5xqNDXy6C9UAyP8HAGTXmxtC1loAAAAASUVORK5CYII=;" parent="1" vertex="1">
          <mxGeometry x="667.5" y="160" width="60" height="60" as="geometry" />
        </mxCell>
        <mxCell id="AAcZYnokH5HvOokKQEHz-4" value="" style="shape=image;verticalLabelPosition=bottom;labelBackgroundColor=default;verticalAlign=top;aspect=fixed;imageAspect=0;image=data:image/png,iVBORw0KGgoAAAANSUhEUgAAAMgAAADICAYAAACtWK6eAAAAAXNSR0IArs4c6QAAGD5JREFUeF7tnQkUdVVVx/+WJs5lVE6p5QCOCDgkolYKKQ5kWJCkWanlQOGUEpgDaIqiiZStVq0SBwzREANF0ZwIFXBEzTQHVCQlRFMiJer85D7X/Q7nvrfvvecO57691/rWB+8743+f/z3TPntfTS59EfhpSQ+VdFdJe1Z/9y3T84+DwDmSzpXE32+W9I242quN047F1rKvpNdK2nmxPdyejl0k6WBJb6932QnSbQBcQ9LRkg7tlt1zzRSB/5N0jKTDJF1OG50g3TR1XJiOn9gtq+cqAAH0e4gTpJum9pb0vm5ZPVchCDCT3FPSB30Gaaexa0n6tKRbtMvmqQtE4LOS7ugEaae5h0l6U7ssnrpgBB7iBGmnvSPD5u2Idlk8dcEIPMcJ0k57p0rar10WT10wAm9xgrTT3n9I4mLQZTsQuMAJ0k7RnG5YxHG1oDRtGpMul6DI+0q6g6QTJH1zYMxNoPr90sBayFO8SZelE+RJkl5R4cWx3D6SvpQHv2QpJlCdIANqIF/RJl2WTJAbSjpf0nVqmEGOe0n6aj4cdyjJBKoTZCD08xZr0mXJBLmfpDMSmH1B0r0HIokJVCdI3pE8UGkmXZZMEHA7u8G8fKiZxASqE2SgIZ23WJMuSycIJh9nSrppArshSGIC1QmSdyQPVJpJl6UTBOzGJIkJVCfIQEM6b7EmXS6BIGOSxASqEyTvSB6oNJMul0KQsUhiAtUJMtCQzlusSZdLIsgYJDGB6gTJO5IHKs2ky6URZGiSmEB1ggw0pPMWa9LlEgkyJElMoDpB8o7kgUoz6XKpBBmKJCZQnSADDem8xZp0uWSCbCLJxyXdTdL3WuBuAtUJ0gLR6ZKadDlnguCM7R6Sbly9weAdxuoPb8NzyOGSXtCiIBOoTpAWiE6X1KTLORHkBpL2r/78SmSEOBSMbwueKx7YonATqE6QFohOl9SkyzkQZHdJR030lPUzknZtoSMTqE6QFohOl9SkyykJcuvKOyGeQqYS3EwyW1nFBKoTxArnpOlMupyCIBgW/qmkx00Kz5WV+x5kBkqYqAmzJAh7jNdIuq4BlAsqS128b39F0pervz9vyLtKAhnxgvhziTznSbpTi7JIagJ15BkEV0S/Hp4c79KyL3NP/q/VM+rnDdRQky7HnEGeJWlTZ3HK9gZJH5D0xZ7ArCMH5OPlYds6TKCOSJD3V/3oCdWss79XEn4HcotJl2MQZCdJx1dfuVQnaegpkiDQJzKhADl4J5JyEcpzXMjR5e26CdSRCIJz5WMz4TX3Yp4g6ZWZG2nS5dAEuVG4y3irpLs0dI6gJexHuLTLJTeTxJc1RQ6Wajif7kKOuS2xPrIG11xYzqWcD1V3YjnbMzlBrlktlVLkuCzMFgdIOi1nj6uXhUPMHKtmmkAdaQYBQzDeBvnPAYIUmXQ55AxyYsOy6uuBOA8IF4J8AXPKUMuqehtNoI5EkFRbcutzqv7Opm+5AV0NJhw8c7oSy6cq31VsknPKkMsqJ8hmTeUeR4smSFOIAI5pMQ7Ev21OYeZgz3HLRKFdT6ua2jfVFzXVntkMogFmzNn0LTfzcebG0en1Io1eWm2yuHvIKWOSg3bPiSAfDpFZMdNZCUvWPXKCO2F/Z9O33AR5saSnJZRENNh3ZFYexTXdA3BahfO4tvccm5o4J4LcPwzgZ0vaTdLHwlf8uQ2O9Db1ad2/T9Xf2fQtJ0Fu3nB8+iJJz+yjpYa8TZ4V+x7lznHADACfqcipCGJqXM9Epr7lJAgmJMSZrsvXgmkJRokssXJLyjdvn0tAS/tMoA6wJre0bYg0S+6vqW+5CHLnapqPlfTIyvZqCOVRZuzdnaVc7mVVve0mUJ0gQ6k7a7kmXeYiyMnVQ6d6D86StFfWLqULY6PKYyvW4R4fJC/gpkFU6AfB1LccBCH8wHcSetlTEqcRSxITqIUOmJSeltxfU99yEOThlQVuHeCPRkeQSyGJCVQnSBHqNukyB0Gw1GWvURcsc3lGuzQxgeoEKULtJl32JQj5L5F0/QiS24YTLUKiLU1MoDpBilC7SZd9CcJDlndHcGBvRVDNJYoJVCdIEao36bIvQZ4ans++JILjb0L4s8cWAVH7RppAdYK0B3aCHCZd9iXIMZKeEnWurSOECbDpXKUJVCdIZ3zHzGjSZV+CEJv8oKhXj6ge24/Z2bHqMoHqBBlLHb3qMemyL0HeI+k+UTO5HOSScIliAtUJUoTqTbrsSxBOqrC1qgu+dC8sAqL2jTSB6gRpD+wEOUy67EuQ7wbviNeOOte3zAmwMldpAtUJYsZzyoQmXfYZzOS9ItHDPmVOCZilbhOoThALlJOnMemyz2B2gjTruA+uk4+cWgNMg6jQD4Kpb30U6QRxgqwQ6DOOpvogOEEGQN4EaqFf1BRcS+6vqW99mO8ziM8gPoOs+QpvI0FwWUQYuHVCGlyuLkFMX9lCZ0xT33wGaTeM8cyCx411cnrlObJdyfNMbRpETpBm5cUADuFDdU5DZ5/wjJioVOsEbyvvmlOje7TFCdIDPLISzKYenOakNWEOelY1m+xPDu9fXtrQmkMlvXw2Le3fECdITwzx0I717u2Co7Z3Breij68iQfUsdvbZ6S9EwYvK5dWMAWmIirQkcYIsSZvel+wIOEGyQ+oFLgkBJ8iStOl9yY6AEyQ7pF7gkhBwgixJm96X7Ag4QbJD6gUuCQEnyJK06X3JjoATJDukXuCSEHCCLEmb3pfsCDhBskPqBS4JASdIgzaJt7G/pLtLumsVgHNJil9yX86VdI6ks4OH/TeHIEMX9eisEyQBHubcr5J0kx7AetZ5IIB19SE9HPk5QSI9/l0IYfboeejWW5ERgVOD5fWjJF3cskwnSA2wY6uvTUsMPXkhCHR5yOUEqZTLsmqIOOaFjJ2taSZe9/G+bxUniKSdJX26+tsKnKcrEwE8Yd5e0vnG5jtBJD09uA892giYJysfgeeHR15HGLvhBJH0+jCDHGgEzJOVj8ApiZDdTb1ygkj6nKRbla9374ERAfwIWPXtBJFkBcGIvycrAAGruyfr2LCWNydoTH2jY6aEhfo+mpNCxmhLbl1ay9vUt/NCzJg/kHTmpoQj/rupb06QETUyQlUmpbf42FnLs3SNpfxtLAlHSmPqmxNkJG2MVI1J6RMRBAjmtBQzYeUEGWnkjlSNSektBqq1PEv3/i3YhO1iSThSGlPfnCAjaWOkakxKn4AgWBhz//KPI+FgqcaElRPEAmU5aUxKb0GQcnrevqUmrJwg7YGdcw6T0p0gP1ChCSsnyJyHe/u2mZTuBHGCtB9ay8jhBLHr0YSVzyB2QEtIaVK6zyA+g5QwmIdooxPEjqoJK59B7ICWkNKkdJ9BfAYpYTAP0UYniB1VE1Y+g9gBLSGlSek+g/gM0nYw30vS10MIOUI4f7tt5hmld4LYlWHCattmEHx9/WoVW5Dgo8Q8j2OaYzN0vCRcIF1gx3sWKU1K9xnEZ5B4tEKCl4Ugmwe1GMZXBAcHJ0o6UtKnWuSbMqkTxI6+CattmEGIvPvCELr5+nbsrpIST5MlONQzKd1nEJ9BQOBa1VLp4T2IUc96lqQHhvDP38pU3hDFOEHsqJqwWuoMcm1J7w/Om3c34PWZFu8UiIN+jxlv5E1K9xnEZxC8mj+0gRxflXRM5QH9I5K+U23U8WK/R0WA/dYQ67TgOf1BBuJNkcQJYkfdhNUSZxCc4OEMLyX4AGNPcskGHO8j6XWSbtqQjj3NYXZdjJbSpHSfQbZ3BmEG4PVaLJdK+p3qVMo6WomRclzwG/ZbDRl2k/Rxa2EjpXOC2IE2YbW0GeQkSQckMHqCpFfasdsh5asbSHKypId1LHOobCal+wyynTMIX/xvJpT/bkm/1GNEcjzM5vzGiTK4aPxGj7JzZ3WC2BE1YbWkGeRgSa+J8MFsZFdJX7Pjlkz5i5LelSAfdyPckcxFTEr3GWQ7Z5ATEjflxMIgJkYO+UAiVuM/tLydz9GOdWU4QewIm7Ba0gyCOcjtInz67D1iqF8cjoSfFv1IXBXibcxFTEr3GWQ7ZxAscdkT1OWekvjy5xDuVbhfqcuFDXuTHPV1KcMJYkfNhNWSZpBUhzE3ucyO2dqUNwwxHIkaWxfKpo65iEnpPoNs3wwC0bG+jSWnL9gx6uhLNCeIHUETVkuZQcYYvGPUYVdvOqVJ6T6D+AyyGj4+g6SJlBOXvqSeKr/pY+IziF09PoPYsSohpRMk81LCCVLCsLe3casIAiypDudeSoxRh13FV01pUnqHD8dDQlXPqYJ/YtKzLXLhUpZYTpArh+wQBHlG9WR5W0hR7+fpSyHIGMufMeroOwhzEwQjT2zQtlWOdoLYVb+NBHmnpF+2Q7S4lAc7Qew63UaC8Hzgx+0QLSrllyTdwQli1+k2EgTTGkxstlH2Jq67E8Su+m0kyBmS7meHaDEp/0LSk+iNE8Su020kyP0lvcMOUfEpOeTgWcPhki5fEkH8mHe4Y96nVG6Sih/9GzqA8/JHSOJg4odSygyCSTmPoXig9N8NHR3jEq9NHZY25x50uY95V+3bRdJTw5p8H0m3zN3oCcvDX8Hqz3tS7SiBIHgO4a053hJx8sbb81MSnWkzeLvqxFrH/lWbr7uhzV3b0ZRvKILkbmcx5ZVAkPMl/WwN0X8Pg+/WMyfI54MzB8IrrKSpzbkHihMkM6IlEMT61bam6wOhtQ5ruj5tSeV1gmRG1AnSDlDrwLema1f75tROkM0YtUrhBGkFl9li2AnSDtfZpi6BIMTjiIPf/KSkiyNUU2YR7FVY/+eQ24RjQMKz1YWb5p2j32jbRdFv9GEMkw2fQXJoulZGCQRhgP981O87Svpk9BtxPm4b/UbwnDdmwuw3wlEzjuLqQhtoS134/09Ev3020bZMzdqhGCdIZlRLIMgHJd096jc3vDtc6ASr0/eG3+4dpTtK0rMyYUbIA95G1IU20Ja67Cvp9Oi3fwk30kTSHVqcIJkRLoEg/5QIWPPIhB/el4bwaE+O8CEvr+FyCIOewV+XVJwQ/PUSIbcuOJwjuu7Q4gTJjHAJBHmRpD+O+n1s8OT+R9FvWF++L/rte5KIHBUvedrCyLKJaFRXjzISju1D0W8YuuHytC7PD7Y9R7SttEN6J0gH0NZlKYEgDwhOo98adYIwajdLdAxXoD8T/Z7aJ7SBcafw9f9oIo7hV6ILzFWZxFaPQyVgETvGy7ylEuQ6kvjw3Lcydfli+O9/Dp4uDwnRxL7bRplt05ZAEMDBxCSWPUMcwg9HP+JcGmvMWP48sfyyYvWXVdi2OD0zGDNZXZhRUr6AMZNpsiGztsOSbokEuYWkt1VhLGIMsM0j8jCPmwaREghCx4lYG29yX9IQixDQiAkSy99WyzLrF+d6kl4m6fcSZbFku3Pi99Q+CCM44ouMIUsjCDEi0f06A0lmE5bXrCqySykEeWIVL7AOAI6jAQ6v7nVh4J4j6RoJtL4s6Td5KbYBSQb0ayXdJJHufyTdLbGvwbM8XzKWZHX5/VDOX2fXXLrAJREEcqAnZpBNAu58QLOTpBSCYDrOmj9+/vnDl18Rgnz1CZ7TJJRFAE72FgT9/LHqPoNl253WRLelPIJ6Qp5Y/ipEsoIMdSE8WxySYZOy+/z7UgjC/pJj+7rB5yZcvhD2eUQnRrfZpBSC0OEjG06CbiUJ69lY2B+wicspLKF4FxFL6padNDhbe27OBmwoawkEsSyrmmDIvtwqiSCcTjGVXjNCh2NW1qDfT6DG8TB3FfSzjzDwKIt9Tyy0h435XaJ/4Ij5RlVg0T51t8lbOkHaLKuacMm63CqJIADyvIab8b+v4qCnQOPB1Ss2LJvWDUL2LTzgTz3SIt/rqn1NXAY3+NzkjyklE2TdzMGgT+1Fmn7PNpOURhAGW9MpVerYtT44fzcYOP6hpN2MI5YjZJZp66LYNr3XZm+zu7GenMlKJQh7Dk6rUiRgT8EKgUEfC4c05EvdiUEe8vXak5RIEG7Gz24YVdhKHb1hxLFpfnD1xp3//qkqPY/2CRfNxSJmJZvinz8zLPf+rKEuyAFJxpYSCcLgxgIidZTL4Ma+DnI0PSEgH/lTJCEf+TuTpESCMOgw3fiThtHHCdNjMsYmTFXTtKxaLQOfPTYzqvpKI4hl5lhdAq57Y8PMM8hMUipBfqRa+x/YMBA/V1nevinzQMXknVkjNr9fVYM5PPcs1oGauXnmevseWuRo97oNOfcZ3GvUb8g3PUKDJNybUG4snTfupRIEAH403F2ctMFKFlN5NthcHPYRTEiOqwwfm8o5WRLvT/63T0U981qJOTVB2pIDWDYRhDTZSVIyQVZjKWUOH4+z04Ij4jdUhErZdaXGJa8YGfDMUrGZe5x+LHP2TfwphSB86fdKdAZDT2aO1IbcQhCKZE9C+SkriNbvcpZAEEBhY/70TaOn+ncIdVZ1P3FJ9XSXJRtPYn+i+hsl7WcsD3N8NuxzkBIIgmUzPn9jqW/IU1haCbIiSdPGnZgnOIszyVIIQmfpOBv02NTcBESHRJjWHxBmF75Kc5ESCIK5EL7OsNJeSWrPEWPahiDkTS23MFS9ecKfQaP+lkQQOoknQ268MXvHfmsIAWRmLMxOrMu1Idph/cqm0k29B2FfyOUtwnt9lrCpZVW97W0JsppJ3h4+nJgCIdSL/Z5ZlkaQVcfxNHKYJC7ycgpvTVhS4c1kjlLCDLLCjcdPvNTkyByPNJukC0Eok2Uz7mo/lnhxuqnOxYQ/aOoopyW/Vm38uDBKbdzWgcTUz1qWM3aOjLlInLOURJC2OHYlSNt6dki/1BmkCRTcAuEeyCLcdWBCXZI4QTJra9sIQn+vMGI49Trd2Mwdki2VIOwt/ysChP0frz4HFSdIM7xOkEGHXqvCUzP/KM74nCBOkFYjdaLEbOjju4tR3vo7QZwgE435VtVi38ZpV11e3/AOp1XBmxI7QZwgm8bIHP499e4GjzO5j/Gv0lcniBNkDgTY1IYTJB0UJcK0KPUEelNZrf7dCeIEaTVgJkiMxxls5mLLiFY2VV3b7QRxgnQdO2Plw3Mi1th1+XblAmrwpwVOECfIWAO9az043XtslPn4cIn7210LbJNv2wgCNku9TFtq3/CcGTvfw4o692vRJG+2jSB+k37lMCjlEpR4L1hN1wV/Y7zdGcMZ+OKNFVNfBZ9ByiAI70V4S07Mx7owczCDjCI+g/geZJSB1qGSJlez+E4+r0N5nbI4QZwgnQbOwJmaPOXzYhTn4aPJthFkqRvZ1YBZyvKRY12Od2PhGS3PdUeTbSQInuA3udUn9DQx1kuTJRDkBdVr0Bh7nujiOnZU2UaC4Etr0yYPB3CxacOoiulYWekEwc0S7pli4e0HH7WLOuLSOds2EoQwBUSsXSdEqeobGbezUnpkLJkgbL4JI0E8x1iw5sV6d3TZRoIAMp7gCeyZEqbxlceN0RXSs8JSCcJ+g5k9RQ5CXkzl63gr70FWY3AXSY+r9hoMLPYdmDVY36z3HMuDZC+RILhpwlNMSt5YebccBCxLods6g1iwKTFNSQQhMhePoPA6kxJiSP7CWDfmTcp2gpRIg+Y2l0IQHLjxngMvhykheBHLLmK2TCpOkEnhz175nAmC6cjjqyCoxG5sEk6xHjVwfBcz8E4QM1RFJJwbQXDX86BqGcWMsM5ND20/IoTk5h5kNuIEmY0qsjRkKoIQKgKvlfzBmyV/E7Pc6iEff8cc5b4lCwoZC3GCZARzBkXlJgiDnECm1sCnXSAgQjEzB25eZydOkNmppFeDchMEj+upyLO9GlllPjHEtj88GB8SLm+24gSZrWo6NSw3QazltWnsqVWs+03WDG3KHCytE2QwaCcp2DqgrS8KuTxtClhq7eClVVhtiMFt+besGeeQzgkyBy3ka0NugmA8SJyVPTY0ERIQV54YgxdX9xf8N7ZVhLwrVtoQpNhOesN3QACXOTdwTGwIQBCCwxC00mU7ECAgEKdTLgYEIMgLg73LMwxpPckyEHh58FR46DK6MnwvIMiD53hBM3zXt7aGR4fHR6/a2t637DgEubqkc4MjLh4JuSwbAd5z3z4YCnJz7WJAYHXct2v1ym4nQx5PUiYCnHDtPbO47rNHsn4eXo9dPfuGewNbIzBKPI3WrZp5hvjC6DHhCBAgscJ0WQYC3w/L6KMqK9nLl9Gl8XqRulHl5vTVkvYarxle00AIfFLSgZL426UDAutMDrDg3Lf6w9rV9ycdAB45y2WSzgx7jTOqP7zMs4a9HrmpZVT3/zA32YyEyNiwAAAAAElFTkSuQmCC;" parent="1" vertex="1">
          <mxGeometry x="384" y="160" width="60" height="60" as="geometry" />
        </mxCell>
        <mxCell id="AAcZYnokH5HvOokKQEHz-6" value="&quot;My name is Bob&quot;" style="text;html=1;align=center;verticalAlign=middle;whiteSpace=wrap;rounded=0;fontFamily=Times New Roman;fontStyle=1" parent="1" vertex="1">
          <mxGeometry x="80" y="180" width="100" height="30" as="geometry" />
        </mxCell>
        <mxCell id="AAcZYnokH5HvOokKQEHz-7" value="" style="shape=image;verticalLabelPosition=bottom;labelBackgroundColor=default;verticalAlign=top;aspect=fixed;imageAspect=0;image=data:image/png,iVBORw0KGgoAAAANSUhEUgAAAMgAAADICAYAAACtWK6eAAAAAXNSR0IArs4c6QAAHk9JREFUeF7tXQmUHFW5/v7qSQK4a0LIdHVAxeWhqMeQrk5AdmUXNxQ3XEhXJ6Asbk/UJ0EfKirLk7WrBxDcRXkKKstTiGzp6gEXRHlolEe6epJAEMWFhEzX/1IzHZylllvV3ZXp9F/n5OScqX+/9+t7697//pcgj0RAIhAYAZLYSAQkAsEREIBI75AIhERAACLdQyIgAJE+IBFIFgEZQZLFTbj6JAICkD5paHEzWQQEIMniJlx9EgEBSJ80tLiZLAKJAKIXlh0I1m5NplK4eikCjm0l6iO95GOYrYmcF4DsKM0f7YcAJDpG0ygEIAmC1qMsApAEDScASRC0HmURgCRoOAFIgqD1KIsAJEHDCUASBK1HWQQgCRpOAJIgaD3KIgBJ0HChAGGc5dSslQnECst2ioBumBykWgCSoFEEIAmCNoNZBCDBjdP5fRAZQWYwFPxNE4AIQHqu06ZpsABEAJJmf+s5XQIQAUjPddo0DRaACEDS7G89p0sAIgDpuU6bpsECEAFImv2t53QJQAQgPddp0zRYACIASbO/9ZwuAYgApOc6bZoGC0AEIGn2t57TJQARgPRcp03TYAGIACTN/tZzugQgApCe67RpGiwAEYCk2d96TpcARADSc502TYMFIAKQNPtbz+kSgAhAeq7TpmmwAEQAkmZ/6zldAhABSM912jQNFoAIQNLsbz2nSwAiAOm5TpumwQIQAUia/a3ndAlABCA912nTNFgAIgBJs7/1nC4BiACk5zptmgYLQAQgafa3ntMlABGA9FynTdNgAYgAJM3+1nO6BCACkJ7rtGkaLAARgKTZ33pOlwBEANJznTZNgwUgApDE/a0fLgsSgAhABCAhERCACEAEIAKQRH1ArmCLCJtMsaxEfSRRb5yBTImc74dOs62t+sFXmWLJFCvxb5MAREaQ2J2nHzqNjCDjEZB70mPDAxCAtIK2g1x5LVMsmWIl+BkYZ+mHHwMBSB8CRM+bK0E409d1cg9yqkOrVFDTSYAEd0Re5diVg1Ts6QaNAKQ/AXImCCsFINGQEoD0J0BkBInGxvg00jA5iFQ+0hWDOJGsk9OOBOqVWPS8KSOIUqQEIGFh2mE3CgUgiuiQESQ0UDsyQGSKpYgRmWL15zeITLEEIIoREIBMjoAs806Kh4wg/QkQmWIp/n4KQPoTIDLFEoAoRkAAIlOskK4iI0h/AkSmWIq/nwKQ/gSITLEEIIoR6E+AyAii2D1kBOlPgMgIIgBRjEB/AkRGEMXuISOIAERWsWQVS/HnYkpXScLVI9m8MoIoNq6MIDKCyAgiI4jiz4WMIIDkYk3qBTKCyAgiI4iMIDKCTIyAFG1Q7w8ygsgIIiOIjCDqvxgTKOVEYUTYOrliJ2V/EvXR7cokABGASFWTkD4gABGACEAEIFMiIMu8ssyrOHGTEURGEBlBZASRESTsd0CWeWWZV5Z5ZZlXcVLVJ6kmiaLhw9TJZd5O2dRpOTKC9OEI0qlOJACRK9hi96V+6DTbgtIPvsoIIiNI7B8BAch4BOT6gwRdpx9+VQUgAhAvAjvsPkgC3Puy9MOPgUyxZIqVGC99ARDvPseAx6lZge8SB7WHGGUEiWisfgBID/XX1E0VgAhAsGiROWvDbG1XHm3Oy2jaPJd5HhN2BWMXAm1wNTysEW0YZTw8QDtvcFaf/0TqPXU7KRSAqAAkhEb1Ount1L6T1O6113GzH3/msw9hF4cSqADCPGDs37Nj2vc3ABvAeJgINTB+PkDu6gftoQ0x5cx4cgHIjG+i9gwcXFJcmmHtYDAfwMABAGa1JzGU+1cA/RzkDoO1mmOX/9BFXamIFoCkEuZ0leQKxde7rL2RwB4gnp+u9gnaiO4j8HXN0dGrR+6+4oHtZkcbigUgbQRvprFmjdJbCFgG8GEzzLZNAK52qXn1SPXyO2eYbaHmCEB6qbUCbNULxXeC6UQAB/WAO9cS6Oq6Xf5hD9gqG4W90EhBNuaM4vvZAwZhaQ/6cRuYrnZq5ctnsu0ygszk1gmwbfwbA58m0KIumf84gDoYfwUwH4T5AJ7eJV0/YJfPagxXftUl+W2JFYC0Fb50mQcXmbtoA3QWwB9pSzNhM5hWgVwHLjkA1QmuQ6TVZ2O2s8a+0APIpGfeXic9faedR+c3NZ6vEeYztPkE3o0JxxDw6rbsAf7CwFkN27qgTTkdZxeAdDyk3RGYyy8/jKn5GYDyCTU8CMLP2OUfNmqVHyWU4cu2W2H5HhmXDyfi1wM4og3ZM240EYC00ZqpsB53XCZXf85nmPGJuPoIfKcL3JoB3bTWtu6Iy5+EfvdF5oLRWXwYsfa61mrac2PKmVGjiQAkZuulSZ41zIMIY1Oq18TQ+xiDL+bmwNdH7r50u+495PZ9/6A7mlmxNV1lBYDnxfDBI712wB04+f+GL1kfk6+j5AKQjoazc8Ky+dIJRHxVDIlNgC7amjpy8Uzbwd49v+z5TdI8kHj/4nzs38tMyxu18uoYcegoqQCko+HsjLCcYZ7MgNfZlR4GrhwgXPRQ1fqFEsN2IhpcYr5Uc8dA4v1TTXl5AoxlTs365vYwWwCyPaIeojNrFM8g0OfUzOLvgfjidhMm5+77/mfM2ZJZQBoPkptZAOJBF1hA4EEACxi0XiOsYxfrmHg9E9YNNLGuSZvXN2pXP6pm67+osvnSKzXiFQyUVHmZ8clGzVKMi6rUaDoBSHSMUqPQDfPzAD4epZCBDUR0klMtXxtF6/f+BYvMZ23OYD/yUlLIW3WiPZPIafE8SuAfu0w/mk3ubXEyevXC8iJc90IQ5ijpZww5NauoRNshIgFIhwLZrphs3ryEaGzqEfXYzFRq1Mq/jiKc+H6hYe7nAvsB2L/NpdgItXQLkXsrmtpt9eHybVE25haX9meNLwWwVxSt956An9Zt67UqtJ2gEYB0IoptytAL5jfAeEeUGGL67qZdMic+suqSv0fRbnufM4rHM7RTAS6o8nSOjmvet1TDrnwtSmYub17nbTpG0Xnv05xuCUBUWqSLNDmj9DkGn6Gg4kuObX1MgW6MpHVU+FQAb1Dl6SLdzS7RRSPV8vVhOvRC6d/B/AUVO1yX9x0ZrtylQtsOjQCknei1yavni28EUeR3BAEfqNvWxSrqvJWiDNOpzLxchT5lmmvIpYvCpl6tla77Vex6Eu5uD3f5FKMARKUlukCjL1mehev+FMBLw8Qz4+hGzfqxigmti0u9USPuEVoV8Z2jYQxt3mXg9KCporeI8OQA/hKlkBjX12uWl97StUcA0rXQhgvOGcWrGHRCGBWBT6zblStUTMwa5rcIOF6FdhoN4UZ2cTsIG4loI7nNR0Y1bKQt2iMj91gbBxeZc3mWO2/AxVzWMvOYeS4Yc4l4X4C8w1mZ2HoJd4EG3uOsvmSNH6++xNwbLu6Nkkugz9ftcuw0nCi5294LQFQj1UE6lY1AAsp124qcJg0uMhdqA/AOH70qhol1An7CRDdv3ilzc5yP/qk69jzig3OeeHTzoZqGQ5jxOgAvi2HHOmL3bfXa0O1+PNm8eRQRohMrGUWnZg3F0KtMKgBRDlVnCPUlJ+bhZryp1TOCJfJNjl05PErjeK4WfgJgpyja8fe8igjn1w/P/ggrV7pqPPGo9IJpgPEBAO9S5WTGWxs16xo/+lzBXMGMS0JlMT9CA7Skfpf1R1WdqnQCENVIdYhOL5g/BeOQIHEM3NOwrX2i1OmFYhFMVhTdOC7wRyI+r25XwjuakjA1Iu9QFzNOB+hAJQ6iU5xq+UI/WpUNVAZf0rArJyvpikEkAIkRrHZJs4ZpelOnEDkPZdg96KHa0INhunSjeCpA0YeLGJtBOH909pbz1t9+5SPt2p+EP2cUT2KmD4Hwwmh+Ps2xK//lCxKVvaIYl7NG2zJOIQBRjVQH6LKGeTcBQcdk/+kSHztSrXjTr8Ant7i4mDWqRZnjnQUZJTpl3QxIYNztNe+bN/DkrHMBvDvSbpfz9eHK8FS6bL74YgLd0Sp25yuGgesatnVslI447wUgcaLVBm3k6EFsOtVKJUxF1limE7R6lBkMfKdhW8lWtKKEt/E+VzDPG592hT8MN9ewh5ypVDnD/DADXw7npnc7dvnrUTpU3wtAVCPVJl3Y6MHAHQ3bCj8UdeDKAf2JEe9cRNT3yRcc21LZmW/To2TsWcM8jYDzI7jvdnYeXIJVK0en0ul5cxVorEKk70PAL+Y8d87SNTdcuDmZhZO5BCCdiGKEjKjRg4iOr1fL3wkfPcwrCHhfGE1a6Rfthiy7uPgq0uiXYXK8My4N23r/NIAUikeAyVu5C3vOcGxLKWUlyhcBSFSEOvA+/NuDf+LYlaPC1OSM4ucYFDoquKN42sg91j87YG4qIsYrtOAfYcoI/Pm6XZm2CaiQ+fwgtMde5qy+pu0q9AKQLneHqNEDoKMcuxz4izi4uLhU0yi0XKcGd5+19tA9XXal4+IXGssWudDujjsqLlh68u6Z5havCIUeyEvau5zqZd9o12gBSLsRjODXDbMKwPAjU/mY1o3iNwF6e7Cazn6Udjkc08TrRuldAIekw/O3HLsy7SiAnjc/AILvvsmYEqL/dqrlN7XrjwCk3QiG8Ld2lT2A+D4a8Jqwcjx6xHybCJ+rV61PdtGFVETnCubZoWWNiI90qpUbJhoz78CTnj7nidHfAcgFxtfll68drvy2HScEIO1EL2r08O7+I5zpT0YVxy6bYSJ0w/SmXr6F2NLIZO1iaKaJjjgwdYNjW0dOZcoZ5vkMnBZsJ5/p2JXPtOOHAKSd6EUBJGx6xXxMWIXDXL70diYOruSh0RHO6vKNXTQ/VdH6ktLhcHnSKDHRAGJ6R71W/tbEv7WOEfsmOrbofu3YVpwkzmk+C0C61A3CplcEbJjz6Jzd16wJXqvX8+adQVXbVb5duuRWV8VmDfPbBLzNVwnjLqdm7Tv1nW4Ubw3L9yLiY+vVynVJDReAJI1c1OgRMr1i8FcbdiVwT6N130fwbrDLBzrDlZ93yfTtJlZfXDwAGq0KNID4XU61MmllSs8XPwiirwTxEOGqetV6b1KnBCBJIxcFkJDpFRjvDCuEpudLXwfxO/1UMOirDbscumHYJZdSEZs1SlcS2L9DM33DqZUnpdF75U15dMD7EA85RUm3u0RnjFQvi327lQCkC80etXo1+uSWXdf/0j+7ds89Pzhn0/M2jwDwLfpMAcl8XXBju4iMSMb8806PzhmcOjXVDdO7hGfarvv0Dwq+UGsOXLB2+NI/qTonAFGNVAy61tlw39WrqLpO2cXFt5JGQWkntzq2dXAMU3qSVDfMW4Kuk2OX39YYrnx3omO6UToSYKVz+wAeJpCpegWcAKSDXai1eeWV5glcm2fg9LCLYsKmVwR8um5bn+2gyTNSVM4w/4MB/+VZn2mWapbzBGf/yS69vjFc/llUAAQgURFSfK+ayg3Qi8Oqr+uG6dW69Z9eMS2u18qhqRmK5s5osly+tA8TTzsT0jL6z45tTbtKQTdM77jtC2I4th6ENzhVyw7jEYDEiGgQqW6YDQBeoeeo53HHtp4VRDRYKB6qMf1PwPs/OLb14igFO8p73TB/D+BFfv64xK+derBML5SuB/PRMf3/vebym8J22wUgMSM6lVzPm2vUjpOOcf7Wsa2XB6mMyNr9imNbXs2rvnh0w/SO3p7i56xflq9umF8E8NHYwWE6x6mVAwuGC0BiR/RfDHq+dC2I36gugm5y7HJgtZKsEXLmowvnrdXtTp+yVTr1Vj/NfmdFopMeA31Y49iW70jlcQhAEra94sm4ydKJL3eqlWWBU7W8eQMIvgDS3MwL4yxPJnRrxrAtXLziBa7W9C/jw7jRqVmTctRy+yx/OWfc3yRxgFk7plG7zLf+lgAkQURbJ+K8X7d4JT4ZZzk1a2UgQAzTuyv8lX7v549i9j33WFsSmNuTLIsWmbM2DODJAON9c6z0grkJrHjXyCTB/in1MoIk7DptzHeXObWyt6nl++QMcz0D831ernNsS2URIKFHM5NNN0xvw3TBVOu8XLa6be029e+6YXorX1Fn9n2ddWzLd7CQESRm35j/inc/bWDnne8jYI+YrCDmw+u1yk3+fCs13Rhp+r/jmmNXfA9dxbWhl+h1o2gH3Qvv2INb6wFPrg6pG6Z3qdArkvi4eeeBZ/iVYBWAxIzmeMVA8mrhxn400MvW2mXvkM+0p1XtfVqpmxbh9x3bektshT3OoBvm9wC82dcNTdOd1Zd5y+tPPSEjcGQkBtyBBX5XTgtAIkM3mUDPmx8D4ZyYbGPkO2HOs9bYFz7ux7vQWLHIRdN3E3Csnm7V+lASnb3ME7b5qiGzz1r70onn8Ek3zOT1hrWBF/lVmheAxOxB0WfEgwUGzXM9jrACBgRcULetyIJrMV2Z8eRhJwanFqrYY/FJu41qo+uSOuU2m68eufvyaaWIBCAxI9qND0HPhN0XmQuaA/A+Sv2eax3b8p9qxLS/l8h1w/w+AN/CC5lRDD50j/UUIFRqbYX5Tuzu73cNgwAkZo/RDXNtWDJimLiwKZbHpxsm+/GrVnyP6cqMJw+rJzZ1NM7llx/G5CY+guyOYp53WdDUoAhAYnYT3TC9kpazY7KNkYevYo0BJCina6NjW/OidI6NQhmUoui29/uwvaCJtumG6VWkn+tj74hjW9mJf8/mzfcQ4atJfAv7ARKAxIxozNyrydIjNgrDfjFVKyfGuU45pusdISfgsLpt3RwlLKzyol+H1gvmx8DJFk/CvvEEIFEtNeV9/PyrCQIIdznV6YUHtlGEde4muXutqw5F3v6aK5Q+xcwz9czInzf/bWD3R34Xfc/7gsKyf8uw5rsk7lfySP24wfQG1+C+bq095JtFLQCJDRDzHBCU7yufKj5ortv6BvEu1/GvlUX0ZqdajrwyOre4tD9rPFMLOvjWt/JrAr1QehOYvY90v8dybGvSVFI3TO+U4XExm9O7feuXTs16dRCfACRmRLP50hIiTn6BfUhHDzuqu3Ul+ArHtk5UMTfB4SEVse3TREwxp3x/BJ8z95GjF8w7wVga28gImwQgsSM69jGd7NdqPH068PbahUZpLxccVCpzvWNb0/KSfH99DTN4JErgb6dYwrJmp+rQDdNbwp2Wb+XR+WUk6HnzIRAWxrFVpb6YACRORFu02XzxaCK6PgGrx/KgYw/uOTWPaJss3TDvC7pKmVw6oD5cvi1KbzZvHkeESYUNonjSeD917yJIZ8Q00ffQmW6Y3mU7ce5rvzczisMn7qX42SMASdgzQqsARsh0SdsvqEaTnjfP3DrM+KbEE+HsetX6VJTJC/db8Rx3S9NL3PMvHkH0caAZehY7Sofve9Z8DziN0RLuc6rW3ipycwXzP5nhX5Tbb0o0fvuW8lEABjZoLh/jdxfiVPsEICot5kMzWFi+r8aud0dF7IfAH63bFd+79kK/cQjDTtXKqyiMugk37G5yFfk+U6I/ANg6Mvo/TPhUo2qdrSJbL5g1MBb70TLT0kat7F1F99QTt6qJ6lLzOK4TPGHHIRHjQyyB6hnFEvFRHWhr1G2sodMs0BtUazrphumtZu0fZEhYblicQIceFR67ph33P4F/FP5sf8M3UXNSZw+fHvpOryKqoDwl3os7k/bFOBUWkwFkibk3XNzrj3A+r1GrfDhOgHuZNiFINmXIffVDAfsa2XzxXCIKyt692bGtw1RippSaH5DFqiLfo9GN0o0Ah9rDhJMaVetSFZm6YXorhEvi9K2cUTqWwT8Ikb+awEN1u3KFig0TaRIBJJs/+XlEW6blrXiCd/TasX4B1vPmR0HwqmooPwQ+MajBklwFEKQ4a5QuJvBJoYb5XFAT5UirmuFFAJ4fRhu2ajeVL5s3TyfCeYHyAq58yBnmyQx4tkx86iD6Nbt8daNmXRPlT9D7RAAZ/+UobgZoWk4SM65v1KzXJzWoV/my+eVHE7ne9caB8/BJvjGGnJpVDPI3bClZ6droCYJV0mMY+LYG+nbU9M37tXbBxxMQfQ87Y7Ozy+DT/a5zngaO8TvgvW+LoHsHr3Fs662+P1CFZQdO/PuTjPsftoc2dKIvJQZI1jAfDDh2eq9jW76FBzph8EyWscfi9+42SrNPAOGEoKXaCfb/dhbcQx4MaMjIHXF2lzm1ocDz7VPjpBtmPfTSy20MhGFiup+ZH2Tgt6RRE+A9wXgJCHsHfTz7tUuTsGhd1fqFSptFpYqoLnGr6IpDkxggYXNFtDmvjePATKT1KnI8nHHfwtAOBuEQn2nI3wDcQQyrXrMC58563qyA4F8miHGfxplj45QCameDM2acnwC5RzrVoeC7PiYIjPxWihhtY9oWi7wdgARXsiM6xamWg28gjWVi7xN7hR5ol6fNm9VszuOBWY/5He30nToYK17R2q/YyT8KvMqxKwfFiVDOKF3FYG+E69bzK5B7uio4WgedvERBv7R2z8ZNQMZw7Et9F4W65cS/BtSEGnL54mFMFHRARTkpLaH6vmHTjdKXAP5IiMOxCzroBfMUMH0B4J07GkimczbN2nL2xjuv8EZIpUc3zP8F8JJgYvqyY5fjlxRV0h5NlHgE2dP44DM34clHAR7wU8OM9zZq1lXRJghFWAQWLD1xd62Zscm/XtY21i84tnVGnEguLCzf12U+DeC2q6V46ecu3AsatSHvXg/lJ2cU72DQtHsHtwnwdrzdTNNYd9flDykL7TBhYoB4dkSsgf9m884DS/1qDXXYhx1eXNYwTW+5NNRRl45whuPfejs2xSHteJD7ZoDUVuBahowDQ7OCynaG2Rt9hbO3ZxBvIaIbHaE9gITeAz62KRJaarMbDu2oMnWjdAHAodXdGSg1bMtKGoOxDAlXO4KI92WQ903g3cPh/e/teT1K4I0ADbukrSbmX4bdcxJmQzZvXkKEFWE0zDi7UYvOO0vqqypfWwDZ41XvffbonNne2vVLQ+aQ73bscvCNraqWCh2yRvFmAr02NBTMFzq1iu+1Ads7hK1jtF6W8VHhPuCbTs3yvcQ0bR/aAohnbDZvlohwWYjhf3ds6xlpO7aj6tMN06u+OKlgwXRf6RbK0Kn1uy7zUudnxNOq+3UlgPCM3ohjyWk70zZAxr9Fgi9dHHeIbnfscmDSXNpO97K++UuX7zqr6arsEj8Mpk+EFctOKw56vnQiiM8FEHi7VsuWGVekuyMAidzoGfOe12jQjg2qTZtWY+0IeuKl2tNNxO75wUWzuxeR8a0A7fSoZMaWBX9zbOuZ3bMmmeSOAGRsqmUUP0ugqMM8f2fgw+18SCZzc8fj2u0175s38OQsbwq1q5J3xJdrrJ2Xxg/U2NFhcj8EJqUz9ED8DU8lnztA1DGAtKZa3i094R9g4+cDvKLDlgCl/RbUjeI1AKnuZTwOxvlgvtUZrnS88om+uHgAiA4CwasjrDQaMHBuw7bCNkLbD1IbEjoKkBZIfC898beRHgBwvQZcmcYvWxtxmtGsulE6a+umwadjGcnwrje7lTS+vl6tXBeLdwLx2PTapWMAeMB4YRw5YScr48jpJm3HAdICSUT6gJ9LvAqkPQbmxxh4jBh/76bjO4rsbWU8c0bxJAZdnMgvxmYmvo3G9jvoEe9/l7ARTI8QNTcyZ+aCeJ7GmLv13MVcgOd5/xPT/qAkV56NTSOKTs0aSmRvikxdAcgYSArmOeDkBdZSjEEPq5o8dx9fLNFOBfjgGezUzS7RRSPVctKqMKm61jWAeF4EnPRK1cEdW5n/x20rNcXbdd9r5vjPNe/UX8OufG3m2BRtSVcBMgaS8SvLThubo8rT4QgEr/6MJ5NuOg0gDyjP7bDiGOLoATBf5NSsqUdiY8jYfqRdB8g211o77h5QQtJStl8gelNz9PJoNl988dZvu1MJ7F1E41upsEu+P0DEX5+1hS780z3WX7uko+tiUwOI58lY7tbs2aeBxkrReP/iVMLrejB6T0E0QJ7yySuu9o91h0LjAwA6EOBC5/3lVQS6hUi7ZW31sjs7Lz99iakCZKJ7Hlias2cfCMIBDBgMLCDwoF8hiPTD0isaYwBkikveRuOszbMPZeJDGXjl1nR6r+5vnLvYR7ZmD68j4l9xEzfPcemmXh4pglp8uwEkyKCxkkKZLYNg10u1liciAqpHW1UD6d1SxQPuYJMHFoDcwa3n5geZMALWRjI0uo5GtZGoeraqunqBbsYBpBeCJjb2TwQEIP3T1uJpgggIQBIETVj6JwICkP5pa/E0QQQEIAmCJiz9EwEBSP+0tXiaIAICkARBE5b+iYAApH/aWjxNEAEBSIKgCUv/REAA0j9tLZ4miIAAJEHQhKV/IiAA6Z+2Fk8TREAAkiBowtI/Efh/B6m4yKjiu+AAAAAASUVORK5CYII=;" parent="1" vertex="1">
          <mxGeometry x="384" y="260" width="60" height="60" as="geometry" />
        </mxCell>
        <mxCell id="AAcZYnokH5HvOokKQEHz-8" value="" style="shape=image;verticalLabelPosition=bottom;labelBackgroundColor=default;verticalAlign=top;aspect=fixed;imageAspect=0;image=data:image/png,iVBORw0KGgoAAAANSUhEUgAAAMgAAADICAYAAACtWK6eAAAAAXNSR0IArs4c6QAAHNpJREFUeF7tXQm0HFWZ/v7qruokJiq4JF2dOFH0va73nqKJjsqijiiLRkdU4oALaBqPC3uUoKCOCpLEIcgEojOToKCigoIOQXY3lokiKkPS1XkKBpOuTpRFhpzkdfXr+ofb7yXkJW+ptbuq+tY5nJzz+l+/ez9uLff+P0Fe0SDAJ2TyMHvIbvZCQQ8cPA+EmQzMIsJMMGYBmEkY+Zv4bfRvAOEpMHYS8BQDOyH+IzzFo38Tv0HBY3AwyFpmcw3GIOi6ZjSJdLdV6u70g2ev7xqYR6rTA+YeUIsIvSz+BQ4Jbt2ThYeIMQgFmyH+JRrkhjJozdi41ZMVKTwGAUkQjxOiMFTscRR6AwFvxch/B3k00W7xJwDczsDtisO/qk6rDLY7gCT7kwSZYvTm7C7OVxQcBqLDRgkhVockX4Igt4P5XsfBvdunV7YkOZmoY5cEGQdhvVE8mpmOBXAYAa+NehA6aZ+BXwO4l4hvsdTKbZ2MJY6+JUFGR0Xf1Xs4MplFRLyIgYE4DlbUMRGwkZnWo9lcb83YfE/U/pJgv6sJUrD7DwU5i5ixCMDrkjBgbYxxAxHWg5X1VW3TA230GytXXUeQedyrDzeUEwh4B4CjYjUa8Q3mTgZuzKrOdVtpsxXfMMOPrGsIMoeL88mmEhFKAGaHD2VXWNzBjLWs8drt1B0P96kniHgty0QlKFgCxsFdMY2jTpLwOBysI+a1aX9tnFqCzK4bA1lCialFjJlRz5mutE/YSYx1w4y1O3LmxjRikDqC5G1jAYnVwmndSmlpHLQY5mRDwVp2sK6mmb+LYXy+Q0oNQeY+2X+wM8M5F4xlvtGQisERIKxQdikrtz1n0+PBjXXeQioIUrCLJzPoXAB9nYdURgCgTOCVVa1yVdLRSDRB5tj9r8kQL2Pm9yR9INIYPxH9qMm0Yru26b6k5pdIgryA+2aqw7zndko+Z8R79tkgrGhkaeXfqCy27ifqShxB9HrxRADLQHRoopDu9mCZxdf4FVau8r0kQZEYgszn+dPsxvRLAHwiSQDLWA9AYI2m7l66hbYMJQGbRBAkbxcXKqBLGHhjEkCVMU6OAAG/dMBLa1rl/rhjFXuCFGzjQ08fSRUrx/PjDqaMzxMCjz59pHhpVTOv9qTVZuFYE0SvGytAEK9v5ZVWBBgrrZwZ229XsSRIgYs9bNMqEN6e1nkh89oHAcZNpPE5VYrfceDYESQ/bBxPTQhyzJeTqIsQYGzhDM6pZc0b4pR1rAiiDxVPg0Kr4wSQjKXNCDh8ujWtcnmbvU7oLjYEyTeMC4lxflyAkXF0DgEmXFRTzQs6F8EznmNBEN021gH4SBwAkTHEBoErLc1c0uloOk6QfMO4iRhv6zQQ0n/8EGDCT2uq2dEXNR0liG4b4uzAq+I3NDKiGCHwe0szF3Qqno4RRG8YFhj5TiUu/SYIAULNUk29ExF3hCC6bXAnkpU+k42ApZltn69td6jbxmagVdxZXhIBrwgMWprZ61UpiHxbCaI3jBsxUqRNXhIBfwgQ1luqKWqateVqG0HytrGKgLPbkpV0kmoEGLi0ppnntCPJthBEbxTPA9PF7UhI+ugSBIg/Y6mV5VFnGzlBdLt4GiC3j0Q9kN1pn0+3tGi3pURKkIJdPIVB3+zOwZNZtwMBAn+4qlW+FZWvyAjS2pXr4PqoApd2JQJ7EGAF745qF3AkBBk9z3Gr3LIuJ3FbEGBsIY2PieI8SSQE0evGennYqS1TQzrZu4zgJitnhv4JIXSCyGOycs52DIEIju+GSpDRAguJLzfZsQGWjgMjQMDJYRaCCI0gojQPgW6R1UcCj7E0EAyBRxl8bFglhUIhiCjq1mhMv0XWrQo2slI7HARE3S1V3X1sGMXpQiGIbhtXyIqH4QyutBIaAmsszfxkUGuBCdKqlUt0TdBApL5EIHQEmE8KWgs4EEFaVdZt525ZSDr0oZUGw0CA+YGGphwRpKp8IILoDeNLYHwujFykDYlAJAgQvmyp5uf92vZNENG8RoFzt+wD6Bd6qdcmBGwHyhF+m/j4Jkih0fdD2dmpTUMs3QRCQHS6qqrl9/ox4osgoz0BI9tB6ScRqSMRmAwBAp/ip2eiZ4K0uslOd+6SDTPlhEwYAmVlt3Kk1+67ngmiN4zlstVywqaGDHcEAcIKSzXP8wKHJ4LkbWMBAbHvCuQFACnbXQgwsLCmmaJgoavLE0H0YeMKOLJHoCtkpVA8EVCwxsq6/8LumiCz68ZAhlqrh2y7HM+hl1G5Q8BuMhbuyJkb3Yi7JkjBNr7GwJlujEoZiUCcESDgsqpmnuUmRlcEKQwVezhD94Mx041RKSMRiDUChJ3U5IXVaVO3fHNFEL1urATh07FOWgYnEfCCAOOrVs6cskHslASZw8X5ynBr9TjYi38pKxGINQKEx50sL9xOlS2TxTklQfJ140Ii2Rot1oMtg/OFADMuquUmb/U2KUHmca/ebCjinfFsXxFIJYlAvBHYkVGdBVtpszVRmJMSJG8bZxLwtXjnKKOLEQJ1ALkYxTNlKAycVdPMy3wRRLeNOwAcNaUXKSARIPwNpJTQdGaA8L0EAXKnpZlv8UyQgt1/KMP5Q4ISlaF2DoGHFOLSNrXyCxFC0so/EZRXVrVND4wH34S3WIWGcT4zLuwc5tJzQhD4A6tYUqOx+5vytlEi4L+SkAMRLqiq5kWeCKLbxv8AeF0SEpQxdgyBXykOStummX8cLwLdNkRVkcs7Fp17xxsszXy9a4Lou3oPR1YRx2nlJREYHwHC+uF6pvTXmRt3TAZRYai4lBX6t9jDOOwcYc3YfM/+cY57i6XX+y4Gsad987EHQAYYIgJ0jaL+X2kbbdvtxmi+0fdZYh73FsaNfltkmJZbufJnXBGkYBsPMjDQlsCkk0QhwAq+UcuaH/cStD7U2wtFuRbAK7zotVOWgI1VzXz5lATRG8WjwXRrO4OTvhKCgMv9S/tm80IemJ0dbl4LxhtinyXxMZZauW3fOA+4xSrYxqXi40nsk5EBthUBYnyumjM9vdUUNZtte8a1IG5b2+YgoIiP4lXNHNOJ+QCC6LZxH4BXB3EkddOGAJ1paeV/95pVoW58mwkf8KrXQfnfWpr5mglXkLlD/S91FGfcV3YdDFq67hQChCYxl/w0ydTtvtUAn9ap0P36VRzlZdumbfrTHv0xK0iSPu74BUDquUbg76zwklq24rkRa5J3gDNwak0z105EkKsI+JBrCKVgOhFg/AWMkjXNvN1rgvqQ8WkoWOlVLy7yDFxd08yTxyWIXjceBuHFcQlWxtF+BMTrTgKVtmnlX3v1nreLpxLoP73qxUqe8WcrZ77kAILM4f4+peFsilWwMph2I3Avc6ZUy200vTou1PsWM/EPvOrFUd5Rlf7ttKksYtv7DKLbxdMAWh3HgGVMbUCA+BYl65S20WDVq7f8UPEYUkh8CHy2V914yvPpllZp7SHbS5BCw/gRM94dz4BlVFEiwIzrGpqz5FHa/JRXP3Ptvtc6YEGOF3nVjas8Ea6vquZ79ltBjCcAPDeuQcu4IkNgnaWZJT/W9XpPkSlzLQEHbNHwYy9GOn+3NPOgvQTRdw3MQ7b5lxgFKENpAwIMXFrTzHP8uHrhzoHZ2VzzOjCO9KMfe53hzIusGRu3tm6xCo2+o5hZHK+VV7cgQPRFSy3/q590F/JCtTa863owFvnRT4IOEb2lqpbvHCGIbXycgTVJCFzGGBwBIl5aVSur/FrS7eJ3AHq/X/0k6BHwiapmfn10BTEuZZYbFJMwcEFjZPBHa1rF91FYfdi4HA4C9x8PmkfU+kT4WlU1zx4hSN34KROOi9qptN9RBHa2vo7nTN/fKgr14kVM9NmOZtEm58S4uZoz39YiiG4bYnPWIW3yLd20GwGC5RCVtmfLN/t1rdeNc0WHJr/6CdR7yNLMlxL4hIze2DicwATchixKF73SrXD65KgCopKlbjrgvLXbXPN28aME+g+38mmRs9SBLOV5wKBGs/VZPXUX0XKlyVc6RKtBfEzq8psiIQLfRyqWbKPKg35z1+vG+0D4vl/9JOuxmukjvW68C4QbkpzI+LHzakurnCF+O/ixlz47N0td3WU7le90mlzaPn3y6uWTjXt+qP9YUhzxlXxW+uaHi4wYx5PeMM4Fp+7e8kpLM5fsD0HX9Dkh3KDsUkpeWx7vi9dcu+8fHfAPAcxzMZXSKUJYJlaQFSBM2UgkQQh839LMEyeKNzF1mvwDfpWlzi6BfuH7uXLukPEyVnB911e2Yawk3TauAFLSuZbpxudqeG+Zyvaktw71vg8Qsdi5nK69ZwqttrLl1m2l30vnnuejofwYoMP92kiR3hrK28bVBHww+UnxzxQ1c8I22vS4m1z0IeOtIKx+uhJ5rxv5uMsQ81equcr5geJkZPRh4ydgvD2QnZQoM/Bt8Qwi9tQcn+ScGPg1qbTYorKnDZdz672vcEgRK0n8azZNNkCM86ycGfgbhW73fRfgk5I8F0KNnXCDuMUS544n7I8QqsNojG1yVGXxnhNgXl2IXakZtbmaCCd41Y2D/J49Q0Fj0W1D7MXzVDExqM8E6N8hCJKCKu58T6bBi7c+a+JWWlMNRuLK1BCG2KFSLVf+7lS5TfV7odH3FWY+oC7tVHpd8PsGSk0dXsJ6JfvUYrcFlccb3ELduIAJX07AwP8NCi+xspUbg8aqN4xlYCwPaieN+q0CFrptiDa4/5CGBAn4dlUzA5UtGq3MIZ5L4tlrj/GQ47Q+ALa6OQW5Cnbfxxj89SA2Uq77iHhIfxSM56Un0We+oPvNSR/qfSfEwzvF7pz17xko1bSx3Zz85FkY7lvMTjqqkPjJ35UO4TGxgojOpJorhaQIMX3JypW/ECRcUYyA4axm0JharUFsBtEl4JfkKKV9y2L6tac3jLeCISomzvRro0v07HQSBAADZ9c0M1AL6zm7i/MVRWx07PDRUqIbm9lsaQf971+DTsy83ftqYuXHIBSC2uoCfTuFt1jPDBspfEo1W7kqyEDO3Tp3ujN7lngmOWBvVxC7rnWZr9G0oSVbaMuQa50JBOcNDRzSVJo/AdAf1FZX6I/eYqXmIX2cQbPBtNjKlcWkCHR14jQdA9+oad66OU2U5Iv45QcNN4bXAzgsEBDdpfxIel7zTjxwO5iwuKaavwo6tvpQ3xlQ+LKgdlzpM1ZaOXOZK1kXQvJYtQuQ9hPZ85o3BR8Kp0qeKk3mE3bkzI1TSU71++gBInHL9YKpZP3+Plnfbj82ddu4BsCEO5z92OwSnQ1p2Gridqw2qA28+5FnmTW3ChPJzdldfBMpJLanRNDolM6wtHJoNZLztiFK13wsaM5dqn9HKjYruh08UaniORq9a6rt8G7s5esDBlFTTOSj3MhPLcNNAnx1c5rItt7ouxgs23lPjf0EEmKzYnq2u7uFga6xtHIoRc/mPtl/sDOtuRpEQXfAPsHMpVrOezenicmRypOibgc5FLmR7e5pOjDlHpYrLM0MrX9e3jZWETCmO6r7UPAICCVLNUMr/ZqKRjYeAIxQdE0aj9y6wosZF9Vy5gWuhF0I6XVjGcjbpj8GHsyMdHP6jQsXrkQK9d73MinXuRKWQpMj0Dpym86iDa6Gnog/VVUrl7gSdiFUsIun8EgTIjdbOO6F2lxi0WDFhWlXIoVG/5uZnf8G8CxXClJocgRGizaktOyP29GnJZZWvtKt9FRyc4b6jlPEeXeapFIl8y1K0yltm+G9m9OEzxx236vAvB4EfaoY5e8uERBlf1JdOM4VDtyEorzHygb/2r7HXd42FhAgVpLxvlpfaz/plB59gfduThOl09ozlqGbAPS5SlkKuUKgVTiuC0qPugHjURAdb6nlu90Iu5GZu6un4GQyYiXZ97z/WkszT3Wj71bmoMdf8pzpM3Oi5u7r3epIOXcItEqPClFZvLoF2B+ZM//sp8PrhHD//E3Z/OE7REXHjzHRqppaXupuaNxL6fXizSA61r2GlHSJwGjxatn+YC9eBPxmuG6/Y8eshwJvK993EPRG8QuWWvmiy4FxLabbxvcA/ItrBSnoGoEx7Q8KDdlAZy9yjNsszTwOBMc1mh0QlFVIogV9bAMd2YJtf7R/YGlmbP/P3Imt99FOx/hZ368Fm2ziuf8QhXkWI8zh14f6PgWFvxqmTWnrQATGNPGUbaDHnyLEdHE1V45NyzHd7vsIwOvkhG4DAvu2gR59kyVq2raap8vrGQTI4U9Vp4X3td0vtvm6cTxRq9CCvKJH4AlLMw8WblqveUcJIpo7Lo7ed/I8hHG2PUjW4vzJ6IfAGUHsSF3XCFxraeb7xhAkbxslAny3B3btOpmCTAq/s5qtiDPdbb3mcu8rHFu5BYR8Wx13sTMGTq1p5toxBCkMFXtYoc1djMtUqT9BxG+vqhVxRLktl84D82AP3waiYlscSictBMjh3uq0yuAYgozeZgmC9EicxkeAQA/DcY7bA16UOL2A+2aqDRaV918XpR9p+wAEBi3N3NszZu8zyChBLgfwSQnapAjcr6jK0W4b9fjFUlYh8YtcYL0xh+nGEqRePAlEgcvpBw4x7gYId1iq+daowtTrxe+GcIw3qvDSbZf5/VauIqrAjNxu7Zvt6LbpP6cbgdCy2/umIzSLYuPocN9qOBzaceAwY+sGW06TX7xv6+wxBBEA5G1jAwGv7QYwQsjx65ZmfiIEOy0TesP4EhifC8uetOMNAdHKr6aZY575xiNIkAIE3iJKgTQzLqzlzMCTumAbZzOwKgWQJDYFBi6taeY5+yZwAEH0RvFoMN2a2Cw7EDgDZ9U003dJ0tGz7N/sQOjS5Rg28DGWWrltUoKIH1PTlq2Nw89MH6zlyt/x6lIf7n8nHCdwcW2vfqX8WAREHd6qZr58f1wOWEFa98L1votBsiKf10nkKPS27dmyOP7q6so3+o4k8K1gTHelIIWiQ4BpuZUrH9DIdHyC7Oo9HFkltPPZ0WUVL8tEeLLJdPR2F3WuZteNgYyC28GYE68sujSaYecIa8bme1ytIK1VJBXtoTsw2IxHslr2zX+hBx+eyHuroEM2I76SGx2IULo8EIENlmaOW/Ri3BWk9RzSMM4Xb2gkmr4QuH+aWj/qYXr4yf215/Lc6U5jligzKhvZ+II2fKXJ2k1MTBC7/1CG84fww+kSi4TbLNU8Zv9s9YZxI7jDPQ+7ZAjcpklQXlnVNj0wnvyEBBm9zRL/pwupvL/bcFMl9z1LM/dWfi/YxtUMfDBVGSY/mTstzXzLRGlMSpC8bZxJQKBOscnHL2gGdLmllU/X7eJlAJ0R1JrUDxeBqb5hTUqQedyrNxvK7wDMDjesLrPG/EUQBerb3mWItSvdHRnVWbCVNlu+VhChlK8bFxLh/HZFLP1IBNqFgJsWGJOuICLQOVycrwzT/WC0DrHLSyKQCgQIjztZXridKqIN+oTXlAQRmnrdWAnCp1MBjExCIiAQYHzVypnnTgWGK4K0zqtnWquIm8YwU/mUv0sEOosAYSc1eaGbo9OuCCKyKdjG1xg4s7OZSe8SgeAIEHBZVTPPcmPJNUFae4cI9wPQ3BiWMhKBmCJgNxkLd+TMjW7ic02Q1rPIsHEFHIR2gs5NgFJGIhAqAgrWWFnTdWESTwQZbS0mVhF5SQQSiQADC2uaKb7tubo8EaS1ijSM5WAsc2VdCkkE4oQAYYWlmud5CckzQeY+2X+wM925SzaM9AKzlI0BAmVlt3LktudsEkXaXV+eCSIsF+ziyQz6lmsvUlAi0GEECHxKVatc5TUMXwRpkaTR90Nmfo9Xh1JeItBuBIjoR1W1/F4/fn0TZI7d/xoFjjiWK1/7+kFe6rQLAduBcsR2bdN9fhz6JsjoA7ssdOYHdanTPgQIX7ZU8/N+HQYiSKsCue3cDaJD/QYg9SQCkSHA/EBDU474G5V3+vURiCCtVaRePBFEe4v9+g1E6kkEQkeA+SQrVxG95H1fgQnSIoltXAHIL+y+R0EqRoHAGktz/8V8ogBCIch8nj+t0Zh+CwNvjCJTaVMi4AUBAn6pqruP3UJbhrzojScbCkGE4bxdXEigWwA8P2hQUl8iEACBRxl8bE2rhLIlKjSCiIQKtvEhBjx/jAkAhlSVCIxBgICTq5p5dViwhEqQkYd2YwUIU57UCisBaUcisBcBxkorZ4a6TzB0goySZD0Ib5dDJxFoGwKMm6ycuShsf5EQpMDFHrbpVhDmhx2wtCcROAABxhbS+JgqjbRuDvOKhCCth/Zh43hycH2YwUpbEoHxEGAF765lzRuiQCcygrRutYaKp0Gh1VEELm1KBFoIOHy6Na0i2pdHckVKkNZK0jAuJJaF5yIZvS43yoSLaqp5QZQwRE6Q1kpiG+sAfCTKRKTtrkPgSkszl0SddVsIMrqS3ESMt0WdkLSffgSY8NOaarblLWnbCDK6kojD8q9K/xDKDCNE4PeWZi6I0P4Y020lSIskDcMCI9+uBKWfFCFAqFmqqbczo7YTZHQl4XYmKX2lAwFLM9s+X9vucM9Q6baxGUBPOoZOZhExAoOWZvZG7GNc8x0jyOjtluzX14lRT5JPwnpLNd/RqZA7SpDW2y3bWEXA2Z0CQPqNLwIMXFrTzHM6GWHHCTKykhTPA9PFnQRC+o4ZAsSfsdTK8k5HFQuCjDy4F08D5LaUTk+IePjn0y0tuu0jXnKMDUFE0AW7eAqDvuklASmbLgQI/OGqVolN1c5YEaT1TCJ2ATexSm6VT9fEnzIbxhbO4JyoduVO6X8CgdgRpLWSjJwnESRpy3YCv+BJvZAQYNxEGp8TxXmOoBHGkiB7kpLHd4MObwL0IzgmG2bWsSbIyHNJqxDEJbJaSpjDHgtbjxKwNMwCC1FkFXuCtJ5L7OJCBXSJrLsVxRRov01Rt8oBLw2rNE+UGSSCIAIAUZzObkwXK4nskRjljIje9hpN3b00jKJu0YcKJIYgzzyXFE8EsEwWzG7H9AjRB/MDAFYErZUbYkSuTCWOICKrVlX5YT53tFei7E/iaqg7JmSDsKKRpZVBqqx3KvpEEmQPWKKJT4Z4mex01anpM7lf0dmpybTCb/OaOGSVaILsAXC0Z6Ko5tgXB1BlDCgTeKWfnoBxwy4VBBGgtrrvznD23HbFDefuiYewQtmlrPTaTTauAKWGIHsAztvGAlKwBA5Ksn9i26adDQVr2cG6mmaKugOpuVJHkD0jM7tuDGQJJSYsAWNmakYsTokQdhJj3TBj7Y6cuTFOoYUVS2oJsvf5ZKjYw0QliFWFcXBYwHW1HcLjcLCOmNdWp4VfDzdO2KaeIHvfeHFxPtlUImrdes2O0yAkKJYdzFjLGq/dTpUtCYrbd6hdQ5A9CM3jXn24oZxAgDjnfJRv5LpL8U4GbsyqznVbabPVTal3HUH2HdyC3X8oyFnEDNFX4nXdNPAuct1AhPVgZX1V2yS+gnfl1dUE2XfE9V29hyOTWUTEixgY6MbZQMBGZlqPZnO9NWPzPd2Iwf45S4KMMwv0RvFoYjqOgSMAvDrlE+W3BNzNxDdbauW2lOfqOT1JkCkgmzvU/9Km4rwJwJHEOBKEF3tGOU4KjD8z4a6nn7/uyjjKL7ZN2/SnOIUXt1gkQTyOyBzu71MazTcT0T8x480AnuvRRLvF/06EnzHzzx0187PttKnc7gCS7E8SJODo6bsG5pHq9IC5B4QeOOhl8S9wSEDTXtUfIsYgFGyG+JdokBvKoDVj41avhqT8MwhIgkQ1G/iETB5mD9nNXigt4jwPhJlPHx+eRYSZYMwCMJMw8jfx2+jfxCmdp8DY+fSR1KcY2AnxH+EpHv2b+A0KHoODQdYym2swBkHXNaNKpZvt/j+GqAAuK1pePwAAAABJRU5ErkJggg==;" parent="1" vertex="1">
          <mxGeometry x="560" y="260" width="60" height="60" as="geometry" />
        </mxCell>
        <mxCell id="AAcZYnokH5HvOokKQEHz-9" value="&quot;My name is Bob&quot;" style="text;html=1;align=center;verticalAlign=middle;whiteSpace=wrap;rounded=0;fontFamily=Times New Roman;fontStyle=1" parent="1" vertex="1">
          <mxGeometry x="450" y="275" width="100" height="30" as="geometry" />
        </mxCell>
        <mxCell id="AAcZYnokH5HvOokKQEHz-10" value="&quot;We are cakes&quot;" style="text;html=1;align=center;verticalAlign=middle;whiteSpace=wrap;rounded=0;fontFamily=Times New Roman;fontStyle=1" parent="1" vertex="1">
          <mxGeometry x="450" y="175" width="100" height="30" as="geometry" />
        </mxCell>
        <mxCell id="AAcZYnokH5HvOokKQEHz-11" value="" style="shape=image;verticalLabelPosition=bottom;labelBackgroundColor=default;verticalAlign=top;aspect=fixed;imageAspect=0;image=data:image/png,iVBORw0KGgoAAAANSUhEUgAAAMgAAADICAYAAACtWK6eAAAAAXNSR0IArs4c6QAAIABJREFUeF7tfQucHFWV9/9Ud1dPQuLnA18hXZ0YkqqeMSIR5BVYEQTE8Nz1LUgABRfcVRHDY2F9wGqIoq7iqkiiy6qr7OL6JSKCigKJKBGMYaarEx7T1TE+4FM/Asl09XSdze3phHl3dd9b1dU9Vb8fzGT6nv953Dpd9946D0J8BWaBwjwcyMmkCSITHi0E8VwwzQVh5L/a7+JvmAvQXIDnjghDuwDeBcIuMO0C8S6w+B3132kXNH4CzAUaHi6YO/FUYErMcGCa4forUd9emDYxDBPEFlj8JBOACfCBShg0BCHhIAXhMCDxk2wkUbCeKBcaksYDprVA7CBN3iD98/FCndKHVcHHMtFxBD6uSYhQhzPoXmK+NwG6z+Xy5r4d+HOoAnQ4s9hBGkzg9kx6UQV8OGl8OEDHEOOITp5zJvwS4I3s0YMp0IOLS+XHOlmfoGWPHWQSCxeMnhMY1dMAOgHAK4OehDbjPwLwTwiJ9aYz9JM2yxI59rGD1KdkYEHqSI1pBTysAOGQyM1UGAIxtkDDBo94Q+9g5YEwWEadx4x2kIGM/soEYQWDVgB8TNQnK1z5aCOBN1QZG3pL7iPh8o4OtxnnIP290LVnUisBOpuAk6IzFdGVhIG7AL7dm1NZ1zcAN7qSqpdsxjhI0cALdnP6fI14JQN96k3Z/YgE9HtM62ZTeW3WwV+6X2Og6x1k67xZGT1ZFU6xEsCCmTCpIeg4SMA6dzixbunOPaUQ+LWNRdc6SGGBblU9nK+BVob3wq5t89gmxvSUB16X0LDWHHTtNgkRKNuuc5D+bOrQBLQLiWtLqVmBWi8Gr1mAgD1MtK4K72t9xcrD3WSWrnGQ7Qcj7bn6Kg9YRcDsbpqkTtGFgd0asFrT3dWLH0W5U+SeTs6ucBDb0N8M4CMADuuGSekCHTYDuMFy3Ns6XZeOdpB+Q+9LAKsAnNPpE9Gl8t9aBVb3OW5/p+rXkQ7CAG0z9FU84hzP71TjzxC5/0rA6iWOu5oA7jSdO85B7Ix+Bqi2nDq604xdl9clYIiZyyAagvgdKIu/AbV/A+AeBnoISAPoAXMPEaXF3wDoHar3JjBusEru9ztJ/o5ykLyhf3Tvt9A/d4CBXRBsMGwCbI9QYLC9u1KxD9uJ3TLyb56H2bNTKYtAlsYwGbBAEHkoVic4z96n/8dyjvtRGRuESdsRDrI1k16UBK8hwllhGqcJXpuZ+F7y6F6NtK1LnKHHm6BVNnSb0fMKj72lrPFxxCTyVCJ5aMGM7w2DLl/aAaH2kXeQQlY/C4w1DCxSdidJA9H9AG8C00aqljdFNeW1lvKbSB8NEoGYdDTAy6VVVwRAwGMgXG4W3e8pggwEJtIOEpUlVe1FGLDeA29IeMmfmjv2/C6Q2QgYtDB/1kFVbfj1GmgFAadF4UVq1JdckXSQyCypCHd6oA1cofV9O4ecgO/fUOH75/UYlOLTNPAKME4Jlfk4ZlFeckXOQSKwpNrEwAZmrJ8peRAiL4YIpxGwol2ng1FdckXKQfLZ9KXE/IV2fJuJbzFNo6+ZxfId7eAfFZ6FbPpUz+ML23UgwkTvzxXLX4yKPSLjIHZWvw6Mq8M2DBG+DdZuifOxx1pe5OWDvAuY8faw5wSE662i+0+h852EYSQcxM7ot4BwfpgGIeDrgHeL6QzfHybfTuNVMJLLAe0CBs4LVXbGWqvkXhAqzyg6SMHQf8DAqaEZgrGWwF82S5UHQ+PZBYwKmdThDLo4zC8yAu4wHfdN7TRfW58geUN/iIBDwzAAMUSVjtVmyf2fMPh1K49CRj8TwComHBmGjgw8nHPcZWHwmoxH2xzENvSdAF4eguJPE2P1klItWK4aAr+uZ8FAYltGF04igkWfF4LCv7ccd14IfCawaIuD2IYeVlTnN9nD6twOd2s7jNvtPPPz9aWk1ZzknWHoajkizjPcK3SGdlYvgLEkUDUJW8jDJ82S+51A+cTgNQsUMvpbWcOV4IAL7hG2WUVXFAYP7QrVQQqGvp5HXkYFdxHWlZP6FYc89syfgmMSI4+3wJZFc16SHnY/Ba5VjwnsImCD6binBcZgHHBoDpLPpm4kpg8GqNizTHRFlF4yBahrZKHrL3s/BeCAoIRk4s/mipUPBYU/GjcUBykY+hUMfDI4hei+BFVXLS4O/yI4HjGyXwtszyaPqnJi9d6i2Mf6pWl2HAFXmo4rHDHQK3AHCT58hD+f0CuruqWKRqCzHSK4qDJTdVOrAfrHoNiGEZYSqIPkM6nziGhdQAYqE/g9plO5NSD8GFaBBQpG6hwG3YyR9GHlFzOvzJUqX1cOXAcMzEFEVC4zbg9EcKInCXi3WSz/MBD8GFSpBQrZ9BsZ+AaYX6wUeN9NTDg7qMSrQBxE5HPoxD8KKAvwMY/4Lb3FykNBGDtszEcXzXlJpTzUC0qkCdwDQtoD9yQgfmq1f4u/a0xPA3icwI8nNffxhYOiyEPnXAPZ1DKN6bsIIDNUhMq7TCcHkcIbiIPkM/rtQYRLE/Dw8Bz3yE4swT8wP704kcBiZiwGe+I9UC9ElXmiVr9VdxLocYAf94AnCN7dljO8McouI1pPJJ/RH+AAwotEukKu5J6tWn/lDhJYmizRz61i+XWqDRAknuhalfDoDAZE/JKoOhL0JSqm/JiYfuZp1QdyET3Vs7Ppn4H5b1QbI4j0XaUOEti+g+jfrGL571UbNAi8/IKeBezxmRp7Z4Co3Q69g0B3ePC+mnMqvw5C31Yx7Wz6S2B+X6v0U9GR4v2IMgcJcN+xxnJcUSgu0tc2o+dEHkkwEk8LUeAtUheBvho1R7EN/QYAl6s0lOr9iDIHCWLfIZKaTMcNNHRBdnIGs7NfPsSVVUGe98vKOJo+ao5SMPR1qpOxVO5HlDhIQPuOO6w2J8s0ujHzRuq9BBLRrK9oNDZynzM+YZXca6Mgl23oP4DipDlV+xFpB6nXylWdhPTg7x336OOB4ShM4HgZbCN5DKAJxwgtaC4gO2xKevTug3eUHw0I3xfsPUDy5Ya+CcDhvgj8DmKcKVsLWMpBRJX1gqGLnG6VhaQHWdOOzw0ODfq1Q5jj8kbqIgJ9OUyeQfPSQP+wxCm3pZrMPt3E4QZ53j2K+0huMh13uUxVeSkHCSAI8Vli741mafi+oG+KVvDtjP5xEK5phTbyNIwfWiU3vNoAkxikkEkey6SJ6AhlkcCyQY0tO0i9eY14eijrz7H3LfG5UY2takfllbCdioBPmY57Zdh8R/Orx279u0IZ/loFlrfaxKdlB7ENXSihsLMTf95yKh9QaBhlULahi54WpysDjDAQMd5ultz/bKeItpH6nOJTwVstxz23FZ1acpB6T0ARV6PoovsSevkNUQxZt43UTwE6XpGiHQHjgU7qdcp3t0vYkVD59N2K80ne0krPxKYdZET42sZcVe+JZxPkvSGKyU55Q7+SgH9p143SRr5/SBCfuriNLZ1Hkq404aSq9iObE7q7vNkv4aYdpGDo14ozZlWTF0bSSyuyDmSSx2mk/bwV2q6gicCmXXWynehOZjrux5uZn6YcpD+bOlRjul9ZH3LCOqvohlpy1I9xts6blUklq13V7sCP3hPGEN5lFd1vtkSriMjO6mtVFYIQfdw94uV9TTwZm3IQO5u+CcxqggYJW8pJ/aQoVh+ZSZvy6e5jIvzSLLqhVFCcSo56tZS7lJUUIvqSVSxf4td/fTtIYYFuwcNDqroSEeNtUaxbFcAJit+5EFUf82B+ajwBE80n4GC/QCrHReElYq3uFkHJyZroFgYNy8xB1/ZjJ98OMmDoN2jqIi+/aTnuu/wIGOaYfCZ9EhH/KAyeBPR7wH8RMMAe8tYOd6BRadRH56cPZg25KvERzHzE3lD21wZd+pOBRz3PPaJvB/4chl2m4mEb+n+oquDoAWt6fUaI+3KQkTW59xDAByow0tPsYXkUy4Gqf7czqbVu25tJeFsrR47j0foXHPCyhFc5l4BzWWQnBnSpCvyTEa9e5lScniqoBUxPVYa1ZUt37ik1ksmXg6g8uSLG1WbJjdzRqT1ffxU0bGlkMInPN4G0a6zi0E8lMCYl3fwapOb8Sf8ICNepxq7hMbZYJffVgWA3AVrI6Fcx4fomSKYc6vdEq6GDFA28YA90USBhgaxgogXBklIteCxyVdbtjL4GhA/L6jgF/ZqE7l7T7Bl8s7JsM9IrPPD6Zun8jGemU3KlcijLz6nkqVeVv19R64XBWXCXZR38ZTr9GzpIPpO+jIg/7ceIjcYQ46wo9ud4fOEBLy1X3S0EemkjHVr4/K2W4yqMOphegv4XY05ilr6rBTmnJSHQzaZTfq9q3GbxRH8SJijprc5MH86Vyp9p2UHqVSjEyZX8+jYiLbUmM0Y+m/4wMa9pdrIajSfi95jFytcajVP9eT6bPJpYU1zhhJ6ynHKrFViUqqgqcFQclAzPcZdNVyVn2ieIytwHYn5tVNue2Vl9CxivUjmLTHR5rlhW8uRtRS7b0EUe/+pWaKeiUV0QoVXZau3giH7VKv1oOgZfnHMqX5lS5+mY5A39RwScJCtIlHPLa1X/mJW2fmbiG3PFymWydpOlt430/QAfI4sziv67luO+VSFey1CqctkZuCvnuCc37SCiubxGUNKZieAdG9Vusnkj9a8Een/LMzWBkO5P6OUTg96Q+5HXzqRPB7EI1VdyMbA957jBNj/yKanovsvQlCTWeYylvSX3kclYT7nEUpUtKPqQm0X3HT71Dn1Y3tC3K3xLXSZ4J0bpy8A2dPEl90pFhvUsx00owpKGKWT1b6no4z5d1uGUDqLq8UzQTjSdoZ9IWyMAgPz85OtI00QetJKLmC4zS+UblYApArGz+nVgXK0IDiDtFVZx6AlleBJABaPnBIb3YwmIOilttJzyct9PEFEyU/NIuhmNyvpE8kaYiGAbqc8CpCaLkeBUd7t9fU/imSBkbRVT9YmWBu0NS5whBTdlqxqNpVNVj83T+KjewYpoFT7mmvQJoupbh4jeZBbLSjfAasw6gqJyeUXEnzVDagvWrA1sQxcvw5TUDtDAFy+Z5tSnWdlkxxey6VOZWdTVkrsI11tF95/8OUhG/w1IumPpJstxVZ6gyBlgHHX/gtSr9xaWflgdqLc8qtXVbSP1E4Ber0jXyJWCtQ1dvPORKz01RTjNhCeIqnUdA1flHDfAvoRy0622GiTfYzkVVTegnGKTUKvUNYrLZlWp0ZPtlyc4iKp8iOmOzpTfAS0A2kb6AwB/tgXSCSTE9CGzVFaCpUKe8RhKHaTBe4Mg5G+Eqe6VxMTKOpM8QfRHpENLCHdaRfeNjRRr5+fbMqmVHtFaFTIweUdHtRdHfa/1URG9qkLXvUfG/2U57psVYSmDsbP6D8E4RQZQhJ6YjjvmSHyMg9gL0yaq7CvTajpBPKJLe4vlm2SEDZp2W1Y/e+9T7r8V8NlhOW5GAU5gECqfIIhoHYGBbPoSjfmL0kZMkGU9US7swxnjIAUj9W4GSXUMFSmNw8Oa1bdzKNJFD1TtterJT2+RnpgAAexM6iYQqaklgGgW+Ouf12Mkk54tmxJO4PNMp/KNSR3ENtL/BvDFknMVmXid6fRgIFkw9GcB6DL6Rn3/IXSzDV2E26tZFjGus0puJOsT24b+HQCSX1b0Zcsp7+98NeYJkjf0h0iywaIHPre3Q3qXqwibZvBhUWtvNt7h7UzqHlXt4Dzwu3udisrauTLfT2NoB4zUORpISjYGHs457rIJT5DCPBzISf1JWWmTwwnjYB+5vrJ8VNBvy+hv9wjfahVLdGsynfJFrdKHQVdvK6AsNCTKaQuPzpuVGVZQz4yG3RebO1GrLrP/CaIo8vNBy3FFpY2OuQpG+qsMfk8rAnfE0yObvhzMohegkmuP5r7g0EH8VQlYACC2oYs8EblGPExnWKXy/x3rIIYukmukmmUS+AumU/mHAPQOFDJv6J8k4IMA0j4Z/brq8SV9Oyq/9Dm+LcNqxRye1EV80f4lg6QgtuW4OUmMQMkLRupfWT594QbLcUUHsVFPEAXJNVEond+q9QeyqWUJ1i5i8NR518xiCXpblSvXtLtOlB8985n0h4h42pxrPzij1uPfMB33vGZowh5byOhvY8K35fg+F9373BLL0FkOFKgkUi9b+sSzf5TFaSd93ki9JsG0pAqaB+K5o26OfhW1rMLSbevCA16aqtaiU6Wr0eyTmUGn55xyIFVTVNmlrvcfZPEsx635Ru1/Kl4QEmGLWWx/7SRZw3QLvdp3H9GpjeVnfgpZ/Td7Y8YO8TN2yjH1F4YjDqIgNbNT9x9SRowosZ1JnQ+iW1SK5xGu7S26n1CJGRSWkn1IfaM+4iAKKmBEteZVUJMQVdzCQalDWMPdIFJaoqcK9PU57kBU9R4tl6LaWassx72h/gTRbwFBqk+HBm3REmfo8U4wYLfKmD8IL9IS+s+lg03HGYiYbzJLlUs7xW7bjJ5XePAek5K3Xset/gSRLg/jWo7r94hUSu6YeGoLFAwFkdgT4Z+pAkd0ytNjn/i2oZflwohGTrL2OciTUpXbCb+1iq7cpii+86UskDf0TQQcJQUyCbEGrF7iuFeoxg0aT74Y4EglSVIUYtIRAYpBT0o78Pvn44UJTf8tgIMC4P+H6rB2RNQjsyfTW0Xgogg5IdtIHgNoou9CyxcBHzcdV1VCTstyzDRClcXTJrNdo7KcUbZ3wdA/xsC1cjJ6y8nOps4Hyx0JMuGduaLbctCfnBIzk1pl3eTJLNjpx/b5rP4OYsg1ICW+gOyM/gkQJpQ7aea284hf01usiB4i8RWwBe4Bki83Up8BKMCYN77HfHHlZPo1KgGrExi8CB3SmH4txYBxHako0vDMsHvAYTuxW0qYmLihBUa6YPGNAJ3QcHCLAwj8p2HCKc20Sm6RVaBkm+dh9pxkLSFO4uLPiyeI7DuQ+IhXYgr8khaM1Dmi+WRATX72i9FNy2Xpo17GWpJNxyTgadNx/4/fiY7HNW+BgNvDPeccjKtzEewf2bzFRigKhv7/Wa7p520kXS6F+UmrVHlJq0rEdFNboN7ZVTThke7R0sjODLo5F4EWa43kbOZzO5P6k1TIDeFOUlDFvWQ5rtGM4PHYxhaoV55fpzJcfRqu6y3HPb2xVJ01wjZ0UVlHoiQTbRRPENn2Y9utiDRV6azpm+7JUWvLIDrKSlVc8WmPu6xpOiz5xIjkMNvQtwFY3LJwhN+KPYgIMFzYKggDj+Qcd2mr9DHdWAuo7lkyrX0Zn7ZK7uXdOgd5Q99Kcs2DnhBLLLk4LGCz5bhySfLdOkNN6qUkCtUnT2K+xCxVvuRzeEcOsw39QQCHtS48PSWeIENNFCuYhBfdbznlY1sXIqYUFtiyaM5L0hV3B4BU0BbRmFcuKVWkKmgGLaMKfNtI3wfwpJ2jfOKXYwfxaakgh5XmY9azWmqDwh4eU4n7O49xWW/JFRUIu/5S5CDxEqvdd4pt6LcB+Lsg5SDC90C4yhx0pYuTBymnSmxVS6x4k65yVprEUlaVfBq+UW9m1KTJfA9Xs0mPj3l9G1z1wPxB6SWU4J8DeJlqbIFHwK8A7aqodhkOQufRmIqOeaXTbeMXhS3OtG3ootDyOS2SNyK7FbPcS6wCdjUa2K2fq3pRKNeZJw41aen+shekT4HHP2yJuCFRNHt4NBRb8QBFoSZyvSPiYMXWZlVFSuhknAm40nTcT7UmVXdRqQlWjMPdQ78rVKQ5T+4c3rGmMyyVPh26MQJkqCjcPfU5gP5RRs44Yao569lG+maAL2yOavrR+2rJqsTsZCyVCVNxym2Id8LDC/D8WZ4+CEBZDk1ctG/iBKpLuY2LNoToHkA+kzqPiEQYu5JLg/aGJc7Qj5WAdRGIuqINcdmfUG8LO6t/D4wzVTBl8EU5p/JVFVjdhqGs7E9cOC7cW8NW0IdFSEzAv5uO++5wpe8cbipOCWuF44TK0iHvcelRX3dOPYVWVEGUvjTC3y4purdLA3UpgHwiYL30aN1B7gf4GAlbxZVNfBhPybp4hE+cxdnA3tJHvBhdvFr+XQjik5TGHlJvFipfCJpxnVVyr2nMcWaOUJJ4Nrb9gS6624out61fjDOtkvv91gG6nzJv6BsIeJO0ppw8yCrt3imN06UAdkY/A4T/kVRvdAOd9Okglrq5mfjGXLFymaRQXU1uZ1L3gOh1MkoysDvnuAfIYHQ7bT6b+gwxfUhKzzEt2BamTVRZNpEmzk1vtC5W4iD8x5xTCSQ8XuqGihCxfKIUgNFNPEc26vJtoMWxmLkTT0XIVpESRcUTJN6gTz+lil5bYEwbaMEyb6R/TuDjpO6o+mNJCqOLiVU4CAMP5Rz3NV1sJinVVHRsZtC9Oaf8N0KQ2nuQ2hNEQRsEADdYjrtKSsMuJlbhIGD+mVWqHN/FZpJSzTZ0cdgkDp1av0adEu53kO2Z9ElVYlHNT+KKSwBNZ7zYQSRuLZ+kCiqZIMF08uJS+a4xT5B6r7v/51OOKYeRl5hv7tjzO1mcbqSPHSTYWS3Mn3UQa1VRW0zqqnrui/p24M9jHET8I5/VHyDGETLoHvjcXqdyqwxGt9LGDhLszA4YqXM0kMjzb/liwi9zRffIfQD7l1gjDqLg/BiIO95OMT2xg7R83/oiVBGgOP593hgHGcjob9MI3/YlzRSDCNgzPKxZndg6WEbvmLa9Fuif12Mkk57NwCwZSTzG23tL7n9O+gTZnkkvqhI/KsNA0HpEl/YWyzfJ4sT0sQX8WkBVAb4E08GLS+XHJnUQ8Ufb0LdCrmS8ODy+0yq6b/SrXDwutoCsBaQ7pY0I8Ig1rpXHmCXWiIPIF3GoPUUYS3tL7iOyisf0sQUaWWAgo79yb36M+GKXvCbWE5vgIAWj5wSGJ53jPFPrwUrOUEzeggXyhn4lAf/SAukYEoJ24vgyrRMcpPYUyei/AeEQSYabLMeVScKSZB+TzxQL2Ia+EcDRUvoytlgl99XjMSZ3kKx+HRhXSzEUcSxEbzKL5TtkcWL62AJTWaCQTZ/KzD+QthDheqvo/pMvBxlYkDpS8+gXskyZ8b1cyT1bFiemjy0wlQXyGf12IpwlayFP46N6BysP+HKQ2jLLkK76XuM12bpOVpmYPraAsICq/TLq+eeTWXXSJdYIc/0KBj4pOxVE+LZZdN8hixPTxxYYb4FCVv8WM94ua5npCn5P6SDqjs7EUyQuqiw7iTH9WAsUjORyhnafCrtM90piSgcRjPOG/iMCTpIVgoCvm467UhanG+ltE3N5d/ooTcNiBr9wZFlKf/Y8bKfZ5V/M5AY40813wdDXMXCe7D3BwF05xz15KpwGDpK6iEBflhWiNunMrzVLFdG3Or7EEnbk9OW9AM5oYJDvE9FX49PA56xUyKQOZ6JfqbiRGHxxzql8pSUH6e+FnnxGf4iBPmlh6nWGpHE6HODRebMy1UT1c0xo6nSPGLcnqokPHLxzT6nDTSAtvq2gjtvIkxr9w3PcZX0DcFtykNoyK5O+jIg/La1V7SmCs8ySK1uvSIUobcGwsz3Hg71vSTTt/ANIe4dVHLqnLQpEgGkho5/JoqW1gouZPpwrlT8zHdS0SyxBWDTwgj3QHwKwQFYmYjywpOQuJ6Aqi9Vp9HXnECnNKUnZKyDt5JnoJAwktmX0+5mwP6FJwpaDs+Auyzr4i5SDCOKCoV/LwMckhNlPSoyrzZIrHTejQpawMMSyajhZFWtmVfWs/pAcTrx2pi23Chn9KiZcr2LeCPhn03E/3gir4RNEAGydNyuTSnoPAXxgI0Afnz/NHpbndrgKoi99cIvAkEJG/+9m9xyNxBZ7ErPk/m2jcd3yeb0yvui/+Dx5neipyrC2bKmP/ZwvBxECDRj6DRpwubxwNYRvWo77LkVYkYZRFis0iZYzKdbNNvT/2Fs0750qJtsD1vQ6rq/SQL4dpLBAt+BBnGhJpTTuU5AYbzNL7ndUKBxlDNvQxaFEo6PcVlX4vuW4SrpVtSpAGHSFjP5WJuxPg5XhKVLCoWGZOej6KrXr20GEUHY2fROY/15GwP20jC3suSfkfgfpUkNK5AkARLwExB796QCgn4Oc5T6vm18mblk05yXpYfcusHT6xYjNiL5kFcuX+J2TphykP5s6VGO6n4DZfhlMP46+Yjnli9VgRQ8ln0mfRNLF+KbXi5lOztWLnEXPAvIS2Vl9LRhKojBEZXyPeHlfsfKwX8machABqvJES+Ax88pcqfJ1vwJ30rhCNn0JM38xSJmJ6FKzSwtk5LPpS4n5C6rs5/fkajS/ph1k+8FIV11dnCYcpkjwnaThBL9rQkU8Q4Gxs/o1YDQ8SpQShnCtVXQ/IYURQeLt2eRRVdbuBqCqF8rmhO4uX/woys2o27SDCHDb0N8M4LvNMJpuLDNuz3XhkWXsIK3dISNfwum7AT62NYRJqd5iOe5tzeK15CB1JxElHs9pluGU44k+YhXLa5ThRQAoXmK1NgmqKuuM4n6r5bjntiJNyw7Sb+h9CUAstZ7fCuNJaCrE3glmaVhJjL8imaRg4k168+YrGKlzWLK+7jiuf60Cy/sct795aUb1B2mFWFXW4SjeW7lKf5f7XXlbK/JEjSY+5m1uRgrZ9BuZWQQippujnHr0dNmCfni0/AQR4Hvjs6hg1DbsciVXxkq6Oa25xy4cxJAfBaI+Jn5R6G+GBrKpZRq0O8H8Yn8UvkZtMp1acCz7Gj3JICkHqe1F1LTcHSfaSBP3VpWKEl0catJ4NkTeUeIZfQDAosajmxihoDW5tIMIcfOG/lFxxtyE6D6G8k8tp3KCj4GRHxIHK04/RQWjlpR3qMqJFNHnOcf9qCymEgepOYmi+kTjFFpvOe7pskq2mz4Od596Buxs+mdgrjXMVHWprMemzEG2ZtKLdOIfserHJCYWFFZlyDBx4oSpida2s+kvgfl9KueBgMdcppMRTk82AAAHQElEQVSXjmphIIOvzEGEEIWsfpZ46Scj0BS0ayyf4ckB8FYGGafcPmfKQla/nhlXKTNuHYgIZ5tFV0lKroBU6iDB7UdqgnZF6aC4aIO6FhvjnUvVvmM0rnIHCXA/IqDv+L3jnnE8MKz6mydsvJla9sc20jcDfKFqe6vcdwTuIMHtR2qiP8ia9pbc4NCgaiO3A2+mFI6rHeXu0teBoLwMrep9R+AOEvB+RMAPEnvndlNYSjucMyyeWw6aNT+drN4MxilB8FS97wjFQWpLLcXx/OOM+yyB32fGPdmDuOeUYRYyyWOZtM8BWKYMdBQQE70/VywHlnMTyB5ktCFsRc14pjYufz6hV1Y1G+cfxGTFmGMtYGfTl4NZlOmRrQU2uWmnaHqjch4CdxAhrKpSkVMrTvclqLpqcXFYuumPSuPOVCxR4MOr4nqx9AnMBiGVsg3FQWp7EkP/AQOnBmYw4FkmuiLIx22AsncNdD6TOo+IxFNjXlBKEXCH6bhvCgo/tD3IeAXyhv4QKY65mWAkwrpyUr/ikMee+VMYBox5jFggfxBeRIn09QBfFKRNGHg457iB7Gcmkzu0J8g+5rah7wTw8iCNCMIW8vDJmVB3K1A7+gSv1a0CrlTQGbkRx99bjhvYkykSDlLbkxh6y/H5jSw47vNvsofVM6nMaZP2kRpeLwe6SlXFw0bCWI4b+hd66Az3P0myegGMJY2MouDzp4mxeknJXT0Tq8orsN8EiHqV9VVMEM6hoFZuAykJ26yiawahSyPMtjmIEKxg6OsZWNFISBWfi9YLAFbP5P4kKuwo+nMAEM6hogVBQ5EI2GA67mkNBwY0oK0OUtvcZVM3EtMHA9JvIixjLYG/HLeDa87itbZnoItBOL85ytZHM/Fnc8XKh1pHkKdsu4PUnyRKWk43Yw4RHQx4t5jOsMipj68pLCC6yQLaBSoaZjZjZNliC83wmm5sJBxk5EmitsykXwOJPu5g7RbTGfqJX5qZMK5g9JwA8i5Q0Ye8WXsFHT7SjDyRcZCak4y8ZFrXjAKqxopwaU2jr830brIiDN/z+EIinKXKts3gRK1Wc6QcpLbcyupngbFGfequ72naxMAGZqzvLbmP+Kbq4IEDGf2VRDiNRg5MVJZw8m0VEbIOwuUqswF9M59mYOQcRMgq8kmS4DXt+hbbby/CnR5oA1dofd/OIUeFwaOC0T+vx6AUn6aBVwQVhu5XV/H0HgZdriqP3C9fP+Mi6SD7BA+mnJAfs4wdI7oSMbDeA2/Qh5M/69TmmSLd100Ov04DrSDgNFXdwpq36HMUQaTJysgznjbSDhKRJddk9n6QwA+AaZObTN2z9Iln/6hyUlRhbV14wEv14crxID6aQeK9xeGqsGVxorqk6jgHidSSa4q7Yu9ScAuY7wXTT4m03y5xhh6XvYFaod9m9LyC2XsViF8PouP2Ll0OaQUnaJooL6k60kGituTycQO5INhg2ATYHqHAYHt3pWIfthO7fdBPOWTzPMyenUpZBLI0hsmABYIFhgVAl8EOgzbqS6qOdhAhfL0WsGjh25bTFgU3kYi4G2LmMohEge6hvZGwZfE3oPZvURa8h4EeGqly3gPmHiJKi791ghNMYaNNYNxgldzvK7BhaBCR34NMZglRVX6boa9i1ILlVPUnCc3oM4zRXwlYvcSpBYuGFcWtzMQd6SD7tK838RFOoq7TlTLTxkB7q7XfWgVWt9q8JgoW7GgH2WfAes9EsexS1Vg0CnPTyTJsBnBDKz0Bo6Z0VziIMKpo/Oi5+ioPWKWuj3vUpiva8og+5BqwWtPd1d1SZaZrHGT/siubOjQB7UJiXhmFF2HRvqXVSFd7kUq0rgrva33FysNqUKOB0nUOss+sovRM1cP5GmglwAdGw9zdJgU95YHXJTSs7cY+92K2utZB9t2KW+fNyujJqniarASwoNtu0TbpM0jAOnc4sW7pzj2lNskQCtuud5B9ViwaeMFuTp+vUW3p1ReKdbuMCQH9HtO62VRem3Xwly5Tb1J1ZoyD7N+j9ELXnkmtBOhsAk6aCZMsqyMDdwF8uzensq5vAK4sXifRzzgHGT05Ig8iQVjBoBUAH9NJExe8rLSRwBuqjA0zJS9mMpvOaAcZ4ywLUkdqTCvgYUUIBdCCv79b4cDYAg0bPOINvYMVUQVmxl+xg0xyC4h8bEb1NAKd2O37FbGvYPCPCYn1cV7+xJshdpAG35H2wrRJVe9IhnYkg48IvLZwwN/ZorYtgX5J8B7ghPaA9US5EDDLjoaPHaTJ6SvMw4GcSB8NEnsWOib6exfaCPBGMG2kanmTuRNPNanyjB4eO4iC6RdPGQzDBLHIyzBBJMpkmuG9oCRx0xfAXACJn2QjiUL8dJCf3NhB5G04JULtaZNMjjiMRwtBPBdMc0EY+a/2u/gb5gI0F+C5I2C0C+BdIOwC0y4Q7wKL31H/nXZB4yeEQ9DwcCF+KgQ3if8L/JkaXlZua3wAAAAASUVORK5CYII=;" parent="1" vertex="1">
          <mxGeometry x="727.5" y="154" width="26" height="26" as="geometry" />
        </mxCell>
        <mxCell id="AAcZYnokH5HvOokKQEHz-12" value="" style="shape=image;verticalLabelPosition=bottom;labelBackgroundColor=default;verticalAlign=top;aspect=fixed;imageAspect=0;image=data:image/png,iVBORw0KGgoAAAANSUhEUgAAAMgAAADICAYAAACtWK6eAAAAAXNSR0IArs4c6QAADZBJREFUeF7tnW2MXFUZx58zu91VSlEhWKKlc6dz75bsyrbpVg0lMfSDJbxUqFglUYxfpBVT40v6wfLBEkNNpIkGIpb6xQgmyIu8FFDxg40JEJWt7eJu6N4znbulEpoGlJei2+7MsdOydenOzpzn7p3dZ87577fNPOfOc3//89tz7rzcVYQfEACBGQkosAEBEJiZAATB7ACBBgQgCKYHCEAQzAEQSEcAK0g6bhjlCQEI4knQOM10BCBIOm4Y5QkBCOJJ0DjNdAQgSDpuGOUJAQjiSdA4zXQEIEg6bhjlCQEI4knQOM10BCBIOm4Y5QkBCOJJ0DjNdAQgSDpuGOUJAQjiSdA4zXQEIEg6bhjlCQEI4knQOM10BCBIOm4Y5QkBCOJJ0DjNdAQgSDpuGOUJAQjiSdA4zXQEIEg6bhjlCQEI4knQOM10BCBIOm4Y5QkBCOJJ0DjNdAQgSDpuGOUJAQjiSdA4zXQEIEg6bhjlCQEI4knQOM10BCBIOm4Y5QkBCOJJ0DjNdAQgSDpuGOUJAQjiSdA4zXQEIEg6bhjlCQEI4knQOM10BCBIOm6nRy0Nw94Ooj5DtISI/t5JNKy1PjaLQ2KoMAIQJEUg+WLPNUqZHxLRwLThinYncbwpxWExRCABCMIMpRCGGw2ph5oNS3QMts0gtcHjCJERUqFQWGw6Ol+zGaIMbS2X4p02taiRSwCCMLIphOFOQ+p7tkNUZeKScrl81LYedfIIQBBGJkEY/YmIrrIdoshcXdb6Wdt61MkjAEEYmQRh9BYRLbIdgm2WLSm5dRCEkU0QRoZRTkTmjkTr7bwxqJZEAIIw0oAgDFiOlEIQRpAQhAHLkVIIwggSgjBgOVIKQRhBQhAGLEdKIQgjSAjCgOVIKQRhBAlBGLAcKYUgjCAhCAOWI6UQhBEkBGHAcqQUgjCChCAMWI6UQhBGkBCEAcuRUgjCCBKCMGA5UgpBGEFCEAYsR0ohCCNICMKA5UgpBGEECUEYsBwphSCMICEIA5YjpRCEESQEYcBypBSCMIKEIAxYjpR6J0gQXBaYXLVX5aqfMtXcX1U1N5IkLyc2ebZKkMWL+xcuXPjf3kqu2l/ro6OaGzp+/AMjR48OHbfpCzWtI+CNIEv6+i7sHD/xSyJaXwfnnonurq8dGR5+oxHqVggShOF2IvV1IvrYOc/9KpH5Bb6y27rJb3NkLwSxvZ9Vs9v0ZC1IPux5SJHZ2CgoQ+rhMT36RZswUZM9AS8EsZmINbTNJmOWghTCcJ0h9QebSHH7IBtKralxXpB8FN2kDD1ii88o+sJYHD9arz5LQYIwep6IrrDs64VEx2ssa1GWIQHnBSmE4Z2G1DZbZorMjrLWt7dSkN7e3q53T5x8m4i6LPs6cV7XgkUjIyMnLOtRlhEB9wUpRk8ZRdfZ8lKGni6X4utbKciyZctXV3PVv9n2VKvLVXOfPHTo4IucMVnUBkHwYersXEkTE/uTJPl3Fsdsp2M4Lwj3dqGnbi26N9Hx2lYKEoThVUSqdhtTxo9Zm2i9lzFgVqXvvbp2AxGtnHKg/UTmCZ9eWYMg06eR94IEYfTPOi87TyX1aqLjj8/KwDYZDEEgyPsIvLdy/KD5/PXjtqoQBIKcJcB56bk2yIeXnyEIBDlLIAh7vk9kdjRfPSYr1LZEj/7Ivr79KiEIBJkiSPggkfqS/TQ2v0m0vtm+vv0qIQgEmSII7x8ENXrFr/1UqN8xBIEgEKSBzRAEgkAQCGL/fwV9fqMwyzdVscVqEwJZhp7VhxWlvpOeJas2mR5N28QWC1ssbLHafYsVFHtuNIp6FZlPK1JHyND+ClX2HS6VBpv9Ccjyr2I7rCBSWE3NZWmxONBBHatI0UpDZokh9RdlaCQpjT7eLL/5flz0ClIsFsOKyj1IRAP1QBlF94zF8bcaQfRFEGmsJjPJR9HdytCWGTIa7DDVm0ulkp5vEWZ6frGCXNzbe/7CM9+ZaPLT+DNBPggikVUtNNvPdR3vWrDo2MjIO82Sno/HxQoSFKOfk6LNNlCMqV45VirVvqE37ccHQSSyyheLa5TKPWeTHxnalZTib1jVznGRSEEuDcNiByn7ZVfR7iSON/koiFhWUXQfGbrVdj5XyISvaF2yrZ+rOpGC5Is9G5Qyv2VAGEx0vNpHQQSzqn37se61Y93rSaM+P1YafYyR+ZyUihTEdu86lVCi47rn4voWy3VWc2JBgyeBINPhtNU3CiFIaxWCIBDkLAGJq21rp3/zo0MQCAJBsMVy98OK2GI1XwVmU4EVBCsIVhCsIFhB2vUVv9n89c9iLFYQrCBYQbCCYAXBCpJuPcEKghUEKwhWEKwgWEGwguCjJpZzoJ0+lmN5Si0rwxYLWyxssbDFwhYLW6x0iwxWEKwgWEGwgmAFwQqCFQQX6ZZzABfplqBO/4sHgT+ufwAvyxvHuc5qvqcnBME1CK5BcA2CaxBcg6Rbi7CCYAXBCoIVBCsIVhCsIHgVy3IO4FUsS1B4FasuKNzVxH7+tJyVfSutqcQ1CK5BcA2CaxBcg+AaJN0KI3IFyS/ruVblzNOMU3oh0fGaevUS7/WU5RuFglnVbiZ+hW2GpqquGzs0+oxt/VzViRQkCC4LqLNStoWgSN1b1qPf9FEQqawKYc/PDJnbbDOkiY5CkrycWNfPUaFIQWrnHoTRk0S03oZDTtH6Q3H8lI+CSGW1LIqurxraY5PfqZtc70l0/DnL2jktEyvIkr6+CzvHT7zejIYi+nVZx1+Zqc71LVbtvCWyqvVVCKMHDNGXm2U40d110ZHh4Tea1c3H42IFOQ24UFhc7VhwjyKzsR4cRearZa3vbwTOB0EksprMpBCGtxhSv6qXkSH1cK5ycku5XD46H5Pf5jlFCzJ5AvkouilnzCoyagUp9Vrtn3hSp/pz+eDBoWYn6Ysg0lhNzaWwfHk/TZjP1P6JJxlzCSlzoKrUvrE4frRZfvP9eFsIMhtIvgkihdVs+pA0FoJMT6Pl7w5n+TJvlpMpyz8mWfY1n8eCIBDkLAEIMn0yQBAIAkEaLFEQBIJAEAji7mexstyfY4uFLZbNfPL2Ij0f9tyvyMz4puu58AypB8b06C02UNu1BlssbLGmbLHCbxOpn9hPZvOdROuf2te3XyUEgSBnCRSi6LPG0LO201gpWleO4z/a1rdjHQSBIO8jwPiQqNgPGGYpIgSBINMIBGH0DyLqazDRhhMdfyLLiSj1WBAEgtSdm0EUbSajbiMyl/+/QL1EytybxPEuqRM66758EOQJIuJ81+DJRMc31AMdhJHhBWDuSLTefu6YfBiuUqQGOccyZAbGtN7HGZNF7dKll38k1/WfFdUTHzxw+PBL/8rimO10DOcFyYc92xSZO21DMaRuH9OjO1opyMDAwILX33zrbSLqtuxr/KIPXbBocHDwpGU9yjIi4LwgQbHnRlLmMWteRm1ISqOPt1KQ2rGDsOc5IlP3e/TTn1s9n+jRK63PAYWZEXBekDOTMXrx1Nc6ByyoDSY6Xj1TXVZbrNM9FaNbSdF9Fj0RGdqUlOLdVrUoypSAF4IUi8WwonJxM3IdphqVSiU9F4KcETd8hkhd07gv87tE62ub9Y7HW0PAC0Fq6C7u7T1/4fjJu0jR5mkoDe063r1g67GRkXcaYc5yBZl8nnyxZ4NS5i4iKp7z3CVj1Nax0qj99rA1c8Tro3ojyGTKl4ZhMWdy/UpVVxiTO1BV1aFXtC7ZzIJWCDIp73nj4/0ql+uv/W6q1aF3u7uHmglr0zNqZkfAO0Fmg6tVgsymJ4xtLQEIwuALQRiwHCmFIIwgIQgDliOlEIQRJARhwHKkFIIwgoQgDFiOlEIQRpAQhAHLkVIIwggSgjBgOVIKQRhBQhAGLEdKIQgjSAjCgOVIKQRhBAlBGLAcKYUgjCAhCAOWI6UQhBEkBGHAcqQUgjCChCAMWI6UQhBGkBCEAcuRUgjCCBKCMGA5UgpBGEFCEAYsR0ohCCNICMKA5UgpBGEECUEYsBwphSCMIIMwepOILrAfYr6baM24W7r9kVE5NwQgCINzEEa/J6Kr7YeYtYnWe+3rUSmNAARhJJIvRj9WirbaDukk81Gt9THbetTJIwBBGJnY3l/r9CEV7U7ieBPj8CgVSACCMEMpFKMtRtHdzYYlOgbbZpDa4HGEmCKkwvLl/aZSrd3sbd25w5WhreVSvDPFYTFEIAEIMotQaqJQpbKCjFpMygxRpXKgXC4fncUhMVQYAQgiLBC0I4sABJGVB7oRRgCCCAsE7cgiAEFk5YFuhBGAIMICQTuyCEAQWXmgG2EEIIiwQNCOLAIQRFYe6EYYAQgiLBC0I4sABJGVB7oRRgCCCAsE7cgiAEFk5YFuhBGAIMICQTuyCEAQWXmgG2EEIIiwQNCOLAIQRFYe6EYYAQgiLBC0I4sABJGVB7oRRgCCCAsE7cgiAEFk5YFuhBGAIMICQTuyCEAQWXmgG2EEIIiwQNCOLAIQRFYe6EYYAQgiLBC0I4sABJGVB7oRRgCCCAsE7cgiAEFk5YFuhBGAIMICQTuyCEAQWXmgG2EEIIiwQNCOLAIQRFYe6EYYAQgiLBC0I4sABJGVB7oRRgCCCAsE7cgiAEFk5YFuhBGAIMICQTuyCPwP6/JbX5XWNGkAAAAASUVORK5CYII=;" parent="1" vertex="1">
          <mxGeometry x="200.75" y="130" width="60" height="60" as="geometry" />
        </mxCell>
        <mxCell id="AAcZYnokH5HvOokKQEHz-14" value="" style="endArrow=classic;html=1;rounded=0;" parent="1" edge="1">
          <mxGeometry width="50" height="50" relative="1" as="geometry">
            <mxPoint x="160" y="240" as="sourcePoint" />
            <mxPoint x="220" y="240" as="targetPoint" />
          </mxGeometry>
        </mxCell>
        <mxCell id="AAcZYnokH5HvOokKQEHz-15" value="" style="verticalLabelPosition=bottom;verticalAlign=top;html=1;shape=mxgraph.flowchart.summing_function;" parent="1" vertex="1">
          <mxGeometry x="220.75" y="230" width="20" height="20" as="geometry" />
        </mxCell>
        <mxCell id="AAcZYnokH5HvOokKQEHz-19" value="" style="endArrow=none;html=1;rounded=0;exitX=1;exitY=0.5;exitDx=0;exitDy=0;exitPerimeter=0;" parent="1" source="AAcZYnokH5HvOokKQEHz-15" edge="1">
          <mxGeometry width="50" height="50" relative="1" as="geometry">
            <mxPoint x="260" y="240" as="sourcePoint" />
            <mxPoint x="340" y="240" as="targetPoint" />
          </mxGeometry>
        </mxCell>
        <mxCell id="AAcZYnokH5HvOokKQEHz-20" value="" style="endArrow=none;html=1;rounded=0;" parent="1" edge="1">
          <mxGeometry width="50" height="50" relative="1" as="geometry">
            <mxPoint x="340" y="290" as="sourcePoint" />
            <mxPoint x="340" y="190" as="targetPoint" />
          </mxGeometry>
        </mxCell>
        <mxCell id="AAcZYnokH5HvOokKQEHz-21" value="" style="endArrow=classic;html=1;rounded=0;" parent="1" edge="1">
          <mxGeometry width="50" height="50" relative="1" as="geometry">
            <mxPoint x="340" y="190" as="sourcePoint" />
            <mxPoint x="380" y="190" as="targetPoint" />
          </mxGeometry>
        </mxCell>
        <mxCell id="AAcZYnokH5HvOokKQEHz-22" value="" style="endArrow=classic;html=1;rounded=0;" parent="1" edge="1">
          <mxGeometry width="50" height="50" relative="1" as="geometry">
            <mxPoint x="340" y="289.65999999999997" as="sourcePoint" />
            <mxPoint x="380" y="290" as="targetPoint" />
          </mxGeometry>
        </mxCell>
        <mxCell id="AAcZYnokH5HvOokKQEHz-23" value="" style="endArrow=classic;html=1;rounded=0;exitX=0.5;exitY=1;exitDx=0;exitDy=0;entryX=0.5;entryY=0;entryDx=0;entryDy=0;entryPerimeter=0;" parent="1" source="AAcZYnokH5HvOokKQEHz-12" target="AAcZYnokH5HvOokKQEHz-15" edge="1">
          <mxGeometry width="50" height="50" relative="1" as="geometry">
            <mxPoint x="319.25" y="300" as="sourcePoint" />
            <mxPoint x="369.25" y="250" as="targetPoint" />
          </mxGeometry>
        </mxCell>
        <mxCell id="AAcZYnokH5HvOokKQEHz-24" value="发送方" style="text;html=1;align=center;verticalAlign=middle;whiteSpace=wrap;rounded=0;fontStyle=1" parent="1" vertex="1">
          <mxGeometry x="100" y="270" width="60" height="30" as="geometry" />
        </mxCell>
        <mxCell id="AAcZYnokH5HvOokKQEHz-25" value="接收方" style="text;html=1;align=center;verticalAlign=middle;whiteSpace=wrap;rounded=0;fontStyle=1" parent="1" vertex="1">
          <mxGeometry x="378.5" y="320" width="60" height="30" as="geometry" />
        </mxCell>
        <mxCell id="AAcZYnokH5HvOokKQEHz-27" value="添加扰动" style="text;html=1;align=center;verticalAlign=middle;whiteSpace=wrap;rounded=0;fontStyle=1" parent="1" vertex="1">
          <mxGeometry x="200.75" y="270" width="60" height="30" as="geometry" />
        </mxCell>
        <mxCell id="AAcZYnokH5HvOokKQEHz-28" value="通用对抗扰动" style="text;html=1;align=center;verticalAlign=middle;whiteSpace=wrap;rounded=0;fontStyle=1" parent="1" vertex="1">
          <mxGeometry x="191.5" y="110" width="78.5" height="30" as="geometry" />
        </mxCell>
        <mxCell id="AAcZYnokH5HvOokKQEHz-29" value="任意ASR" style="text;html=1;align=center;verticalAlign=middle;whiteSpace=wrap;rounded=0;fontStyle=1" parent="1" vertex="1">
          <mxGeometry x="378.5" y="130" width="60" height="30" as="geometry" />
        </mxCell>
        <mxCell id="AAcZYnokH5HvOokKQEHz-30" value="监听者" style="text;html=1;align=center;verticalAlign=middle;whiteSpace=wrap;rounded=0;fontStyle=1" parent="1" vertex="1">
          <mxGeometry x="667.5" y="130" width="60" height="30" as="geometry" />
        </mxCell>
        <mxCell id="AAcZYnokH5HvOokKQEHz-31" value="" style="shape=image;verticalLabelPosition=bottom;labelBackgroundColor=default;verticalAlign=top;aspect=fixed;imageAspect=0;image=data:image/png,iVBORw0KGgoAAAANSUhEUgAAAMgAAADICAYAAACtWK6eAAAAAXNSR0IArs4c6QAAIABJREFUeF7tXQmYHUW1rlP3ZpIYAQlPgQjiQuABbqCAyBZRJCqLSsIiJCaZ21WTYATB9wQX3oA+RQGDBie3qm8mwchzCUaRRURZBBEReSqKvkcAUSHwXBJli8nc2+f1GXriMMy9t6u6um/PTNf38U34purUqVN9prZz/h9YUQoLFBZoagEobFNYoLBAcwsUDlJ8HYUFWligcJDi8ygsUDhI8Q0UFrCzQLGC2NmtaDVBLFA4yASZ6GKYdhYoHMTObkWrCWKBwkEmyEQXw7SzQOEgdnYrWk0QCxQOMkEmuhimnQUKB7GzW9FqgligcJAJMtHFMO0sUDiInd2KVhPEAoWDTJCJLoZpZ4HCQezs9rxWs2bNKu++++6Tu7q6JpdKpclBEEzhnE8GgMmIOIV+BkFQR8QtAPCPIAgGfzYajcGfTz755Ja1a9dudaROIcaRBQoHMTDkvHnzpnV1de3FOZ/JGNuLMTb4EwDo504GoppV3cwYux8R1wPA4E/6/3q9vn7VqlV/diC/EGFogcJBWhisUqm8lnN+DCK+M3KEGYb2dVl9U+Qwt3DOr1dK3eZSeCFrdAsUDjLMLkKIXQHgCEQ8kjFGTrFHjj+cpxDxegC4KQiC22u12m9zrOuYVW3CO0ilUnkD5/w4RDwcAI4aszPJ2D2MsdsZY9/VWt84hseRK9UnpINIKWcGQXAcABzLGHtLrmbEjTK/YoxdEwTBNbVa7SduRE5MKRPGQSqVys60UpBTIOJxjDE+EaYcEe/gnF9DDqOU+s1EGLPLMY57BxFCHAwA3Yg4lzH2IpfGG2uyAOBaRFyptf72WNO9U/qOWweRUh4RBEE3AMzvlHHz2i8ifp9zvlIp9fW86pgXvcadg0gpj0bEbsbYyXkxco71uA0AyFG+nGMdO6rauHEQz/OOpa0UY+zdHbXo2Oz8Ltp6+b7vj03109N6zDsI3Ugh4r8zxirpmWnCSL6Rc/7ZarV684QZcZuBjmkH8TzvbAAg59i5mFCnFrisXC5/tq+v73GnUsegsDHpIFLK2dGqkYc3jEej2KkHGGN/YIz9gzFGMVX/4JxvbjQaw3+WAWBqEARTw7/UQz+nIOJURNwZAPZExJn0Mwff0oPRajKht11jykGEEC9jjNGKcUYHPqCNjLEfMcbuAIAHGo3GA9ttt936ZcuWkTM4L0uWLNlzYGBgJud8zyAI3sgYOxIAOhH6ck3kKHc4H+QYEDhmHMTzvOMB4POMsVdlZNcNYTzWTxljd3HOb65Wq/TvjhbP8yiS+KggCA4BgIMZY3tnqNDZWutlGfaXi67GhIMIIc5ljH0mA4utR8R1nPOrlVJ3ZtBfoi48z9sPAGYzxt7LGHtzImExGtNN15QpU85evnz5EzGqj4squXaQhQsXvnjSpEm0apyeorUpiWldqVT65i677LKut7e3nmJfqYmuVCpHcc7JUei/XVPriLE7AeCcsfAHxIUNcusglUplFuf8UsbYAS4GOoqMnwHAVYyxdUopSkwaF+Wss8560VNPPXUiALwXAChkP43yBACcrZRamYbwPMnMpYN4nrckOm9MTsFYPwCAK5RSX0lBdq5Eep73NgB4f4or8DKt9dm5GrRjZXLnIEII2lJ9yPE4Ga0WQRBc4fv+ta5l512elPKNiEiOsoAx9kLH+l7HOV9UrVb/5FhuLsTlykGEELTlOdGxZWqMsSu01nRFO6FLd3f3nuVy+f2ISNfkOzo0xq845++rVqu/digzF6Jy4SBz587t2nHHHekDPtChVeiMcaFSinIhijLMApRrXyqVPoGIcxwa5u8AcKJS6iaHMjsuquMOUqlUduOc/8xluEj4Mv1Zcg6t9TMdt3COFRBCLGaMfcLlrVcQBO+r1WpfzfGwjVTrqIMIIeiGinKpnRQAoJzsTyqlvu9E4AQQQo+PAEBO4uwqHRHP8n3/C+PBfB1zkAgsgVYOV+WCGTNmXNjb2xu4EjiR5HietwAA/pMx5gTaKATDO1cp9dmxbsOOOEhPT8/LgyD4nSPj3cc5P7darU642ylH9tsmRkq5b4gCeVG4qlPOvotyktZ6rQtBnZKRuYMQ9hRjjOKcEhcA+DIinqu1fiyxsELANgsIIXoZY//hwiQhaMTRvu//wIWsTsjI1EG6u7unl0qluxljr0wyWADYHDnGF5PIKdo2t0BPT8+xIb4wrSb7JbVTEARH1Go1Oh+OuZKZgxCu7dSpUwlN420JrXQP5/zMarU6IcOvE9rOqDmt9oh4KQCcatRwlMqc84PzEBFtOo5MHISQz2fOnHkVAJxgquCI+vSmIYstVUIrGjYXQlzCGDvHsNnI6g9RfJhS6pcJ5WTaPBMHEUIQasa8hCNbo7UuIHwSGtG2uRCCHIQcJUn5Jef87WMpLCV1B5FSnomIlyWxKgD0KaU6kUWYRO1x11ZKeSoi/lfCga3SWi9KKCOz5qk6SKVSOZxzTo92SaJyP6e1/khmFik6amkBIcS7GGNJr9SXaq0vHwumTs1BokM5OcchCQxxcRguQjnoRcmRBSJwviQI8k8DwNFjIekqNQcRQixnjH3Adl4JR1Yp5erBylaNol0TCwghPhhGBFuHk1BYUFdX19HLly/fkmcjp+IgUsqFiNifYOC3aK3HMldHgqGPnaZJ/wgi4hd83z8rzyN27iBSytchIi2/L7EZeAhC8BOlVJJtmU23RRtLC3ieV4sgX60kIOJ83/fXWDXOoJFzBxFCfC0BcPQviNimVqs9ksHYnXVB560pU6bsS6/OAEDxTPT6/IKYHRBnx32I+JtGo3HfWCTrlFJ+JQTPOy3meEdWu39gYOCwvI7bqYN4nndaiApom+v9WBAEs2u12r2Whs6s2dy5c0vTp08/lEIoGGPvAoA3Oez8/jBx7DoAuKVer9+xcuVKAqzLfZFS3oCIx1gqeqnW+sOWbVNt5sxBli5duv2WLVsoK/A1Nhoj4qm+79Pqk8sihHgBIhKCPPEZHgUATsLC2wyWYExvIXaogYGBa1etWvXHXBqHwhuejQS+gTG2u42OiDjL9/0f2rRNs40zBxFCUC7BRy2V/aTW+nzLtqk28zzvHeQUEXWb1eQ7UvAZutkjZ9m4ceNX165d23Ak15mYSqUyh3NuG95O5KNpwRRZj9GJg1QqlTdxzmn1KJlqQmgjSimiR8tV8TzvFABYyBh7e64Ue1YZ2oauov+01n/Pk35CCMpOvNBSpyVa6xWWbVNp5sRBhBDfsiSu+U25XJ7d19eXm62DEIJ4RsgxUofydDCjvwOA/i1btly+evXqvzmQ50SEEIJy0k8xFYaIv0fEw/J0SZPYQTzPW0Q0XqbGoPqIONv3/e/ZtHXdxvO81wMAJQmNRYaqXzDGLsgLOWeUFEfnkddazNPlWuulFu1SaZLYQYQQxMNNSOOmJTc3F0IIeqwi5xjrLLiXbd269YI8rCZCiPcxxq40/ShClBU6W+2vtSau946XRA6SwAiUj35op/M6xviq0ezjyc1qIoT4ZgSmbfShE+ysUipp/olRn80qJ3IQz/NupKAzC00+oLX+kkU7Z03G0arRzCYdX03C7+PN4fdhk/m5qdFo7L9y5crfO5twS0HWDhKxyhqjFgLAzUqpt1rqm7hZ+FeN3mnolmUsnjVMx9/x1SRBNiKdqQg8oqPF2kFscXQB4F1Kqes7MeqIUmF1eD3aCSqzTgx5qM8ztdYdAbiIDuy0irzC0AC/L5VK+69YsWKTYTun1a0cREp5BCIav3pGpPUdoWuOnIPgZ4zfahJYfIAxRqEiGxFxIxF4MsZ2iv5zjbLeTs2O/UUWQlA2qHGCFCKe4/s+of13rFg5iOd5qwCAoPSNCiIe5Ps+wf5kWiLnoJCNVAoA/DUIAuIYXxdGpz7EOd/45JNPbrzyyiubUpUtXbp08tNPP71TuVzeKQiCnTjn76G4rpQ5GDviJL29vXzDhg3/zRh7neEE/GrTpk37dzJqwNhBlixZsk+9XqcIVNNCFATGTmXaycj63d3de5RKpYeTyhmlPUXg3sw5v8HllrG7u/ugUql0LGOMKK4Pc613hMC+zrXcdvKklEsR0Wabt0BrfUU7+Wn93thBpJQfR8RPmioURqceqZS6zbRdkvrz58/facqUKf8TLu//kkTOiLZrgiDoq9Vq9P6Talm8ePHeIUQrEd+cRVzqrjrrxFxQsCdjjFYRU2be72itk8JFWZvO2EGEED9njL3epEdE/Ibv+yebtElaN+Icob+UtG1xUW4idJZOMFRF7zX0mEnO4qIQLcThWmv6YDMrQoh/C/NkPmfaIQC8vlN4WkYOYnu1yxg7RmudJMnf1KZMCEFZai4g/X8bvrBfpsM7R2MlHDegyGKip7N8exqpzb31ev0d/f39TnCS4ww1WtGJ7sLoFjEiQnKCFRxHz+F1TB3E5nCe+RJpuw0cxXgXMMaIqDJXEbNSyu4IhT3p1nGt1vok048mSX3LaN/7tNavTtKvbdvYDhIxQd3HGNvepLOsE6GEEBQ6/w0THUerGwTB3FqtRpyJuSy07aKrUwA4NImCiPgp3/cpRD2Tsnjx4lc2Gg1albtMOkTE9/q+T1HjmZbYDmIJ8/Lw1q1b91m9ejVlxqVeiHsvBEn+bkISmP+lV3atNR3uc116e3vLGzZsUIyxREiFADAvS1psKeXXwxx8o5ULEa/0fd/FltloTk0chB4GKQfbpNDe3TmlczMFHGAAZ74dNDFmi3ETuJ41mxMA/LpUKh3S19f3lAt92smwCXIlyotGo7FfrVZzRbzUTs3B38dykO7u7leXSiXj8OMgCN5Sq9VujaVJwkoOIDGdQ5wKIShFttkt2h4hRu0fEg57W3PP844HgKtt5RFPoVLqU7btTdpFV760zXqZSTvGmKe1JlrvzEosBxEh5VDIhEpLeeySNb6VEIJgTm25R1I5rAohsIXBLtJanxfboDEqRod3qw+IogEIJlYptT5GV4mrCCEIlZHQGU1K5sDXcR2EAvxM7+DP01oTQ1HqJUqT9S07ultrfZBl26bNYkAgPaG13iGFfq2B3LJE0a9UKkdxzk051e/XWps+NCYycSwHCSd7fYh3tadhT/tkddAVQhBb7hsM9aPqD2qtTccVqxvP837U7oYpCILXpYEDFt5wfduWrCgIgjfWajVn1NytjBW+69wFAEZ/nIIg2LdWq9H2LJPS1kEWLVq0d7lcNrrRIWBipZTpgd5qwDbbv6gjiq49Ng2E8QULFkzp6ura3G5AiFj1fX9xu3o2vxdC2FyqUFf0Jipt+jRtE55F6FWdXtdNCjGMZfZo29ZBbLYvAPAZpZQtRpaJsejF3Gr1AIB3K6WsD7WtlJRSLkHEWBmTWuu2c2BkkKhyGEnwqjAkiDghjR/YslpFbC4WAOBKpVRm171tJ8fm6hQR3+n7Pr1HpFpsV4+099pCiF/HZYdNM3AwwaE9k1Vk8eLFOzYaDVNo1d9rrV+e6oc1THgcB6FQcaPYmXq9vn1/f/+TaQ/CchuxmXN+ULVapY/YebHggf+a1joxi2yzgcQ5C43SdnOpVHr1ihUrHnJuoBECPc+7BQBmmfQTBMErs3oPaekgZ5xxxk4DAwN/MVE+xFi9NcRYpVyGVEs48W8LD8F0tWtUEPHzvu+nhpghhKCtJcGwxi5pbbNIAZtHOWoHAB9VSn0m9iAsK4YvCJR3bhSIiIhzfN8nxJTUS0sHsUSlyCRrTQhB17qm6bu0nB+ktX4wLcsKIQglcjcT+Yh4gu/73zFpY1LX8o3olyEQnVFag4lOQ3Utsz0/prX+tE1/pm1aOogNU1QWr+dRliBtkUzzuv9Ta/1xUyPFrV+pVPbhnNtkW96gtaZQ9lRKT0/Pe4IgMM4iBIC5SqnUAzbbPKiOZpPMslNbOogQgpbYcw1n7cVaa6NtmaF8gtq3oXjb2NXV9ZrLL788tfwHy2vLweFPmzbtBcuWLWt7NWxqq6H6QghCkjFyQgDwlVIURZFqEUJQGFPs27YsozTarSAEQkBgAnHL41rrXeNWtq3ned4KAOgxbJ/qYZh0EULQxYTpqjY4jLSpyCKgvGWGNstkm2UBdr0phDGabjgWq+rtVpDY15VR7z/QWtsgLRopL4Sgl94DTBoBwCKlFFEGpFKklIcg4o8TCL8zzLpMDVE+IrihfB7TkvqOQAjxMcaYUaDkwMDAS7KgbWvnIITrVDawaOrh7VEk6NMGOg1W7erqemma2ysppUZEr5leQRC8m3NOD3etyow08YptQjuyAPqTUp6AiO1sM9JulFNPnDSplqYOEr3EPmDSOwBUlFJWVAhx+7G59cgC7rTdQZOucoUQFLLTNNgOAD6olCJ++VSKZbpr6reSNt9aEASVWq2W6rdGk9DUQaSUbw3JTAiJ0KS8KbyNucukgWldKWUPIpqyEJ0dRs6a7r9jqxbRtDWFU0XEO3zfP0xK+ZEol7yZ7N9qrYktN5VSqVTewDmn0ByT8vUw6NSYDMekA6orhCCkldjQRlmlCrdykPciotFjzObNm1+4Zs0a4+2PiTGllJch4pkmbRBxb9/3iT02lSKEoBz4VjRyg4k+CxcufPGkSZP+1EqJcrm8b19fX2rRqkKIRw1TkrM6qP80ZPc9MO4EIeJy3/dN80niit9Wr5WDmF6lbgnzP6YYa2DYQAhBjFSxeQMB4AmllPO8iyG145yJZsyYUert7Q2ojZTyV4jY6krzfK21MTBfXDMKIehB8ri49RljuZzXEAw7k7eQpg7ied6ZAHCZgSH/rrVOnaFJCEGcESapmqluW6SUpyLif7Ww0w+11ttijYQQlDtOOeTNymNhpGBqFNNCiD7GmFGIfb1ef1V/f3+qcVkWOSzf1lqbPEEYfMr/rNrKQc4HAMKFiltSfwOZO3duaccdd6zHVSiql+rVc4wV7d+11hcP6RznuhURD/V9P8mVcVMT2VypAsDblFKm2X9G02T6FpLFxQsNoNUt1iWMMZOgvt9prV9pZBXDyjbh0QCwWilFrLXOy6JFi2aUy2Xa0zctQRDsUqvV/m94hXbwrWkGVHqetwAAjN6DssCkEkL0R+zCcefpHq31G+NWtq3XykFMgwF/o7Xez1aROO1CI9LWypSWK7X4K8/zlgBAq8Som8K7+ucBSQghKNq3VULZZq01gT07LzZR0ADwfqXUl50rM0yglPJLiLgkbh+I+IDv+zPj1ret1+qQbgrulbpHW8IPpUZOH+PhbdTr5ThR0mk90FkGVKbOKel53qXhhcrZBh/yn7TWOxvUt6raykFuQMRj4koduuuPW9+mnk04BwAcr5Qy5lJsp1/Ms0TT6+UQx4uIhJpuEdJi4zrttNO2nzZtmhHWMCJ+1Pf9VHNDhBAUakIhJ3FLJrdrhYPEnY4R9WIkRrUMYfc87wIAOL9N99O01vSA5qxYOsi/+b5PZ9LUipTyIkT8iEEHz4SXH9MM6ltVLbZYVmYbfPklDN+9mjWnzMp2omOkmp6mtW51hdyui+f93maLRSQ+tVot7TNIy1i2UQaaSW56cUg3/sQYi3OGsBA7WpNvaq3nOJI1KMbmkI6Is33fpwfa1IoFa3LqZ14abHHNazHlSRKjTLtzHYVsc83baDQOWLlyJTGLpVaEEDdHvIyx+kDE7/m+PztW5QSViodCC+MJIehd4yUWTY2bAMAZSil6/XZSbB4K6/X6S9NmohJC/MKQBfcrIbbAPCdGaSGkCDUxtLADFHnDHtmobymmQobq24Sa3H///ZNuvfVW0wgGIxUtQohSzz1qucWyyPvO5NotRmjHcybGdbBiu8Qoo68iZmUKbvR93yYb8Hk9WAQr/lVrnZTqre1ILdKVM0E2KcLd207dPyvMmzdv2tSpU4kmYLJBMxdVP661NsLaatapabg7Iv7W9/3UclRIz4iReIuhoTLB6C0SpgxmpR2lgS0KiJTyOERsiouFiPeE9NOJ445sEqayAAJcsGDBLl1dXY8ZTAUB252olDKGMjLpo+UWyyYNcryn3HqetzakK2t67RryIx5crVYp8ce4tEvZ5ZwfVq1W7zAWPKyBTcotIn7C930jQAVTHeNEJYyUGQTBEbVa7XbTvkzrF6ANMS3W09Pz0jAP+pFW1ZNAiLY7WyHiJb7vm1IFPEfdGLFjzxteEASH1Gq1n8Q0k1W1np6eQ4MgMAJgyIonpJ2DFLA/0ZQLIc4g2uUWX8AarfV8qy/k2UzDOYi4tkX7RGQ/Nn+lGWN/1lqnfp0thPgAY8wUrCJ1OKKWWyz6pZSyAI77p4O05EB0seS322Yxxo7VWl9n44Q2wHHh7dlV4e1Zq1x7G1We10YI8TXG2MkmwpKs1ib9tFtBCujRZ8Mz9iOq5LS2V0NyhRAUv3Vki35qWuum2Fut9LOBHmWMLQ2veFutmibfWtO6poDfeYIeNQVuYOMRvLrd6zMAfEMpZfQXcLSvRUp5OiKuafHV/aVcLr/ClM/cFrw6i32+lHImIpoizmTySNh2i2UZlJc60BgpniX9QbvcjTAX5ugQ98oUQ2xUP2i3zeKcn16tVq80+dNtSX/wc621EbyriU5DdT3PmwcARpHCAHCKUurrNv2ZtikIdNpYTAhxGGOs5XWiy/2wlPJORHxTM7VMzwW2BDqMsUz+StuEvjQajZevXLnSNPXa1DcG6xcUbG3MJqW8GBE/3OKDvdr3/XdbWX+URjF4BetBELyiVqu1vHIe9he6LR31KGo0OOcHVqvVVCN4o53ALxljrzWwX+rgIMN1ieMgtPwZRU2OJxJP4tBrNXkAcIntzVIzuTH6pDyRtofnGM7WTIXLtdZLDT5aq6o9PT0vD5OxfmfS2NV5L26fcRyEaM4I4SR2meg00LENlWLFBDTQzwDAgUopG6YsoxFJKU9GRLriNSnPwRkzaWhTt62DLFq0aO9yuUyo5LELANyulDoidoMEFW2poBljGwHgWKXUnQm6z21TSwZgGs+lWuumW0qXAxZCEKD4WSYyXbw3mfTX1kFIWBiktx4A9jQRzBjbJ0QFN3IsQ/nbqgshCLH8DRbtE71OW/SXSRMLGM8hvTYRgHSaJKfDDSClvAsRDzIwyhNhNMO/aK2JtyaTEstBhBCrGWPvN9TovBDM+iLDNlbVhRDG28BhHd2ttTaZJCsds2rkeV4NALot+/t0+PGZQO9YdjMYpWFDr+E0eSyO8nEdhIgcVRyBQ3WyfO2kPi3v+ofUXau1PslkfHmsm+BQTsN5PAiCA+PejiUdvxCCLhkovi12QcTP+r5vSiobW/5oFWM5iCWiYSav6kODcpAK+zmttQkuUyLDu27sed7xAHC1rdy02a2G67Vo0aLtyuUycaC81ERfRJzj+74RZ42JfGsHif5C/5AxZnrwzuSxaZiTGF9JjzDKd7TWJyQ1atbtQ3YmolMgWgXbkgmL1JByUsr5iHiFobKP1Ov1ffv7+4lJOLMSawWJHITYfL5gqNnDW7du3Wf16tX/MGxnVb1Sqbw2TFr6riGD0si+CBDu3VldMFgNNGrU29tb3rBhA219F9nKIRDoSZMmvaOvr8+Ij9K2P2pnESVOzb6otTZiFkui41Db2A5SqVR245wTcMD2Jh0j4qm+75vedZt08Zy6QggKzyZKtEQlCIK5tVrtqkRCUmwc3lS9nvJTAODQhN0s0Fqb/jW37jIMbf/XMLTdmGIuTP2d5fs+7WIyLbEdhLTyPG8VACww1DDzbYuU8uOI6ILGjAiElmmtjcCeDe1jXD06jNMNYSK0kax4/oYP0PO88wDg04aD/pHW+nDDNk6qmzrIsQBgg5R+jNb6RicaxxQSviRT2PjpMau3qkZ/7egspR3ISiSC2HQZYx8CgKMTCaIgPIDbKb++Wq22JBVN2s/I9hZvHyQiVZbiVmM0chAS1I4dabTOEPEbvu8nzpcwmawISoZQL95l0q5F3ZsQ8bIQXeRaR/Jii6HtFADQi7PpW1SzPp5CxJN836fzWmbF8u3jmUajsW9W0bsjjWHsILbbFwA4Uil1W2azwRibP3/+TlOmTKHX/ERbkRE6rwmCoC9tIAPqc/HixXsTsjqFY4RvALE5xOPYGACuVEq5WGHjdDdYRwix0uJCIROI0WaDMHaQJUuW7FOv120C2TKh7R050O7u7j1KpdLDsWcxfsX7EPFmzvkNSqnr4zdrXbO7u/ugUql0bATkTLkoaZZ+rbXtq7uRXu2wv5oJy4IfsdVAjB2EhFke1hnF3fi+T8xKmZZKpTKLc94ybD2JQgDw1yAIbuScrwuC4LcDAwOPrl69+m/tZC5dunTyli1bdguCYHfOOVEa03bwVe3aOf79Cq11bG5A276llLchoulBO3Xey3bjsXIQKeURiGh85ZYWrVi7QdLvIyehtNhSnPpJ6yDi05xzSmp6FBEfDUH1HgmCYAcA2I0xthsi7h4SgL44aT+O2tNNnQk/oFG3UsqzEfFSo0aM0R/UT/m+/wnTdi7rWzkIKWBBeDKod1rklHGMEjkJBV7uEaf+BKtzkdb6PNdjjvJSCBRuF1PZnPMDsshqdL7FirZZVle+WRHANxu0EOI1jLEL6bXcdMImQH3ngBtSyhWI2GNhu8zfz0bT0XoFiZzkRss7+dRphdtNSASk9h/hG8eL2tWdYL93lqYgpZyNiLZXyYeHHPNGcKRpzFMiB0mAmEF5yIdqrY0QvV0bIHpfICcpVpPnGtfJw5zneTcBwFGm84aIn/d9/xzTdmnUT+Qg0VmEgI0PtlAus9TOdrqNl9UEAK6t1+sfKpfLVxpm6o1moiVa6xXtbNfs91LKpYj4RdP2APAQIh7W6T+eQ3ondhDP8xbR7ZSpIah+FuypcfUay6tJaEf6I0U0BdvA64QQFCJDgYHWBRG7fd/vNxUghNiVMXYXY2x307aMsUSOadFfyyaJHSRaRb5luU35Tblcnt3X1/dH1wOzlRel7y4oY8zxAAAKoElEQVRkjL3ZVkaG7Qgv+Ata69pofYZjoWtmo6SkkXLCcPjTfd83RXLsDf/+0dbVqCDi933ff7tRo5QrO3GQSqXyJs45HaiM3xgA4CqlVOoI4qZ29DzvFAAgR8nVhEXj+B0i9vm+f0m7cQkhiDJuert6LX4fRHFbsTP5TGnetm1nAN6ulCIU/dwUJw4SrSLEofdRy5F9Umt9vmXbVJtRBC0AHEcQQfS4l2pn7YVTNAA90H5Ja/2X9tWfrSGEeIoxNi1u/VHqbY6cJFagZjt84SZ6ZPKib2oDZw6ydOnS7bds2UKrCL0zGJesE6tMFRRCvAAR6e2H+ASPAoAZpjJM6yPihhCG5zoAuDUIgtuSACoIIbYyxiaZ6jCs/qbISdqCdFs4yGP1ev2w/v7+hxLol0pTZw5C2rUjuWwzgseCIJhdq9XuTWWkDoXOnTu3NH36dKINoxz9dwFAU7Bp026jAzeR5HzPZdxaBJRAuFJJyuNEStvufcJ0iwUA5yilPp9EsbTaOnWQaDk3ZgsaNrhfBEFwXJK/lGkZqpVcooeeMmUKUSUT0c6+IZXaflGI/Xac8xeGcUjbhYiF2yEioTnShcQjiPgI/ZtitBqNxiOc8z9Onjz5keXLl5vSIccechyexXbCEJFQ1ee2cl4hhMkhvWPZgu3GSr937iBSytchImUPWnHbZY2nFcdI46mObU74CBsQsAWtJL8azTbRNS8dtukPRcuCiCf4vt+UArtd+7R/79xBSGEppTEz1YiB3qK1Nn6BTdtY40V+lHNC7xRJyr2ISCvJqOxQEWkogWe0cpKTtNatiEuT6OekbSoOEm21iLWU2EutCr0KK6WOs2pcNGprAcv01+fIBYCfkpNorf8wWoeRk1AYD13jEwrLYAEAiqhe6zLRrO2ALSuk5iC0L586dSots4dY6kbNLtZaEyhaUVKwgOd57wEAytu3LgT+0Gg0CCLp/1oJoVvOrVu37gYAz1Sr1TQyPK3H0Kphag5CnVYqlcM55+QkkxNoP6YhQROMO5OmliiHI3Wjq985eYNHcmHAVB2EFJRSnkloIEmUBYA+pZQR0HGS/iZaWyEE2bYtY1XLv7QA13Z1dc1J8xauE/OSuoPQoIQQSTFzScwarfX8ThhpIvRpCeg20jREDTdnPNkrEweZNWtWeebMmVcBQFJgaAKtk3kJhR5PH0K02n8aEROl3XYCTijNecjEQWgA0aH924yxtyUc0D2c8zOr1eodCeUUzUexgA1vxyhiMoMTSnsSM3MQGkh3d/f0UqlEsD+vTDIwAKDguXO11sYJOUn6nShthRBE2kqsXdZlvJwbM3WQ6DxCyTQUhJe4AMCXI0fpaOpu4oHkUIDneVeE2X1Jz3ypwgllYbbMHYQGZcOP3cIY93HOz61Wq7FCsbMw6njpQwjxVcbYKUnGkyUleBI9m7XtiIOQMpVK5Q2cc2KndVUumDFjxoW9vb2BK4GFnMEI7XUAQKiPSUqv1pqoJMZc6ZiDRNutAxhj97iyGr3qhlmNn8xbVpqr8XVKjhCCVudEKPkAcK5SKglNXEeG31EHiVYSYq6ilWRnVxYgNlQAuDAMU3nGlcyJLkdKeSMiJuIlIQoHpZQpjV9HTd9xB6HRR1welI14oENr/IycRCllQ/jjUI38iSJAtyAI3goAp4dMXKUoR+WuUqn0hRUrVlAo+6hFCGFD5PocWQCwWClVzZ9VRtcoFw4ypJot3m8bYxPiB1EvdBylr9Mfhed5J4bOQHQHxFQ1WtkUkWVSwtOoRUp5JyImyqDknC+sVqsU0Zv7kisHIWsJISj18kOuLUfoKUEQXNEJhijXYzGVJ6U8le5FKJc+ZluvGZRQNEf/zRjbP6asUasFQfC+Wq1Gt2S5LrlzELKW53lLAIAcJUkUcDPD/wAArlBKfSXXM+NAOc/zFkQrhjERDyLu3SwZKspvvzNOxmCLYRCc0Bzf9wlTLbcllw5C1oqoCohTgm660ih0RiGa53VKqfVpdNAJmUuWLNmz0Wi8AxHnJTzTfVhr3ZTTI8pvJxiimQnGuTkIgjm1Ws0ZQ1cCXUZtmlsHIW0XLlz44kmTJtFKkiaXXh0R15VKpW/usssu63p7e+uujZy2vGFOQWeLZucLIzVCXvJbQ17yt7RqFOW3f48x9jIj4c+tvClykpsTyEitaa4dZGjUQohzw+3WZ1Kzwj8Frydn4ZxfrZSiLURuSxpOMWKwX9dat31Fj/Lbr7YhyBnW3+OIeGIIO/rjvBl8TDgIGc3zvOOjc0lWHH4UL/ZTAmHmnN9crVbp3x0rxNSEiAcCAB2OKb87VUhUEwqC8PqXVhrariaBOH04WkmcPRy7mKwx4yA0WCEELeWUo96J7MKNYag+XRXfEb4fPNBoNB7Ybrvt1i9btmyzi4kYLoPIPTdv3nxIyKBL16n0NkRO8QrX/bSSZ8ouG5HlkJMkgTj932gluS/Lsbbqa0w5yNBAoskgR2m5R87IyETSuZ6chjH2MCJuCvNV6D2BoDoH/6vX65v22GOPTRs2bKCPhzjbB/9DRCLx3Pb/9O+QSoLwf9O6mIhrkh9rrQ+NW3moXrTKk5MkgThdq7U+ybTvtOqPSQcZNiFnhygZ5CjOwlTSMvQYkksOv8QWzE1KOSdElkyEdQUAi5RSq/JgszHtIGRAKeVMRCQnSZTgk4fJ6LQOAPCtRqNxTq1WI4o865IQo5n6zc0qMuYdZNhqQsjrFEZR8A2af9rXcM61y5yahOiaj2itO001MWjFceMgw84nRxN1GGPsZPPvZMK1cO4Ywy3oeV4PANjwHBYOkvanKKU8IgiCbgdpo2mr2gn5qTrG8AEJIT5INHGGgyy2WIYGs64uhDiYtl6EIVtworPMHGP4hEkpP4yIF8edRESc7/v+mrj106w37rZYzYxVqVR25pwPUakRKDZP07A5kk0H7uvDR8brfN//bqf0EkJ8jDH2qRj952b1GJdnkBgTMHjzRUQ9xDuYk7eUOGqb1Hk0om67ftddd70uL/FlIW+IovfeZgMJGXUfCBl1kwQ/mtgoVt0Js4K0WFkIPIJ4Bw8HgLj5ErGMm2UlRPwz5/w6RKTI2Ovymm4spVwaXcvvNsw+9MB6je/7dF7JVZnwDjLiQLkrAByBiEeGcVjvZIztkavZeq4yRNV2TxgSci+BVWzduvX61atX/y3H+m5TjVKsd9hhh5dwzomF7O9a6wfzqnfhIC1mplKpvJZzfgwikrPslQWzbQt1fh4ii9wd4hv/PAiCeydNmnRvX18f0TsXJUULFA5iYFzCF+7q6tqLc0775L2iZCFyHPr/nQxEjVaV8lI2AcBgHFcIZ/xg6JgUQXx34QwJLZugeeEgCYw3vClF4A4MDOzAOScmpR0YY4P/pp9hmP7gT0QkTOFtgYylUmlbMGN/f/+TjlQpxDi0QOEgDo1ZiBp/FigcZPzNaTEihxYoHMShMQtR488ChYOMvzktRuTQAoWDODRmIWr8WaBwkPE3p8WIHFqgcBCHxixEjT8LFA4y/ua0GJFDCxQO4tCYhajxZ4HCQcbfnBYjcmiBwkEcGrMQNf4sUDjI+JvTYkQOLVA4iENjFqLGnwUKBxl/c1qMyKEFCgdxaMxC1PizwP8DFqI0yAyi10UAAAAASUVORK5CYII=;" parent="1" vertex="1">
          <mxGeometry x="560" y="160" width="60" height="60" as="geometry" />
        </mxCell>
        <mxCell id="AAcZYnokH5HvOokKQEHz-32" value="关键词提取" style="text;html=1;align=center;verticalAlign=middle;whiteSpace=wrap;rounded=0;fontStyle=1" parent="1" vertex="1">
          <mxGeometry x="555" y="130" width="62.5" height="30" as="geometry" />
        </mxCell>
        <mxCell id="AAcZYnokH5HvOokKQEHz-33" value="Food" style="text;html=1;align=center;verticalAlign=middle;whiteSpace=wrap;rounded=0;fontFamily=Times New Roman;fontStyle=1" parent="1" vertex="1">
          <mxGeometry x="617.5" y="175" width="50" height="30" as="geometry" />
        </mxCell>
        <mxCell id="AAXKFksK8ZsIaJ47iBgd-3" value="&lt;b&gt;信道传输&lt;/b&gt;" style="text;html=1;align=center;verticalAlign=middle;whiteSpace=wrap;rounded=0;" parent="1" vertex="1">
          <mxGeometry x="270" y="210" width="60" height="30" as="geometry" />
        </mxCell>
        <mxCell id="AAXKFksK8ZsIaJ47iBgd-5" value="" style="shape=image;verticalLabelPosition=bottom;labelBackgroundColor=default;verticalAlign=top;aspect=fixed;imageAspect=0;image=data:image/png,iVBORw0KGgoAAAANSUhEUgAAAMgAAADICAYAAACtWK6eAAAAAXNSR0IArs4c6QAAAARnQU1BAACxjwv8YQUAAAAJcEhZcwAADsMAAA7DAcdvqGQAABAeSURBVHhe7d0LVNRVHgfw8AUJKqQiKCQa5WILspiMjwMqxiPMFyW5sfkiM3XXHm6ipel2dlsfqfk4kkqsmmCIrshJXFJE8wFiuC1zVlEQFQWRRyoIWGbu/+f+bNUdLzPDMMzc//dzzhzu7w566siXe+9//v97be7cufMYAOjWgr8CgA4ICIAAAgIggIAACCAgAAIICIAAAgIggIAACCAgAAIICIAAAgIggIAACCAgAAIICIAAAgIggIAACCAgAAIICIAAAgIggIAACCAgAAIICIAAAgIggIAACCAgAAIICIAAAgIggIAACCAgAAIICIAAAgIggIAACCAgAAIICIAAAgIggIAACOAQTxOrq6tzKCoq8qqvr7fnLp3at29/tVu3buccHByquQssEAJipKtXr3amIDz8Kisrc+dv0Yujo2OVq6vreTc3t3P0otDQa+DAgXtbtGhxm78NmgkCYgCtVqs5cODAiH379kVQGLi7SbRs2fLWiy++mBAQELBnwIABe2nE4bfAjBAQAZomZWdnD8vJyQnav3//qNLSUg9+y6yUUaYiLCwsOSQkJLlfv34HuBvMAAHR4eTJk32Tk5PfyMjIGK1MpZy52yJQQEaOHLl59OjRf+MuaEIIyH3uBWP79u1vcJfFCg4O3hEdHb3o2Wef/Za7oAkgIAprCsb9bG1tb06ePHnx9OnTF3IXmJiqA3L79u1WS5YsWZaYmDiTu6xSUFDQzpUrV0ZwCSak2oAo64sxK1asWHThwoVnuMuqubu7n01LS/PkEkxElQGZP39+fEpKyiQupeHs7HxJCb5Bn8OAmOpuNQkICKiUMRykvLzcbePGjX/kEkxAVSNIVFRUdl5enoZLaaWmpnr16NEjn0toBNWMILGxsQvUEA4SExOTwE1oJFUEJCkpadratWtVcyn01KlTfnFxcXO5hEaQfoqVmZk5cubMmbu4VBUlJM9rNJoMLsEI0o8gCQkJVv0ZR2OsXLny49ra2nZcghGkDsiOHTteP3bs2DAuVUer1fpv2rRpFpdgBGkDQnfibtmy5S0uVUv5JTGloqLClUswkLQBoXAUFhb+mkvVKi8v72pt95hZEmkDsnPnzsncVD0KCEYR40gZELpydfHixae4VD0aRZKTk6dyCQaQMiAHDx4cwU1gWIsYR9aAvMhNYBhFjCNdQOgZ8srKShcu4T40ilRXVztxCXqQLiBHjhwJ4yY8hEaRrKysYC5BD9IF5MyZMz7cBB0QEMNIF5D8/Pw+3AQdEBDDSBWQqqqqLt9//30XLkGH0tLS7sePHx/CJTRAqoCcPn0ao4cevvnmm+HchAZIFRCsP/Rz+PDhUG5CA6QKyLVr1zpyEwQKCwu9L1261JNLEJAqIPX19W25CQ3ANEs/UgXk5s2bwjM54H8wHdWPbAHBCKKn4uJibDKnB0yxAAQQEAABqQJiZ2dXz00Ak5AqIK6ursXcBDAJqQLi4uJykZvQgKtXr+IzIz1gBFGpysrKrtwEAYwgKkV3HeDJy4ZhBFExbAfUMIwgKkZnvqelpb3KJeggVUCIRqPZz03Qw4YNG+bW1NQ4cgkPkS4g/v7+CIgBaPfJuLi4OVzCQ6QLiJ+f32Fugp7i4+NjcnNzA7mE+0gXEG9v72Nt2rTBJ+oGwiiim3QBocP1sQ4x3OHDh1/48ssvZ3AJTLqAEB8fnxxuggHWr18/t6SkpAeXoJAyIDTN4iYYoKKiohumWg+SMiCDBg1K9/LyyuUSDEAfHtLnI1yqnpQBIaGhodu5CQYy17mO9CFlRETEv7i0SNIGJDg4eHvr1q1/5BIMkJ2d/XxKSspELk3q3Llzv/r000//OnTo0Mt0nntBQYGPJe/2KG1AnnzyyUIlJDu4BAMpo4hJz3f8+uuvx06fPv2rkSNHnvr888/n3L8D/65duyZw0+JIGxBCowg3wUD5+fm+jR1FaO+tNWvWfBQSEnJh1qxZ2w4dOqRzq6Hdu3dHWeqRFTZ37tzhppzGjBmjxWGexunatev59PR0gy/7ZmZmjqJw7d+/fzR3Nejtt9+eGx0dvYhLiyH1CEIwzTJeaWmpBzcbdOXKFbd169bNCw8PL5w5c2aKIeEgO3fubJI1T2NJP4Lk5eVpoqKisrkEA2m1Whtu6qRMm8KV0WKCssaI5C69derUqWzUqFEbldemHj165HO3RZE+IIQCQkHhEvSkjAaJixcvjuLyF3TMhLKwnkiL66KiIi/u1lv//v33KlPfjfT3c5fFUkVAYmNjF6xdu3Yhl6AH+qB127Ztz3H5ALoiRYtuLvXSoUOH72m0GD169Mann35ay90WTxUBod9yyj/OSS7hEZydnS/5+vpmDR48mC7HbuZunZS1XXFZWZk7l4/Ut2/fgzRaUDi4y6qoIiAE06yGKYvrD6ZMmfIxl0J0+VZZlM/n8gH29vY1SsA20WjRu3dvq77lR/qrWPeEhoYaNCVQIzs7uzpuNoh++Ln5C2X0ObpgwYKpysK90/vvv/8Haw8HUU1Ahg8fnsBNeITHH3+8lpsNcnNzKwoKCkqh9tixY9dt2bJl4BdffDHo5ZdfXi/TLT6qCUjHjh2vdO7cuYRL0KFt27Y3uKmXl156KS4nJ8fhww8/fLNPnz5Z3C0V1QSEeHh4FHATdDA0IIGBgbsNGXWskaoCQjcwchN0MDQgaqCaq1gkPj5+9ooVKxZzqSo2NjZ36JNrmmrS6177/j6NRpPB3y6k1Wr9jxw5EsZlk+rVq9d3Q4cOTeXS7FQVkH379kW88847qrg3y97e/voLL7yQpLy+9Pf3z+Ruk6CAvPrqq2Z5rHnVqlWjmjMgmGJJqra2tgM9Pvv6669nzJ49eyvdYctvgQFUFZDu3burbpGuzBBs9uzZM47usKUHltLS0n7Lb4EeVBUQW1tbVW8oRw8sxcTEJE6YMOGblJSUSdwNAqoKCPzXiRMnAubPnx8fGRn5LXfBI6hqkU68vb3V9T/cgGnTpv1JmXoZdKczLdL1uVHRFFq1anULV7HMCAF5kDEBURNMsVSMPhgcOHDg11yCDgiIiq1Zs2YE3YHLpcHoicJTp075cSklVQWkvr7enpug+OGHH+y4aRR67FZZ6OdOnjw505L3tmoMVQXk7NmzvbkJitTUVKN/qGnkOH78+BBq09d58+ZtDAgIqPxEUVBQ4H33mySgqoAUFhY+y01Q0AeIxo4iujaVo6OlN23aNCsiIiJv6tSp6bt377b6A0JVFZCioiKMIA+haRI39fbTTz+1bujPHT16NGTOnDkJQUFBpbQX7/nz53vxW1YFI4jK0V283NQbjR61tbXtuBSqqKhwpb14R4wYkU+3uuzdu/dlfssqqOpzkNDQ0HOG7BaoBmlpaZ7u7u5nudRbRkbGGBpFMjMzR3KX3lxdXYvvbQHUrVu3c9xtkVQTEJof0yKSS1DQc/qLFi36HZdGKS4u9qTFPm0dWl5e7sbdelOmYDtpW6AhQ4Y026flIqoJCN2cR/cfcal6tJGbsqAOeOqpp0y2X1h6enokTb/oQFDu0puPj8+xhISE/lxaDNWsQYyZCsiKniJURo4oU4aD0NZKsbGx4crUq3d0dPTiJ554Qu/1De2jxU2LoooR5Pr1608EBgaW//zzzy25S5U8PT3/rfymzh43btxaLy+vE9zdpOjsDxpV6NQq7vo/tra2dcqo08nOzs7iHkdQRUDoH2nOnDlbuJROixYtfnJxcSlxdna++1Lal+61u3Tp8kt/mzZtfuA/YnZnzpzxoU/baWFPv7C4+65XXnkldt68edO5tCiqCAiFg0LCpRSUBfaWyMjIdcoPfmlz//AbikJCi/rc3NzBVCcmJmq8vb0t8mx76QOSl5fXPyoqSqpNzZYtWxYZEhKSzKXVOnnyZF8aVebOnWuWU3WNIX1AlNHjC2X0aNSlTEsiSzishdQBoYXhlClT9nJp9RwcHKqzsrI6cAlmIPVl3q1bt87gphToChQ3wUykDcjmzZvfNfQgSUvXuXPnUm6CmUgZEHo+YenSpcu4lIYSkMvcBDORMiBvvfXW37kpFbqky00wE+kC8tprrx2pqalx4lIqnTp1wghiZtIEhG5j12g0Nd99991A7pKOqe+dgoZJERDatZ2e9airq3PgLul4eXn9s2fPnqe4BDOx+oCsXr36z2o40kD5BZDETTAjqw5Iamrq+PXr13/ApdSwwVvzsOqA0GH3b7755kdcSsvb2/sYTbG4BDOy+inWjBkzFoSHhydyKaWoqKhV3AQzk+ZeLOWHKDsvL0/DpTSCg4O3L1++fCyXYGZSXMUi9Dyzo6NjFZdSsLGxuT1x4sRPuIRmIE1ASHJy8m+4KYVJkyZ9QpsZcAnNQKqAuLi4XKSdOri0esOGDUvhJjQTqQJC/Pz8DtMjnFxaNScnpwpuQjORLiCEnm9W1iQDuLRauHu3+UkZEEIPF8XHxw/l0urQ6U92dnZ1XEIzkTYgpF+/fgc+++yzMC6tiqOjI7ZJtQBSB4QMGjQoffXq1aO4tBodO3Ys5yY0o5YLF8p/wKmHh8fpXr165dE2Mw9vWmapysvLu9F/a0BAwD+4C5qBKjaOu6ekpKTHsmXLlljTGRVhYWFJS5cuHcclmJmqAnLPhg0b3l+1atVfuLR4tJay5gsO1kyVASGHDh0KX758+RJrOXVq8ODBX9GxzVyCmahiDaJL9+7dC4KCglKqqqpcCgoKfLjbYl24cOEZT0/Pk3js1rxUO4Lcb+vWrb+Pi4uLMeaEJHNLSkp6rnfv3rlcQhNDQFhpaWl3ZZ4fo/wATuMui+Tj45MVGxs7vH379le5C5qQaqdYD2vXrt31wMDA3coPYE5ZWZnb5cuXLfKwzytXrrhXV1c7DRky5CvugiaEEeQR6EB8mnZdu3atM3dZFEy1zAMjyCP4+vpmDRs2bNetW7faFBYWet++fbsVv2UxMIo0PYwgeigqKvKiU3LpVCRLGlEwijQ9jCB6cHJyqhwwYMDe4cOHb6XFcUlJiYelbG+KUaRpYQQxwo0bN9rTOXs0quTn5/tyt9nRMct79uzxpFvjuQtMDAFppJycnKF03AJ9PXHihNkf96VP1+lTdi7BxBAQE6qqqupy9OjRkKysrGA6/q2iosKV32oy48ePX/7ee+/N4hJMDAFpQnQ2uFar9T99+nQf5eVL0zFTb7BNOy5u27bNj0swMQTEzIqLiz0pKEp4+tBXZZRxqa2t7XD9+nVH+kqXlflbdaK9sugwz3bt2lUra4+7X999993Zvr6+R/lbwIQQEAtz8+bNtjU1NR2Ul+ONGzc6KP8+NrQIV1419vb2d1+tW7f+kb8dmhgCAiAg/TPpAI2BgAAIICAAAggIgAACAiCAgAAIICAAAggIgAACAiCAgAAIICAAAggIgAACAiCAgAAIICAAAggIgAACAiCAgAAIICAAAggIgAACAiCAgAAIICAAAggIgAACAiCAgAAIICAAAggIgAACAiCAgAAIICAAAggIwCM99th/AAVsSRuJkkdCAAAAAElFTkSuQmCC;" parent="1" vertex="1">
          <mxGeometry x="100" y="210" width="60" height="60" as="geometry" />
        </mxCell>
        <mxCell id="h754bVSyxSi2Pqq50tC0-2" value="" style="shape=image;verticalLabelPosition=bottom;labelBackgroundColor=default;verticalAlign=top;aspect=fixed;imageAspect=0;image=data:image/png,iVBORw0KGgoAAAANSUhEUgAAAMgAAADICAYAAACtWK6eAAAAAXNSR0IArs4c6QAAGD5JREFUeF7tnQkUdVVVx/+WJs5lVE6p5QCOCDgkolYKKQ5kWJCkWanlQOGUEpgDaIqiiZStVq0SBwzREANF0ZwIFXBEzTQHVCQlRFMiJer85D7X/Q7nvrfvvecO57691/rWB+8743+f/z3TPntfTS59EfhpSQ+VdFdJe1Z/9y3T84+DwDmSzpXE32+W9I242quN047F1rKvpNdK2nmxPdyejl0k6WBJb6932QnSbQBcQ9LRkg7tlt1zzRSB/5N0jKTDJF1OG50g3TR1XJiOn9gtq+cqAAH0e4gTpJum9pb0vm5ZPVchCDCT3FPSB30Gaaexa0n6tKRbtMvmqQtE4LOS7ugEaae5h0l6U7ssnrpgBB7iBGmnvSPD5u2Idlk8dcEIPMcJ0k57p0rar10WT10wAm9xgrTT3n9I4mLQZTsQuMAJ0k7RnG5YxHG1oDRtGpMul6DI+0q6g6QTJH1zYMxNoPr90sBayFO8SZelE+RJkl5R4cWx3D6SvpQHv2QpJlCdIANqIF/RJl2WTJAbSjpf0nVqmEGOe0n6aj4cdyjJBKoTZCD08xZr0mXJBLmfpDMSmH1B0r0HIokJVCdI3pE8UGkmXZZMEHA7u8G8fKiZxASqE2SgIZ23WJMuSycIJh9nSrppArshSGIC1QmSdyQPVJpJl6UTBOzGJIkJVCfIQEM6b7EmXS6BIGOSxASqEyTvSB6oNJMul0KQsUhiAtUJMtCQzlusSZdLIsgYJDGB6gTJO5IHKs2ky6URZGiSmEB1ggw0pPMWa9LlEgkyJElMoDpB8o7kgUoz6XKpBBmKJCZQnSADDem8xZp0uWSCbCLJxyXdTdL3WuBuAtUJ0gLR6ZKadDlnguCM7R6Sbly9weAdxuoPb8NzyOGSXtCiIBOoTpAWiE6X1KTLORHkBpL2r/78SmSEOBSMbwueKx7YonATqE6QFohOl9SkyzkQZHdJR030lPUzknZtoSMTqE6QFohOl9SkyykJcuvKOyGeQqYS3EwyW1nFBKoTxArnpOlMupyCIBgW/qmkx00Kz5WV+x5kBkqYqAmzJAh7jNdIuq4BlAsqS128b39F0pervz9vyLtKAhnxgvhziTznSbpTi7JIagJ15BkEV0S/Hp4c79KyL3NP/q/VM+rnDdRQky7HnEGeJWlTZ3HK9gZJH5D0xZ7ArCMH5OPlYds6TKCOSJD3V/3oCdWss79XEn4HcotJl2MQZCdJx1dfuVQnaegpkiDQJzKhADl4J5JyEcpzXMjR5e26CdSRCIJz5WMz4TX3Yp4g6ZWZG2nS5dAEuVG4y3irpLs0dI6gJexHuLTLJTeTxJc1RQ6Wajif7kKOuS2xPrIG11xYzqWcD1V3YjnbMzlBrlktlVLkuCzMFgdIOi1nj6uXhUPMHKtmmkAdaQYBQzDeBvnPAYIUmXQ55AxyYsOy6uuBOA8IF4J8AXPKUMuqehtNoI5EkFRbcutzqv7Opm+5AV0NJhw8c7oSy6cq31VsknPKkMsqJ8hmTeUeR4smSFOIAI5pMQ7Ev21OYeZgz3HLRKFdT6ua2jfVFzXVntkMogFmzNn0LTfzcebG0en1Io1eWm2yuHvIKWOSg3bPiSAfDpFZMdNZCUvWPXKCO2F/Z9O33AR5saSnJZRENNh3ZFYexTXdA3BahfO4tvccm5o4J4LcPwzgZ0vaTdLHwlf8uQ2O9Db1ad2/T9Xf2fQtJ0Fu3nB8+iJJz+yjpYa8TZ4V+x7lznHADACfqcipCGJqXM9Epr7lJAgmJMSZrsvXgmkJRokssXJLyjdvn0tAS/tMoA6wJre0bYg0S+6vqW+5CHLnapqPlfTIyvZqCOVRZuzdnaVc7mVVve0mUJ0gQ6k7a7kmXeYiyMnVQ6d6D86StFfWLqULY6PKYyvW4R4fJC/gpkFU6AfB1LccBCH8wHcSetlTEqcRSxITqIUOmJSeltxfU99yEOThlQVuHeCPRkeQSyGJCVQnSBHqNukyB0Gw1GWvURcsc3lGuzQxgeoEKULtJl32JQj5L5F0/QiS24YTLUKiLU1MoDpBilC7SZd9CcJDlndHcGBvRVDNJYoJVCdIEao36bIvQZ4ans++JILjb0L4s8cWAVH7RppAdYK0B3aCHCZd9iXIMZKeEnWurSOECbDpXKUJVCdIZ3zHzGjSZV+CEJv8oKhXj6ge24/Z2bHqMoHqBBlLHb3qMemyL0HeI+k+UTO5HOSScIliAtUJUoTqTbrsSxBOqrC1qgu+dC8sAqL2jTSB6gRpD+wEOUy67EuQ7wbviNeOOte3zAmwMldpAtUJYsZzyoQmXfYZzOS9ItHDPmVOCZilbhOoThALlJOnMemyz2B2gjTruA+uk4+cWgNMg6jQD4Kpb30U6QRxgqwQ6DOOpvogOEEGQN4EaqFf1BRcS+6vqW99mO8ziM8gPoOs+QpvI0FwWUQYuHVCGlyuLkFMX9lCZ0xT33wGaTeM8cyCx411cnrlObJdyfNMbRpETpBm5cUADuFDdU5DZ5/wjJioVOsEbyvvmlOje7TFCdIDPLISzKYenOakNWEOelY1m+xPDu9fXtrQmkMlvXw2Le3fECdITwzx0I717u2Co7Z3Breij68iQfUsdvbZ6S9EwYvK5dWMAWmIirQkcYIsSZvel+wIOEGyQ+oFLgkBJ8iStOl9yY6AEyQ7pF7gkhBwgixJm96X7Ag4QbJD6gUuCQEnyJK06X3JjoATJDukXuCSEHCCLEmb3pfsCDhBskPqBS4JASdIgzaJt7G/pLtLumsVgHNJil9yX86VdI6ks4OH/TeHIEMX9eisEyQBHubcr5J0kx7AetZ5IIB19SE9HPk5QSI9/l0IYfboeejWW5ERgVOD5fWjJF3cskwnSA2wY6uvTUsMPXkhCHR5yOUEqZTLsmqIOOaFjJ2taSZe9/G+bxUniKSdJX26+tsKnKcrEwE8Yd5e0vnG5jtBJD09uA892giYJysfgeeHR15HGLvhBJH0+jCDHGgEzJOVj8ApiZDdTb1ygkj6nKRbla9374ERAfwIWPXtBJFkBcGIvycrAAGruyfr2LCWNydoTH2jY6aEhfo+mpNCxmhLbl1ay9vUt/NCzJg/kHTmpoQj/rupb06QETUyQlUmpbf42FnLs3SNpfxtLAlHSmPqmxNkJG2MVI1J6RMRBAjmtBQzYeUEGWnkjlSNSektBqq1PEv3/i3YhO1iSThSGlPfnCAjaWOkakxKn4AgWBhz//KPI+FgqcaElRPEAmU5aUxKb0GQcnrevqUmrJwg7YGdcw6T0p0gP1ChCSsnyJyHe/u2mZTuBHGCtB9ay8jhBLHr0YSVzyB2QEtIaVK6zyA+g5QwmIdooxPEjqoJK59B7ICWkNKkdJ9BfAYpYTAP0UYniB1VE1Y+g9gBLSGlSek+g/gM0nYw30vS10MIOUI4f7tt5hmld4LYlWHCattmEHx9/WoVW5Dgo8Q8j2OaYzN0vCRcIF1gx3sWKU1K9xnEZ5B4tEKCl4Ugmwe1GMZXBAcHJ0o6UtKnWuSbMqkTxI6+CattmEGIvPvCELr5+nbsrpIST5MlONQzKd1nEJ9BQOBa1VLp4T2IUc96lqQHhvDP38pU3hDFOEHsqJqwWuoMcm1J7w/Om3c34PWZFu8UiIN+jxlv5E1K9xnEZxC8mj+0gRxflXRM5QH9I5K+U23U8WK/R0WA/dYQ67TgOf1BBuJNkcQJYkfdhNUSZxCc4OEMLyX4AGNPcskGHO8j6XWSbtqQjj3NYXZdjJbSpHSfQbZ3BmEG4PVaLJdK+p3qVMo6WomRclzwG/ZbDRl2k/Rxa2EjpXOC2IE2YbW0GeQkSQckMHqCpFfasdsh5asbSHKypId1LHOobCal+wyynTMIX/xvJpT/bkm/1GNEcjzM5vzGiTK4aPxGj7JzZ3WC2BE1YbWkGeRgSa+J8MFsZFdJX7Pjlkz5i5LelSAfdyPckcxFTEr3GWQ7Z5ATEjflxMIgJkYO+UAiVuM/tLydz9GOdWU4QewIm7Ba0gyCOcjtInz67D1iqF8cjoSfFv1IXBXibcxFTEr3GWQ7ZxAscdkT1OWekvjy5xDuVbhfqcuFDXuTHPV1KcMJYkfNhNWSZpBUhzE3ucyO2dqUNwwxHIkaWxfKpo65iEnpPoNs3wwC0bG+jSWnL9gx6uhLNCeIHUETVkuZQcYYvGPUYVdvOqVJ6T6D+AyyGj4+g6SJlBOXvqSeKr/pY+IziF09PoPYsSohpRMk81LCCVLCsLe3casIAiypDudeSoxRh13FV01pUnqHD8dDQlXPqYJ/YtKzLXLhUpZYTpArh+wQBHlG9WR5W0hR7+fpSyHIGMufMeroOwhzEwQjT2zQtlWOdoLYVb+NBHmnpF+2Q7S4lAc7Qew63UaC8Hzgx+0QLSrllyTdwQli1+k2EgTTGkxstlH2Jq67E8Su+m0kyBmS7meHaDEp/0LSk+iNE8Su020kyP0lvcMOUfEpOeTgWcPhki5fEkH8mHe4Y96nVG6Sih/9GzqA8/JHSOJg4odSygyCSTmPoXig9N8NHR3jEq9NHZY25x50uY95V+3bRdJTw5p8H0m3zN3oCcvDX8Hqz3tS7SiBIHgO4a053hJx8sbb81MSnWkzeLvqxFrH/lWbr7uhzV3b0ZRvKILkbmcx5ZVAkPMl/WwN0X8Pg+/WMyfI54MzB8IrrKSpzbkHihMkM6IlEMT61bam6wOhtQ5ruj5tSeV1gmRG1AnSDlDrwLema1f75tROkM0YtUrhBGkFl9li2AnSDtfZpi6BIMTjiIPf/KSkiyNUU2YR7FVY/+eQ24RjQMKz1YWb5p2j32jbRdFv9GEMkw2fQXJoulZGCQRhgP981O87Svpk9BtxPm4b/UbwnDdmwuw3wlEzjuLqQhtoS134/09Ev3020bZMzdqhGCdIZlRLIMgHJd096jc3vDtc6ASr0/eG3+4dpTtK0rMyYUbIA95G1IU20Ja67Cvp9Oi3fwk30kTSHVqcIJkRLoEg/5QIWPPIhB/el4bwaE+O8CEvr+FyCIOewV+XVJwQ/PUSIbcuOJwjuu7Q4gTJjHAJBHmRpD+O+n1s8OT+R9FvWF++L/rte5KIHBUvedrCyLKJaFRXjzISju1D0W8YuuHytC7PD7Y9R7SttEN6J0gH0NZlKYEgDwhOo98adYIwajdLdAxXoD8T/Z7aJ7SBcafw9f9oIo7hV6ILzFWZxFaPQyVgETvGy7ylEuQ6kvjw3Lcydfli+O9/Dp4uDwnRxL7bRplt05ZAEMDBxCSWPUMcwg9HP+JcGmvMWP48sfyyYvWXVdi2OD0zGDNZXZhRUr6AMZNpsiGztsOSbokEuYWkt1VhLGIMsM0j8jCPmwaREghCx4lYG29yX9IQixDQiAkSy99WyzLrF+d6kl4m6fcSZbFku3Pi99Q+CCM44ouMIUsjCDEi0f06A0lmE5bXrCqySykEeWIVL7AOAI6jAQ6v7nVh4J4j6RoJtL4s6Td5KbYBSQb0ayXdJJHufyTdLbGvwbM8XzKWZHX5/VDOX2fXXLrAJREEcqAnZpBNAu58QLOTpBSCYDrOmj9+/vnDl18Rgnz1CZ7TJJRFAE72FgT9/LHqPoNl253WRLelPIJ6Qp5Y/ipEsoIMdSE8WxySYZOy+/z7UgjC/pJj+7rB5yZcvhD2eUQnRrfZpBSC0OEjG06CbiUJ69lY2B+wicspLKF4FxFL6padNDhbe27OBmwoawkEsSyrmmDIvtwqiSCcTjGVXjNCh2NW1qDfT6DG8TB3FfSzjzDwKIt9Tyy0h435XaJ/4Ij5RlVg0T51t8lbOkHaLKuacMm63CqJIADyvIab8b+v4qCnQOPB1Ss2LJvWDUL2LTzgTz3SIt/rqn1NXAY3+NzkjyklE2TdzMGgT+1Fmn7PNpOURhAGW9MpVerYtT44fzcYOP6hpN2MI5YjZJZp66LYNr3XZm+zu7GenMlKJQh7Dk6rUiRgT8EKgUEfC4c05EvdiUEe8vXak5RIEG7Gz24YVdhKHb1hxLFpfnD1xp3//qkqPY/2CRfNxSJmJZvinz8zLPf+rKEuyAFJxpYSCcLgxgIidZTL4Ma+DnI0PSEgH/lTJCEf+TuTpESCMOgw3fiThtHHCdNjMsYmTFXTtKxaLQOfPTYzqvpKI4hl5lhdAq57Y8PMM8hMUipBfqRa+x/YMBA/V1nevinzQMXknVkjNr9fVYM5PPcs1oGauXnmevseWuRo97oNOfcZ3GvUb8g3PUKDJNybUG4snTfupRIEAH403F2ctMFKFlN5NthcHPYRTEiOqwwfm8o5WRLvT/63T0U981qJOTVB2pIDWDYRhDTZSVIyQVZjKWUOH4+z04Ij4jdUhErZdaXGJa8YGfDMUrGZe5x+LHP2TfwphSB86fdKdAZDT2aO1IbcQhCKZE9C+SkriNbvcpZAEEBhY/70TaOn+ncIdVZ1P3FJ9XSXJRtPYn+i+hsl7WcsD3N8NuxzkBIIgmUzPn9jqW/IU1haCbIiSdPGnZgnOIszyVIIQmfpOBv02NTcBESHRJjWHxBmF75Kc5ESCIK5EL7OsNJeSWrPEWPahiDkTS23MFS9ecKfQaP+lkQQOoknQ268MXvHfmsIAWRmLMxOrMu1Idph/cqm0k29B2FfyOUtwnt9lrCpZVW97W0JsppJ3h4+nJgCIdSL/Z5ZlkaQVcfxNHKYJC7ycgpvTVhS4c1kjlLCDLLCjcdPvNTkyByPNJukC0Eok2Uz7mo/lnhxuqnOxYQ/aOoopyW/Vm38uDBKbdzWgcTUz1qWM3aOjLlInLOURJC2OHYlSNt6dki/1BmkCRTcAuEeyCLcdWBCXZI4QTJra9sIQn+vMGI49Trd2Mwdki2VIOwt/ysChP0frz4HFSdIM7xOkEGHXqvCUzP/KM74nCBOkFYjdaLEbOjju4tR3vo7QZwgE435VtVi38ZpV11e3/AOp1XBmxI7QZwgm8bIHP499e4GjzO5j/Gv0lcniBNkDgTY1IYTJB0UJcK0KPUEelNZrf7dCeIEaTVgJkiMxxls5mLLiFY2VV3b7QRxgnQdO2Plw3Mi1th1+XblAmrwpwVOECfIWAO9az043XtslPn4cIn7210LbJNv2wgCNku9TFtq3/CcGTvfw4o692vRJG+2jSB+k37lMCjlEpR4L1hN1wV/Y7zdGcMZ+OKNFVNfBZ9ByiAI70V4S07Mx7owczCDjCI+g/geZJSB1qGSJlez+E4+r0N5nbI4QZwgnQbOwJmaPOXzYhTn4aPJthFkqRvZ1YBZyvKRY12Od2PhGS3PdUeTbSQInuA3udUn9DQx1kuTJRDkBdVr0Bh7nujiOnZU2UaC4Etr0yYPB3CxacOoiulYWekEwc0S7pli4e0HH7WLOuLSOds2EoQwBUSsXSdEqeobGbezUnpkLJkgbL4JI0E8x1iw5sV6d3TZRoIAMp7gCeyZEqbxlceN0RXSs8JSCcJ+g5k9RQ5CXkzl63gr70FWY3AXSY+r9hoMLPYdmDVY36z3HMuDZC+RILhpwlNMSt5YebccBCxLods6g1iwKTFNSQQhMhePoPA6kxJiSP7CWDfmTcp2gpRIg+Y2l0IQHLjxngMvhykheBHLLmK2TCpOkEnhz175nAmC6cjjqyCoxG5sEk6xHjVwfBcz8E4QM1RFJJwbQXDX86BqGcWMsM5ND20/IoTk5h5kNuIEmY0qsjRkKoIQKgKvlfzBmyV/E7Pc6iEff8cc5b4lCwoZC3GCZARzBkXlJgiDnECm1sCnXSAgQjEzB25eZydOkNmppFeDchMEj+upyLO9GlllPjHEtj88GB8SLm+24gSZrWo6NSw3QazltWnsqVWs+03WDG3KHCytE2QwaCcp2DqgrS8KuTxtClhq7eClVVhtiMFt+besGeeQzgkyBy3ka0NugmA8SJyVPTY0ERIQV54YgxdX9xf8N7ZVhLwrVtoQpNhOesN3QACXOTdwTGwIQBCCwxC00mU7ECAgEKdTLgYEIMgLg73LMwxpPckyEHh58FR46DK6MnwvIMiD53hBM3zXt7aGR4fHR6/a2t637DgEubqkc4MjLh4JuSwbAd5z3z4YCnJz7WJAYHXct2v1ym4nQx5PUiYCnHDtPbO47rNHsn4eXo9dPfuGewNbIzBKPI3WrZp5hvjC6DHhCBAgscJ0WQYC3w/L6KMqK9nLl9Gl8XqRulHl5vTVkvYarxle00AIfFLSgZL426UDAutMDrDg3Lf6w9rV9ycdAB45y2WSzgx7jTOqP7zMs4a9HrmpZVT3/zA32YyEyNiwAAAAAElFTkSuQmCC;" vertex="1" parent="1">
          <mxGeometry x="183.5" y="570" width="60" height="60" as="geometry" />
        </mxCell>
        <mxCell id="h754bVSyxSi2Pqq50tC0-3" value="&quot;My name is Bob&quot;" style="text;html=1;align=center;verticalAlign=middle;whiteSpace=wrap;rounded=0;fontFamily=Times New Roman;fontStyle=1" vertex="1" parent="1">
          <mxGeometry x="-280" y="590" width="100" height="30" as="geometry" />
        </mxCell>
        <mxCell id="h754bVSyxSi2Pqq50tC0-4" value="" style="shape=image;verticalLabelPosition=bottom;labelBackgroundColor=default;verticalAlign=top;aspect=fixed;imageAspect=0;image=data:image/png,iVBORw0KGgoAAAANSUhEUgAAAMgAAADICAYAAACtWK6eAAAAAXNSR0IArs4c6QAAHk9JREFUeF7tXQmUHFW5/v7qSQK4a0LIdHVAxeWhqMeQrk5AdmUXNxQ3XEhXJ6Asbk/UJ0EfKirLk7WrBxDcRXkKKstTiGzp6gEXRHlolEe6epJAEMWFhEzX/1IzHZylllvV3ZXp9F/n5OScqX+/9+t7697//pcgj0RAIhAYAZLYSAQkAsEREIBI75AIhERAACLdQyIgAJE+IBFIFgEZQZLFTbj6JAICkD5paHEzWQQEIMniJlx9EgEBSJ80tLiZLAKJAKIXlh0I1m5NplK4eikCjm0l6iO95GOYrYmcF4DsKM0f7YcAJDpG0ygEIAmC1qMsApAEDScASRC0HmURgCRoOAFIgqD1KIsAJEHDCUASBK1HWQQgCRpOAJIgaD3KIgBJ0HChAGGc5dSslQnECst2ioBumBykWgCSoFEEIAmCNoNZBCDBjdP5fRAZQWYwFPxNE4AIQHqu06ZpsABEAJJmf+s5XQIQAUjPddo0DRaACEDS7G89p0sAIgDpuU6bpsECEAFImv2t53QJQAQgPddp0zRYACIASbO/9ZwuAYgApOc6bZoGC0AEIGn2t57TJQARgPRcp03TYAGIACTN/tZzugQgApCe67RpGiwAEYCk2d96TpcARADSc502TYMFIAKQNPtbz+kSgAhAeq7TpmmwAEQAkmZ/6zldAhABSM912jQNFoAIQNLsbz2nSwAiAOm5TpumwQIQAUia/a3ndAlABCA912nTNFgAIgBJs7/1nC4BiACk5zptmgYLQAQgafa3ntMlABGA9FynTdNgAYgAJM3+1nO6BCACkJ7rtGkaLAARgKTZ33pOlwBEANJznTZNgwUgApDE/a0fLgsSgAhABCAhERCACEAEIAKQRH1ArmCLCJtMsaxEfSRRb5yBTImc74dOs62t+sFXmWLJFCvxb5MAREaQ2J2nHzqNjCDjEZB70mPDAxCAtIK2g1x5LVMsmWIl+BkYZ+mHHwMBSB8CRM+bK0E409d1cg9yqkOrVFDTSYAEd0Re5diVg1Ts6QaNAKQ/AXImCCsFINGQEoD0J0BkBInGxvg00jA5iFQ+0hWDOJGsk9OOBOqVWPS8KSOIUqQEIGFh2mE3CgUgiuiQESQ0UDsyQGSKpYgRmWL15zeITLEEIIoREIBMjoAs806Kh4wg/QkQmWIp/n4KQPoTIDLFEoAoRkAAIlOskK4iI0h/AkSmWIq/nwKQ/gSITLEEIIoR6E+AyAii2D1kBOlPgMgIIgBRjEB/AkRGEMXuISOIAERWsWQVS/HnYkpXScLVI9m8MoIoNq6MIDKCyAgiI4jiz4WMIIDkYk3qBTKCyAgiI4iMIDKCTIyAFG1Q7w8ygsgIIiOIjCDqvxgTKOVEYUTYOrliJ2V/EvXR7cokABGASFWTkD4gABGACEAEIFMiIMu8ssyrOHGTEURGEBlBZASRESTsd0CWeWWZV5Z5ZZlXcVLVJ6kmiaLhw9TJZd5O2dRpOTKC9OEI0qlOJACRK9hi96V+6DTbgtIPvsoIIiNI7B8BAch4BOT6gwRdpx9+VQUgAhAvAjvsPkgC3Puy9MOPgUyxZIqVGC99ARDvPseAx6lZge8SB7WHGGUEiWisfgBID/XX1E0VgAhAsGiROWvDbG1XHm3Oy2jaPJd5HhN2BWMXAm1wNTysEW0YZTw8QDtvcFaf/0TqPXU7KRSAqAAkhEb1Ount1L6T1O6113GzH3/msw9hF4cSqADCPGDs37Nj2vc3ABvAeJgINTB+PkDu6gftoQ0x5cx4cgHIjG+i9gwcXFJcmmHtYDAfwMABAGa1JzGU+1cA/RzkDoO1mmOX/9BFXamIFoCkEuZ0leQKxde7rL2RwB4gnp+u9gnaiO4j8HXN0dGrR+6+4oHtZkcbigUgbQRvprFmjdJbCFgG8GEzzLZNAK52qXn1SPXyO2eYbaHmCEB6qbUCbNULxXeC6UQAB/WAO9cS6Oq6Xf5hD9gqG4W90EhBNuaM4vvZAwZhaQ/6cRuYrnZq5ctnsu0ygszk1gmwbfwbA58m0KIumf84gDoYfwUwH4T5AJ7eJV0/YJfPagxXftUl+W2JFYC0Fb50mQcXmbtoA3QWwB9pSzNhM5hWgVwHLjkA1QmuQ6TVZ2O2s8a+0APIpGfeXic9faedR+c3NZ6vEeYztPkE3o0JxxDw6rbsAf7CwFkN27qgTTkdZxeAdDyk3RGYyy8/jKn5GYDyCTU8CMLP2OUfNmqVHyWU4cu2W2H5HhmXDyfi1wM4og3ZM240EYC00ZqpsB53XCZXf85nmPGJuPoIfKcL3JoB3bTWtu6Iy5+EfvdF5oLRWXwYsfa61mrac2PKmVGjiQAkZuulSZ41zIMIY1Oq18TQ+xiDL+bmwNdH7r50u+495PZ9/6A7mlmxNV1lBYDnxfDBI712wB04+f+GL1kfk6+j5AKQjoazc8Ky+dIJRHxVDIlNgC7amjpy8Uzbwd49v+z5TdI8kHj/4nzs38tMyxu18uoYcegoqQCko+HsjLCcYZ7MgNfZlR4GrhwgXPRQ1fqFEsN2IhpcYr5Uc8dA4v1TTXl5AoxlTs365vYwWwCyPaIeojNrFM8g0OfUzOLvgfjidhMm5+77/mfM2ZJZQBoPkptZAOJBF1hA4EEACxi0XiOsYxfrmHg9E9YNNLGuSZvXN2pXP6pm67+osvnSKzXiFQyUVHmZ8clGzVKMi6rUaDoBSHSMUqPQDfPzAD4epZCBDUR0klMtXxtF6/f+BYvMZ23OYD/yUlLIW3WiPZPIafE8SuAfu0w/mk3ubXEyevXC8iJc90IQ5ijpZww5NauoRNshIgFIhwLZrphs3ryEaGzqEfXYzFRq1Mq/jiKc+H6hYe7nAvsB2L/NpdgItXQLkXsrmtpt9eHybVE25haX9meNLwWwVxSt956An9Zt67UqtJ2gEYB0IoptytAL5jfAeEeUGGL67qZdMic+suqSv0fRbnufM4rHM7RTAS6o8nSOjmvet1TDrnwtSmYub17nbTpG0Xnv05xuCUBUWqSLNDmj9DkGn6Gg4kuObX1MgW6MpHVU+FQAb1Dl6SLdzS7RRSPV8vVhOvRC6d/B/AUVO1yX9x0ZrtylQtsOjQCknei1yavni28EUeR3BAEfqNvWxSrqvJWiDNOpzLxchT5lmmvIpYvCpl6tla77Vex6Eu5uD3f5FKMARKUlukCjL1mehev+FMBLw8Qz4+hGzfqxigmti0u9USPuEVoV8Z2jYQxt3mXg9KCporeI8OQA/hKlkBjX12uWl97StUcA0rXQhgvOGcWrGHRCGBWBT6zblStUTMwa5rcIOF6FdhoN4UZ2cTsIG4loI7nNR0Y1bKQt2iMj91gbBxeZc3mWO2/AxVzWMvOYeS4Yc4l4X4C8w1mZ2HoJd4EG3uOsvmSNH6++xNwbLu6Nkkugz9ftcuw0nCi5294LQFQj1UE6lY1AAsp124qcJg0uMhdqA/AOH70qhol1An7CRDdv3ilzc5yP/qk69jzig3OeeHTzoZqGQ5jxOgAvi2HHOmL3bfXa0O1+PNm8eRQRohMrGUWnZg3F0KtMKgBRDlVnCPUlJ+bhZryp1TOCJfJNjl05PErjeK4WfgJgpyja8fe8igjn1w/P/ggrV7pqPPGo9IJpgPEBAO9S5WTGWxs16xo/+lzBXMGMS0JlMT9CA7Skfpf1R1WdqnQCENVIdYhOL5g/BeOQIHEM3NOwrX2i1OmFYhFMVhTdOC7wRyI+r25XwjuakjA1Iu9QFzNOB+hAJQ6iU5xq+UI/WpUNVAZf0rArJyvpikEkAIkRrHZJs4ZpelOnEDkPZdg96KHa0INhunSjeCpA0YeLGJtBOH909pbz1t9+5SPt2p+EP2cUT2KmD4Hwwmh+Ps2xK//lCxKVvaIYl7NG2zJOIQBRjVQH6LKGeTcBQcdk/+kSHztSrXjTr8Ant7i4mDWqRZnjnQUZJTpl3QxIYNztNe+bN/DkrHMBvDvSbpfz9eHK8FS6bL74YgLd0Sp25yuGgesatnVslI447wUgcaLVBm3k6EFsOtVKJUxF1limE7R6lBkMfKdhW8lWtKKEt/E+VzDPG592hT8MN9ewh5ypVDnD/DADXw7npnc7dvnrUTpU3wtAVCPVJl3Y6MHAHQ3bCj8UdeDKAf2JEe9cRNT3yRcc21LZmW/To2TsWcM8jYDzI7jvdnYeXIJVK0en0ul5cxVorEKk70PAL+Y8d87SNTdcuDmZhZO5BCCdiGKEjKjRg4iOr1fL3wkfPcwrCHhfGE1a6Rfthiy7uPgq0uiXYXK8My4N23r/NIAUikeAyVu5C3vOcGxLKWUlyhcBSFSEOvA+/NuDf+LYlaPC1OSM4ucYFDoquKN42sg91j87YG4qIsYrtOAfYcoI/Pm6XZm2CaiQ+fwgtMde5qy+pu0q9AKQLneHqNEDoKMcuxz4izi4uLhU0yi0XKcGd5+19tA9XXal4+IXGssWudDujjsqLlh68u6Z5havCIUeyEvau5zqZd9o12gBSLsRjODXDbMKwPAjU/mY1o3iNwF6e7Cazn6Udjkc08TrRuldAIekw/O3HLsy7SiAnjc/AILvvsmYEqL/dqrlN7XrjwCk3QiG8Ld2lT2A+D4a8Jqwcjx6xHybCJ+rV61PdtGFVETnCubZoWWNiI90qpUbJhoz78CTnj7nidHfAcgFxtfll68drvy2HScEIO1EL2r08O7+I5zpT0YVxy6bYSJ0w/SmXr6F2NLIZO1iaKaJjjgwdYNjW0dOZcoZ5vkMnBZsJ5/p2JXPtOOHAKSd6EUBJGx6xXxMWIXDXL70diYOruSh0RHO6vKNXTQ/VdH6ktLhcHnSKDHRAGJ6R71W/tbEv7WOEfsmOrbofu3YVpwkzmk+C0C61A3CplcEbJjz6Jzd16wJXqvX8+adQVXbVb5duuRWV8VmDfPbBLzNVwnjLqdm7Tv1nW4Ubw3L9yLiY+vVynVJDReAJI1c1OgRMr1i8FcbdiVwT6N130fwbrDLBzrDlZ93yfTtJlZfXDwAGq0KNID4XU61MmllSs8XPwiirwTxEOGqetV6b1KnBCBJIxcFkJDpFRjvDCuEpudLXwfxO/1UMOirDbscumHYJZdSEZs1SlcS2L9DM33DqZUnpdF75U15dMD7EA85RUm3u0RnjFQvi327lQCkC80etXo1+uSWXdf/0j+7ds89Pzhn0/M2jwDwLfpMAcl8XXBju4iMSMb8806PzhmcOjXVDdO7hGfarvv0Dwq+UGsOXLB2+NI/qTonAFGNVAy61tlw39WrqLpO2cXFt5JGQWkntzq2dXAMU3qSVDfMW4Kuk2OX39YYrnx3omO6UToSYKVz+wAeJpCpegWcAKSDXai1eeWV5glcm2fg9LCLYsKmVwR8um5bn+2gyTNSVM4w/4MB/+VZn2mWapbzBGf/yS69vjFc/llUAAQgURFSfK+ayg3Qi8Oqr+uG6dW69Z9eMS2u18qhqRmK5s5osly+tA8TTzsT0jL6z45tTbtKQTdM77jtC2I4th6ENzhVyw7jEYDEiGgQqW6YDQBeoeeo53HHtp4VRDRYKB6qMf1PwPs/OLb14igFO8p73TB/D+BFfv64xK+derBML5SuB/PRMf3/vebym8J22wUgMSM6lVzPm2vUjpOOcf7Wsa2XB6mMyNr9imNbXs2rvnh0w/SO3p7i56xflq9umF8E8NHYwWE6x6mVAwuGC0BiR/RfDHq+dC2I36gugm5y7HJgtZKsEXLmowvnrdXtTp+yVTr1Vj/NfmdFopMeA31Y49iW70jlcQhAEra94sm4ydKJL3eqlWWBU7W8eQMIvgDS3MwL4yxPJnRrxrAtXLziBa7W9C/jw7jRqVmTctRy+yx/OWfc3yRxgFk7plG7zLf+lgAkQURbJ+K8X7d4JT4ZZzk1a2UgQAzTuyv8lX7v549i9j33WFsSmNuTLIsWmbM2DODJAON9c6z0grkJrHjXyCTB/in1MoIk7DptzHeXObWyt6nl++QMcz0D831ernNsS2URIKFHM5NNN0xvw3TBVOu8XLa6be029e+6YXorX1Fn9n2ddWzLd7CQESRm35j/inc/bWDnne8jYI+YrCDmw+u1yk3+fCs13Rhp+r/jmmNXfA9dxbWhl+h1o2gH3Qvv2INb6wFPrg6pG6Z3qdArkvi4eeeBZ/iVYBWAxIzmeMVA8mrhxn400MvW2mXvkM+0p1XtfVqpmxbh9x3bektshT3OoBvm9wC82dcNTdOd1Zd5y+tPPSEjcGQkBtyBBX5XTgtAIkM3mUDPmx8D4ZyYbGPkO2HOs9bYFz7ux7vQWLHIRdN3E3Csnm7V+lASnb3ME7b5qiGzz1r70onn8Ek3zOT1hrWBF/lVmheAxOxB0WfEgwUGzXM9jrACBgRcULetyIJrMV2Z8eRhJwanFqrYY/FJu41qo+uSOuU2m68eufvyaaWIBCAxI9qND0HPhN0XmQuaA/A+Sv2eax3b8p9qxLS/l8h1w/w+AN/CC5lRDD50j/UUIFRqbYX5Tuzu73cNgwAkZo/RDXNtWDJimLiwKZbHpxsm+/GrVnyP6cqMJw+rJzZ1NM7llx/G5CY+guyOYp53WdDUoAhAYnYT3TC9kpazY7KNkYevYo0BJCina6NjW/OidI6NQhmUoui29/uwvaCJtumG6VWkn+tj74hjW9mJf8/mzfcQ4atJfAv7ARKAxIxozNyrydIjNgrDfjFVKyfGuU45pusdISfgsLpt3RwlLKzyol+H1gvmx8DJFk/CvvEEIFEtNeV9/PyrCQIIdznV6YUHtlGEde4muXutqw5F3v6aK5Q+xcwz9czInzf/bWD3R34Xfc/7gsKyf8uw5rsk7lfySP24wfQG1+C+bq095JtFLQCJDRDzHBCU7yufKj5ortv6BvEu1/GvlUX0ZqdajrwyOre4tD9rPFMLOvjWt/JrAr1QehOYvY90v8dybGvSVFI3TO+U4XExm9O7feuXTs16dRCfACRmRLP50hIiTn6BfUhHDzuqu3Ul+ArHtk5UMTfB4SEVse3TREwxp3x/BJ8z95GjF8w7wVga28gImwQgsSM69jGd7NdqPH068PbahUZpLxccVCpzvWNb0/KSfH99DTN4JErgb6dYwrJmp+rQDdNbwp2Wb+XR+WUk6HnzIRAWxrFVpb6YACRORFu02XzxaCK6PgGrx/KgYw/uOTWPaJss3TDvC7pKmVw6oD5cvi1KbzZvHkeESYUNonjSeD917yJIZ8Q00ffQmW6Y3mU7ce5rvzczisMn7qX42SMASdgzQqsARsh0SdsvqEaTnjfP3DrM+KbEE+HsetX6VJTJC/db8Rx3S9NL3PMvHkH0caAZehY7Sofve9Z8DziN0RLuc6rW3ipycwXzP5nhX5Tbb0o0fvuW8lEABjZoLh/jdxfiVPsEICot5kMzWFi+r8aud0dF7IfAH63bFd+79kK/cQjDTtXKqyiMugk37G5yFfk+U6I/ANg6Mvo/TPhUo2qdrSJbL5g1MBb70TLT0kat7F1F99QTt6qJ6lLzOK4TPGHHIRHjQyyB6hnFEvFRHWhr1G2sodMs0BtUazrphumtZu0fZEhYblicQIceFR67ph33P4F/FP5sf8M3UXNSZw+fHvpOryKqoDwl3os7k/bFOBUWkwFkibk3XNzrj3A+r1GrfDhOgHuZNiFINmXIffVDAfsa2XzxXCIKyt692bGtw1RippSaH5DFqiLfo9GN0o0Ah9rDhJMaVetSFZm6YXorhEvi9K2cUTqWwT8Ikb+awEN1u3KFig0TaRIBJJs/+XlEW6blrXiCd/TasX4B1vPmR0HwqmooPwQ+MajBklwFEKQ4a5QuJvBJoYb5XFAT5UirmuFFAJ4fRhu2ajeVL5s3TyfCeYHyAq58yBnmyQx4tkx86iD6Nbt8daNmXRPlT9D7RAAZ/+UobgZoWk4SM65v1KzXJzWoV/my+eVHE7ne9caB8/BJvjGGnJpVDPI3bClZ6droCYJV0mMY+LYG+nbU9M37tXbBxxMQfQ87Y7Ozy+DT/a5zngaO8TvgvW+LoHsHr3Fs662+P1CFZQdO/PuTjPsftoc2dKIvJQZI1jAfDDh2eq9jW76FBzph8EyWscfi9+42SrNPAOGEoKXaCfb/dhbcQx4MaMjIHXF2lzm1ocDz7VPjpBtmPfTSy20MhGFiup+ZH2Tgt6RRE+A9wXgJCHsHfTz7tUuTsGhd1fqFSptFpYqoLnGr6IpDkxggYXNFtDmvjePATKT1KnI8nHHfwtAOBuEQn2nI3wDcQQyrXrMC58563qyA4F8miHGfxplj45QCameDM2acnwC5RzrVoeC7PiYIjPxWihhtY9oWi7wdgARXsiM6xamWg28gjWVi7xN7hR5ol6fNm9VszuOBWY/5He30nToYK17R2q/YyT8KvMqxKwfFiVDOKF3FYG+E69bzK5B7uio4WgedvERBv7R2z8ZNQMZw7Et9F4W65cS/BtSEGnL54mFMFHRARTkpLaH6vmHTjdKXAP5IiMOxCzroBfMUMH0B4J07GkimczbN2nL2xjuv8EZIpUc3zP8F8JJgYvqyY5fjlxRV0h5NlHgE2dP44DM34clHAR7wU8OM9zZq1lXRJghFWAQWLD1xd62Zscm/XtY21i84tnVGnEguLCzf12U+DeC2q6V46ecu3AsatSHvXg/lJ2cU72DQtHsHtwnwdrzdTNNYd9flDykL7TBhYoB4dkSsgf9m884DS/1qDXXYhx1eXNYwTW+5NNRRl45whuPfejs2xSHteJD7ZoDUVuBahowDQ7OCynaG2Rt9hbO3ZxBvIaIbHaE9gITeAz62KRJaarMbDu2oMnWjdAHAodXdGSg1bMtKGoOxDAlXO4KI92WQ903g3cPh/e/teT1K4I0ADbukrSbmX4bdcxJmQzZvXkKEFWE0zDi7UYvOO0vqqypfWwDZ41XvffbonNne2vVLQ+aQ73bscvCNraqWCh2yRvFmAr02NBTMFzq1iu+1Ads7hK1jtF6W8VHhPuCbTs3yvcQ0bR/aAohnbDZvlohwWYjhf3ds6xlpO7aj6tMN06u+OKlgwXRf6RbK0Kn1uy7zUudnxNOq+3UlgPCM3ohjyWk70zZAxr9Fgi9dHHeIbnfscmDSXNpO97K++UuX7zqr6arsEj8Mpk+EFctOKw56vnQiiM8FEHi7VsuWGVekuyMAidzoGfOe12jQjg2qTZtWY+0IeuKl2tNNxO75wUWzuxeR8a0A7fSoZMaWBX9zbOuZ3bMmmeSOAGRsqmUUP0ugqMM8f2fgw+18SCZzc8fj2u0175s38OQsbwq1q5J3xJdrrJ2Xxg/U2NFhcj8EJqUz9ED8DU8lnztA1DGAtKZa3i094R9g4+cDvKLDlgCl/RbUjeI1AKnuZTwOxvlgvtUZrnS88om+uHgAiA4CwasjrDQaMHBuw7bCNkLbD1IbEjoKkBZIfC898beRHgBwvQZcmcYvWxtxmtGsulE6a+umwadjGcnwrje7lTS+vl6tXBeLdwLx2PTapWMAeMB4YRw5YScr48jpJm3HAdICSUT6gJ9LvAqkPQbmxxh4jBh/76bjO4rsbWU8c0bxJAZdnMgvxmYmvo3G9jvoEe9/l7ARTI8QNTcyZ+aCeJ7GmLv13MVcgOd5/xPT/qAkV56NTSOKTs0aSmRvikxdAcgYSArmOeDkBdZSjEEPq5o8dx9fLNFOBfjgGezUzS7RRSPVctKqMKm61jWAeF4EnPRK1cEdW5n/x20rNcXbdd9r5vjPNe/UX8OufG3m2BRtSVcBMgaS8SvLThubo8rT4QgEr/6MJ5NuOg0gDyjP7bDiGOLoATBf5NSsqUdiY8jYfqRdB8g211o77h5QQtJStl8gelNz9PJoNl988dZvu1MJ7F1E41upsEu+P0DEX5+1hS780z3WX7uko+tiUwOI58lY7tbs2aeBxkrReP/iVMLrejB6T0E0QJ7yySuu9o91h0LjAwA6EOBC5/3lVQS6hUi7ZW31sjs7Lz99iakCZKJ7Hlias2cfCMIBDBgMLCDwoF8hiPTD0isaYwBkikveRuOszbMPZeJDGXjl1nR6r+5vnLvYR7ZmD68j4l9xEzfPcemmXh4pglp8uwEkyKCxkkKZLYNg10u1liciAqpHW1UD6d1SxQPuYJMHFoDcwa3n5geZMALWRjI0uo5GtZGoeraqunqBbsYBpBeCJjb2TwQEIP3T1uJpgggIQBIETVj6JwICkP5pa/E0QQQEIAmCJiz9EwEBSP+0tXiaIAICkARBE5b+iYAApH/aWjxNEAEBSIKgCUv/REAA0j9tLZ4miIAAJEHQhKV/IiAA6Z+2Fk8TREAAkiBowtI/Efh/B6m4yKjiu+AAAAAASUVORK5CYII=;" vertex="1" parent="1">
          <mxGeometry x="183.5" y="670" width="60" height="60" as="geometry" />
        </mxCell>
        <mxCell id="h754bVSyxSi2Pqq50tC0-5" value="" style="shape=image;verticalLabelPosition=bottom;labelBackgroundColor=default;verticalAlign=top;aspect=fixed;imageAspect=0;image=data:image/png,iVBORw0KGgoAAAANSUhEUgAAAMgAAADICAYAAACtWK6eAAAAAXNSR0IArs4c6QAAHNpJREFUeF7tXQm0HFWZ/v7qruokJiq4JF2dOFH0va73nqKJjsqijiiLRkdU4oALaBqPC3uUoKCOCpLEIcgEojOToKCigoIOQXY3lokiKkPS1XkKBpOuTpRFhpzkdfXr+ofb7yXkJW+ptbuq+tY5nJzz+l+/ez9uLff+P0Fe0SDAJ2TyMHvIbvZCQQ8cPA+EmQzMIsJMMGYBmEkY+Zv4bfRvAOEpMHYS8BQDOyH+IzzFo38Tv0HBY3AwyFpmcw3GIOi6ZjSJdLdV6u70g2ev7xqYR6rTA+YeUIsIvSz+BQ4Jbt2ThYeIMQgFmyH+JRrkhjJozdi41ZMVKTwGAUkQjxOiMFTscRR6AwFvxch/B3k00W7xJwDczsDtisO/qk6rDLY7gCT7kwSZYvTm7C7OVxQcBqLDRgkhVockX4Igt4P5XsfBvdunV7YkOZmoY5cEGQdhvVE8mpmOBXAYAa+NehA6aZ+BXwO4l4hvsdTKbZ2MJY6+JUFGR0Xf1Xs4MplFRLyIgYE4DlbUMRGwkZnWo9lcb83YfE/U/pJgv6sJUrD7DwU5i5ixCMDrkjBgbYxxAxHWg5X1VW3TA230GytXXUeQedyrDzeUEwh4B4CjYjUa8Q3mTgZuzKrOdVtpsxXfMMOPrGsIMoeL88mmEhFKAGaHD2VXWNzBjLWs8drt1B0P96kniHgty0QlKFgCxsFdMY2jTpLwOBysI+a1aX9tnFqCzK4bA1lCialFjJlRz5mutE/YSYx1w4y1O3LmxjRikDqC5G1jAYnVwmndSmlpHLQY5mRDwVp2sK6mmb+LYXy+Q0oNQeY+2X+wM8M5F4xlvtGQisERIKxQdikrtz1n0+PBjXXeQioIUrCLJzPoXAB9nYdURgCgTOCVVa1yVdLRSDRB5tj9r8kQL2Pm9yR9INIYPxH9qMm0Yru26b6k5pdIgryA+2aqw7zndko+Z8R79tkgrGhkaeXfqCy27ifqShxB9HrxRADLQHRoopDu9mCZxdf4FVau8r0kQZEYgszn+dPsxvRLAHwiSQDLWA9AYI2m7l66hbYMJQGbRBAkbxcXKqBLGHhjEkCVMU6OAAG/dMBLa1rl/rhjFXuCFGzjQ08fSRUrx/PjDqaMzxMCjz59pHhpVTOv9qTVZuFYE0SvGytAEK9v5ZVWBBgrrZwZ229XsSRIgYs9bNMqEN6e1nkh89oHAcZNpPE5VYrfceDYESQ/bBxPTQhyzJeTqIsQYGzhDM6pZc0b4pR1rAiiDxVPg0Kr4wSQjKXNCDh8ujWtcnmbvU7oLjYEyTeMC4lxflyAkXF0DgEmXFRTzQs6F8EznmNBEN021gH4SBwAkTHEBoErLc1c0uloOk6QfMO4iRhv6zQQ0n/8EGDCT2uq2dEXNR0liG4b4uzAq+I3NDKiGCHwe0szF3Qqno4RRG8YFhj5TiUu/SYIAULNUk29ExF3hCC6bXAnkpU+k42ApZltn69td6jbxmagVdxZXhIBrwgMWprZ61UpiHxbCaI3jBsxUqRNXhIBfwgQ1luqKWqateVqG0HytrGKgLPbkpV0kmoEGLi0ppnntCPJthBEbxTPA9PF7UhI+ugSBIg/Y6mV5VFnGzlBdLt4GiC3j0Q9kN1pn0+3tGi3pURKkIJdPIVB3+zOwZNZtwMBAn+4qlW+FZWvyAjS2pXr4PqoApd2JQJ7EGAF745qF3AkBBk9z3Gr3LIuJ3FbEGBsIY2PieI8SSQE0evGennYqS1TQzrZu4zgJitnhv4JIXSCyGOycs52DIEIju+GSpDRAguJLzfZsQGWjgMjQMDJYRaCCI0gojQPgW6R1UcCj7E0EAyBRxl8bFglhUIhiCjq1mhMv0XWrQo2slI7HARE3S1V3X1sGMXpQiGIbhtXyIqH4QyutBIaAmsszfxkUGuBCdKqlUt0TdBApL5EIHQEmE8KWgs4EEFaVdZt525ZSDr0oZUGw0CA+YGGphwRpKp8IILoDeNLYHwujFykDYlAJAgQvmyp5uf92vZNENG8RoFzt+wD6Bd6qdcmBGwHyhF+m/j4Jkih0fdD2dmpTUMs3QRCQHS6qqrl9/ox4osgoz0BI9tB6ScRqSMRmAwBAp/ip2eiZ4K0uslOd+6SDTPlhEwYAmVlt3Kk1+67ngmiN4zlstVywqaGDHcEAcIKSzXP8wKHJ4LkbWMBAbHvCuQFACnbXQgwsLCmmaJgoavLE0H0YeMKOLJHoCtkpVA8EVCwxsq6/8LumiCz68ZAhlqrh2y7HM+hl1G5Q8BuMhbuyJkb3Yi7JkjBNr7GwJlujEoZiUCcESDgsqpmnuUmRlcEKQwVezhD94Mx041RKSMRiDUChJ3U5IXVaVO3fHNFEL1urATh07FOWgYnEfCCAOOrVs6cskHslASZw8X5ynBr9TjYi38pKxGINQKEx50sL9xOlS2TxTklQfJ140Ii2Rot1oMtg/OFADMuquUmb/U2KUHmca/ebCjinfFsXxFIJYlAvBHYkVGdBVtpszVRmJMSJG8bZxLwtXjnKKOLEQJ1ALkYxTNlKAycVdPMy3wRRLeNOwAcNaUXKSARIPwNpJTQdGaA8L0EAXKnpZlv8UyQgt1/KMP5Q4ISlaF2DoGHFOLSNrXyCxFC0so/EZRXVrVND4wH34S3WIWGcT4zLuwc5tJzQhD4A6tYUqOx+5vytlEi4L+SkAMRLqiq5kWeCKLbxv8AeF0SEpQxdgyBXykOStummX8cLwLdNkRVkcs7Fp17xxsszXy9a4Lou3oPR1YRx2nlJREYHwHC+uF6pvTXmRt3TAZRYai4lBX6t9jDOOwcYc3YfM/+cY57i6XX+y4Gsad987EHQAYYIgJ0jaL+X2kbbdvtxmi+0fdZYh73FsaNfltkmJZbufJnXBGkYBsPMjDQlsCkk0QhwAq+UcuaH/cStD7U2wtFuRbAK7zotVOWgI1VzXz5lATRG8WjwXRrO4OTvhKCgMv9S/tm80IemJ0dbl4LxhtinyXxMZZauW3fOA+4xSrYxqXi40nsk5EBthUBYnyumjM9vdUUNZtte8a1IG5b2+YgoIiP4lXNHNOJ+QCC6LZxH4BXB3EkddOGAJ1paeV/95pVoW58mwkf8KrXQfnfWpr5mglXkLlD/S91FGfcV3YdDFq67hQChCYxl/w0ydTtvtUAn9ap0P36VRzlZdumbfrTHv0xK0iSPu74BUDquUbg76zwklq24rkRa5J3gDNwak0z105EkKsI+JBrCKVgOhFg/AWMkjXNvN1rgvqQ8WkoWOlVLy7yDFxd08yTxyWIXjceBuHFcQlWxtF+BMTrTgKVtmnlX3v1nreLpxLoP73qxUqe8WcrZ77kAILM4f4+peFsilWwMph2I3Avc6ZUy200vTou1PsWM/EPvOrFUd5Rlf7ttKksYtv7DKLbxdMAWh3HgGVMbUCA+BYl65S20WDVq7f8UPEYUkh8CHy2V914yvPpllZp7SHbS5BCw/gRM94dz4BlVFEiwIzrGpqz5FHa/JRXP3Ptvtc6YEGOF3nVjas8Ea6vquZ79ltBjCcAPDeuQcu4IkNgnaWZJT/W9XpPkSlzLQEHbNHwYy9GOn+3NPOgvQTRdw3MQ7b5lxgFKENpAwIMXFrTzHP8uHrhzoHZ2VzzOjCO9KMfe53hzIusGRu3tm6xCo2+o5hZHK+VV7cgQPRFSy3/q590F/JCtTa863owFvnRT4IOEb2lqpbvHCGIbXycgTVJCFzGGBwBIl5aVSur/FrS7eJ3AHq/X/0k6BHwiapmfn10BTEuZZYbFJMwcEFjZPBHa1rF91FYfdi4HA4C9x8PmkfU+kT4WlU1zx4hSN34KROOi9qptN9RBHa2vo7nTN/fKgr14kVM9NmOZtEm58S4uZoz39YiiG4bYnPWIW3yLd20GwGC5RCVtmfLN/t1rdeNc0WHJr/6CdR7yNLMlxL4hIze2DicwATchixKF73SrXD65KgCopKlbjrgvLXbXPN28aME+g+38mmRs9SBLOV5wKBGs/VZPXUX0XKlyVc6RKtBfEzq8psiIQLfRyqWbKPKg35z1+vG+0D4vl/9JOuxmukjvW68C4QbkpzI+LHzakurnCF+O/ixlz47N0td3WU7le90mlzaPn3y6uWTjXt+qP9YUhzxlXxW+uaHi4wYx5PeMM4Fp+7e8kpLM5fsD0HX9Dkh3KDsUkpeWx7vi9dcu+8fHfAPAcxzMZXSKUJYJlaQFSBM2UgkQQh839LMEyeKNzF1mvwDfpWlzi6BfuH7uXLukPEyVnB911e2Yawk3TauAFLSuZbpxudqeG+Zyvaktw71vg8Qsdi5nK69ZwqttrLl1m2l30vnnuejofwYoMP92kiR3hrK28bVBHww+UnxzxQ1c8I22vS4m1z0IeOtIKx+uhJ5rxv5uMsQ81equcr5geJkZPRh4ydgvD2QnZQoM/Bt8Qwi9tQcn+ScGPg1qbTYorKnDZdz672vcEgRK0n8azZNNkCM86ycGfgbhW73fRfgk5I8F0KNnXCDuMUS544n7I8QqsNojG1yVGXxnhNgXl2IXakZtbmaCCd41Y2D/J49Q0Fj0W1D7MXzVDExqM8E6N8hCJKCKu58T6bBi7c+a+JWWlMNRuLK1BCG2KFSLVf+7lS5TfV7odH3FWY+oC7tVHpd8PsGSk0dXsJ6JfvUYrcFlccb3ELduIAJX07AwP8NCi+xspUbg8aqN4xlYCwPaieN+q0CFrptiDa4/5CGBAn4dlUzA5UtGq3MIZ5L4tlrj/GQ47Q+ALa6OQW5Cnbfxxj89SA2Uq77iHhIfxSM56Un0We+oPvNSR/qfSfEwzvF7pz17xko1bSx3Zz85FkY7lvMTjqqkPjJ35UO4TGxgojOpJorhaQIMX3JypW/ECRcUYyA4axm0JharUFsBtEl4JfkKKV9y2L6tac3jLeCISomzvRro0v07HQSBAADZ9c0M1AL6zm7i/MVRWx07PDRUqIbm9lsaQf971+DTsy83ftqYuXHIBSC2uoCfTuFt1jPDBspfEo1W7kqyEDO3Tp3ujN7lngmOWBvVxC7rnWZr9G0oSVbaMuQa50JBOcNDRzSVJo/AdAf1FZX6I/eYqXmIX2cQbPBtNjKlcWkCHR14jQdA9+oad66OU2U5Iv45QcNN4bXAzgsEBDdpfxIel7zTjxwO5iwuKaavwo6tvpQ3xlQ+LKgdlzpM1ZaOXOZK1kXQvJYtQuQ9hPZ85o3BR8Kp0qeKk3mE3bkzI1TSU71++gBInHL9YKpZP3+Plnfbj82ddu4BsCEO5z92OwSnQ1p2Gridqw2qA28+5FnmTW3ChPJzdldfBMpJLanRNDolM6wtHJoNZLztiFK13wsaM5dqn9HKjYruh08UaniORq9a6rt8G7s5esDBlFTTOSj3MhPLcNNAnx1c5rItt7ouxgs23lPjf0EEmKzYnq2u7uFga6xtHIoRc/mPtl/sDOtuRpEQXfAPsHMpVrOezenicmRypOibgc5FLmR7e5pOjDlHpYrLM0MrX9e3jZWETCmO6r7UPAICCVLNUMr/ZqKRjYeAIxQdE0aj9y6wosZF9Vy5gWuhF0I6XVjGcjbpj8GHsyMdHP6jQsXrkQK9d73MinXuRKWQpMj0Dpym86iDa6Gnog/VVUrl7gSdiFUsIun8EgTIjdbOO6F2lxi0WDFhWlXIoVG/5uZnf8G8CxXClJocgRGizaktOyP29GnJZZWvtKt9FRyc4b6jlPEeXeapFIl8y1K0yltm+G9m9OEzxx236vAvB4EfaoY5e8uERBlf1JdOM4VDtyEorzHygb/2r7HXd42FhAgVpLxvlpfaz/plB59gfduThOl09ozlqGbAPS5SlkKuUKgVTiuC0qPugHjURAdb6nlu90Iu5GZu6un4GQyYiXZ97z/WkszT3Wj71bmoMdf8pzpM3Oi5u7r3epIOXcItEqPClFZvLoF2B+ZM//sp8PrhHD//E3Z/OE7REXHjzHRqppaXupuaNxL6fXizSA61r2GlHSJwGjxatn+YC9eBPxmuG6/Y8eshwJvK993EPRG8QuWWvmiy4FxLabbxvcA/ItrBSnoGoEx7Q8KDdlAZy9yjNsszTwOBMc1mh0QlFVIogV9bAMd2YJtf7R/YGlmbP/P3Imt99FOx/hZ368Fm2ziuf8QhXkWI8zh14f6PgWFvxqmTWnrQATGNPGUbaDHnyLEdHE1V45NyzHd7vsIwOvkhG4DAvu2gR59kyVq2raap8vrGQTI4U9Vp4X3td0vtvm6cTxRq9CCvKJH4AlLMw8WblqveUcJIpo7Lo7ed/I8hHG2PUjW4vzJ6IfAGUHsSF3XCFxraeb7xhAkbxslAny3B3btOpmCTAq/s5qtiDPdbb3mcu8rHFu5BYR8Wx13sTMGTq1p5toxBCkMFXtYoc1djMtUqT9BxG+vqhVxRLktl84D82AP3waiYlscSictBMjh3uq0yuAYgozeZgmC9EicxkeAQA/DcY7bA16UOL2A+2aqDRaV918XpR9p+wAEBi3N3NszZu8zyChBLgfwSQnapAjcr6jK0W4b9fjFUlYh8YtcYL0xh+nGEqRePAlEgcvpBw4x7gYId1iq+daowtTrxe+GcIw3qvDSbZf5/VauIqrAjNxu7Zvt6LbpP6cbgdCy2/umIzSLYuPocN9qOBzaceAwY+sGW06TX7xv6+wxBBEA5G1jAwGv7QYwQsjx65ZmfiIEOy0TesP4EhifC8uetOMNAdHKr6aZY575xiNIkAIE3iJKgTQzLqzlzMCTumAbZzOwKgWQJDYFBi6taeY5+yZwAEH0RvFoMN2a2Cw7EDgDZ9U003dJ0tGz7N/sQOjS5Rg28DGWWrltUoKIH1PTlq2Nw89MH6zlyt/x6lIf7n8nHCdwcW2vfqX8WAREHd6qZr58f1wOWEFa98L1votBsiKf10nkKPS27dmyOP7q6so3+o4k8K1gTHelIIWiQ4BpuZUrH9DIdHyC7Oo9HFkltPPZ0WUVL8tEeLLJdPR2F3WuZteNgYyC28GYE68sujSaYecIa8bme1ytIK1VJBXtoTsw2IxHslr2zX+hBx+eyHuroEM2I76SGx2IULo8EIENlmaOW/Ri3BWk9RzSMM4Xb2gkmr4QuH+aWj/qYXr4yf215/Lc6U5jligzKhvZ+II2fKXJ2k1MTBC7/1CG84fww+kSi4TbLNU8Zv9s9YZxI7jDPQ+7ZAjcpklQXlnVNj0wnvyEBBm9zRL/pwupvL/bcFMl9z1LM/dWfi/YxtUMfDBVGSY/mTstzXzLRGlMSpC8bZxJQKBOscnHL2gGdLmllU/X7eJlAJ0R1JrUDxeBqb5hTUqQedyrNxvK7wDMDjesLrPG/EUQBerb3mWItSvdHRnVWbCVNlu+VhChlK8bFxLh/HZFLP1IBNqFgJsWGJOuICLQOVycrwzT/WC0DrHLSyKQCgQIjztZXridKqIN+oTXlAQRmnrdWAnCp1MBjExCIiAQYHzVypnnTgWGK4K0zqtnWquIm8YwU/mUv0sEOosAYSc1eaGbo9OuCCKyKdjG1xg4s7OZSe8SgeAIEHBZVTPPcmPJNUFae4cI9wPQ3BiWMhKBmCJgNxkLd+TMjW7ic02Q1rPIsHEFHIR2gs5NgFJGIhAqAgrWWFnTdWESTwQZbS0mVhF5SQQSiQADC2uaKb7tubo8EaS1ijSM5WAsc2VdCkkE4oQAYYWlmud5CckzQeY+2X+wM925SzaM9AKzlI0BAmVlt3LktudsEkXaXV+eCSIsF+ziyQz6lmsvUlAi0GEECHxKVatc5TUMXwRpkaTR90Nmfo9Xh1JeItBuBIjoR1W1/F4/fn0TZI7d/xoFjjiWK1/7+kFe6rQLAduBcsR2bdN9fhz6JsjoA7ssdOYHdanTPgQIX7ZU8/N+HQYiSKsCue3cDaJD/QYg9SQCkSHA/EBDU474G5V3+vURiCCtVaRePBFEe4v9+g1E6kkEQkeA+SQrVxG95H1fgQnSIoltXAHIL+y+R0EqRoHAGktz/8V8ogBCIch8nj+t0Zh+CwNvjCJTaVMi4AUBAn6pqruP3UJbhrzojScbCkGE4bxdXEigWwA8P2hQUl8iEACBRxl8bE2rhLIlKjSCiIQKtvEhBjx/jAkAhlSVCIxBgICTq5p5dViwhEqQkYd2YwUIU57UCisBaUcisBcBxkorZ4a6TzB0goySZD0Ib5dDJxFoGwKMm6ycuShsf5EQpMDFHrbpVhDmhx2wtCcROAABxhbS+JgqjbRuDvOKhCCth/Zh43hycH2YwUpbEoHxEGAF765lzRuiQCcygrRutYaKp0Gh1VEELm1KBFoIOHy6Na0i2pdHckVKkNZK0jAuJJaF5yIZvS43yoSLaqp5QZQwRE6Q1kpiG+sAfCTKRKTtrkPgSkszl0SddVsIMrqS3ESMt0WdkLSffgSY8NOaarblLWnbCDK6kojD8q9K/xDKDCNE4PeWZi6I0P4Y020lSIskDcMCI9+uBKWfFCFAqFmqqbczo7YTZHQl4XYmKX2lAwFLM9s+X9vucM9Q6baxGUBPOoZOZhExAoOWZvZG7GNc8x0jyOjtluzX14lRT5JPwnpLNd/RqZA7SpDW2y3bWEXA2Z0CQPqNLwIMXFrTzHM6GWHHCTKykhTPA9PFnQRC+o4ZAsSfsdTK8k5HFQuCjDy4F08D5LaUTk+IePjn0y0tuu0jXnKMDUFE0AW7eAqDvuklASmbLgQI/OGqVolN1c5YEaT1TCJ2ATexSm6VT9fEnzIbxhbO4JyoduVO6X8CgdgRpLWSjJwnESRpy3YCv+BJvZAQYNxEGp8TxXmOoBHGkiB7kpLHd4MObwL0IzgmG2bWsSbIyHNJqxDEJbJaSpjDHgtbjxKwNMwCC1FkFXuCtJ5L7OJCBXSJrLsVxRRov01Rt8oBLw2rNE+UGSSCIAIAUZzObkwXK4nskRjljIje9hpN3b00jKJu0YcKJIYgzzyXFE8EsEwWzG7H9AjRB/MDAFYErZUbYkSuTCWOICKrVlX5YT53tFei7E/iaqg7JmSDsKKRpZVBqqx3KvpEEmQPWKKJT4Z4mex01anpM7lf0dmpybTCb/OaOGSVaILsAXC0Z6Ko5tgXB1BlDCgTeKWfnoBxwy4VBBGgtrrvznD23HbFDefuiYewQtmlrPTaTTauAKWGIHsAztvGAlKwBA5Ksn9i26adDQVr2cG6mmaKugOpuVJHkD0jM7tuDGQJJSYsAWNmakYsTokQdhJj3TBj7Y6cuTFOoYUVS2oJsvf5ZKjYw0QliFWFcXBYwHW1HcLjcLCOmNdWp4VfDzdO2KaeIHvfeHFxPtlUImrdes2O0yAkKJYdzFjLGq/dTpUtCYrbd6hdQ5A9CM3jXn24oZxAgDjnfJRv5LpL8U4GbsyqznVbabPVTal3HUH2HdyC3X8oyFnEDNFX4nXdNPAuct1AhPVgZX1V2yS+gnfl1dUE2XfE9V29hyOTWUTEixgY6MbZQMBGZlqPZnO9NWPzPd2Iwf45S4KMMwv0RvFoYjqOgSMAvDrlE+W3BNzNxDdbauW2lOfqOT1JkCkgmzvU/9Km4rwJwJHEOBKEF3tGOU4KjD8z4a6nn7/uyjjKL7ZN2/SnOIUXt1gkQTyOyBzu71MazTcT0T8x480AnuvRRLvF/06EnzHzzx0187PttKnc7gCS7E8SJODo6bsG5pHq9IC5B4QeOOhl8S9wSEDTXtUfIsYgFGyG+JdokBvKoDVj41avhqT8MwhIgkQ1G/iETB5mD9nNXigt4jwPhJlPHx+eRYSZYMwCMJMw8jfx2+jfxCmdp8DY+fSR1KcY2AnxH+EpHv2b+A0KHoODQdYym2swBkHXNaNKpZvt/j+GqAAuK1pePwAAAABJRU5ErkJggg==;" vertex="1" parent="1">
          <mxGeometry x="359.5" y="670" width="60" height="60" as="geometry" />
        </mxCell>
        <mxCell id="h754bVSyxSi2Pqq50tC0-6" value="&quot;My name is Bob&quot;" style="text;html=1;align=center;verticalAlign=middle;whiteSpace=wrap;rounded=0;fontFamily=Times New Roman;fontStyle=1" vertex="1" parent="1">
          <mxGeometry x="249.5" y="685" width="100.5" height="30" as="geometry" />
        </mxCell>
        <mxCell id="h754bVSyxSi2Pqq50tC0-7" value="&quot;Buy bitcoin&quot;" style="text;html=1;align=center;verticalAlign=middle;whiteSpace=wrap;rounded=0;fontFamily=Times New Roman;fontStyle=1" vertex="1" parent="1">
          <mxGeometry x="249.5" y="585" width="100.5" height="30" as="geometry" />
        </mxCell>
        <mxCell id="h754bVSyxSi2Pqq50tC0-10" value="" style="endArrow=classic;html=1;rounded=0;" edge="1" parent="1">
          <mxGeometry width="50" height="50" relative="1" as="geometry">
            <mxPoint x="-200.5" y="650" as="sourcePoint" />
            <mxPoint x="-140.5" y="650" as="targetPoint" />
          </mxGeometry>
        </mxCell>
        <mxCell id="h754bVSyxSi2Pqq50tC0-12" value="" style="endArrow=none;html=1;rounded=0;exitX=1;exitY=0.5;exitDx=0;exitDy=0;exitPerimeter=0;" edge="1" parent="1">
          <mxGeometry width="50" height="50" relative="1" as="geometry">
            <mxPoint x="40.25" y="650" as="sourcePoint" />
            <mxPoint x="139.5" y="650" as="targetPoint" />
          </mxGeometry>
        </mxCell>
        <mxCell id="h754bVSyxSi2Pqq50tC0-13" value="" style="endArrow=none;html=1;rounded=0;" edge="1" parent="1">
          <mxGeometry width="50" height="50" relative="1" as="geometry">
            <mxPoint x="139.5" y="700" as="sourcePoint" />
            <mxPoint x="139.5" y="600" as="targetPoint" />
          </mxGeometry>
        </mxCell>
        <mxCell id="h754bVSyxSi2Pqq50tC0-14" value="" style="endArrow=classic;html=1;rounded=0;" edge="1" parent="1">
          <mxGeometry width="50" height="50" relative="1" as="geometry">
            <mxPoint x="139.5" y="600" as="sourcePoint" />
            <mxPoint x="179.5" y="600" as="targetPoint" />
          </mxGeometry>
        </mxCell>
        <mxCell id="h754bVSyxSi2Pqq50tC0-15" value="" style="endArrow=classic;html=1;rounded=0;" edge="1" parent="1">
          <mxGeometry width="50" height="50" relative="1" as="geometry">
            <mxPoint x="139.5" y="699.66" as="sourcePoint" />
            <mxPoint x="179.5" y="700" as="targetPoint" />
          </mxGeometry>
        </mxCell>
        <mxCell id="h754bVSyxSi2Pqq50tC0-17" value="攻击者" style="text;html=1;align=center;verticalAlign=middle;whiteSpace=wrap;rounded=0;fontStyle=1" vertex="1" parent="1">
          <mxGeometry x="-260.5" y="680" width="60" height="30" as="geometry" />
        </mxCell>
        <mxCell id="h754bVSyxSi2Pqq50tC0-18" value="收听者" style="text;html=1;align=center;verticalAlign=middle;whiteSpace=wrap;rounded=0;fontStyle=1" vertex="1" parent="1">
          <mxGeometry x="178" y="730" width="60" height="30" as="geometry" />
        </mxCell>
        <mxCell id="h754bVSyxSi2Pqq50tC0-19" value="对抗样本" style="text;html=1;align=center;verticalAlign=middle;whiteSpace=wrap;rounded=0;fontStyle=1" vertex="1" parent="1">
          <mxGeometry x="-20" y="680" width="60" height="30" as="geometry" />
        </mxCell>
        <mxCell id="h754bVSyxSi2Pqq50tC0-21" value="ASR" style="text;html=1;align=center;verticalAlign=middle;whiteSpace=wrap;rounded=0;fontStyle=1" vertex="1" parent="1">
          <mxGeometry x="178" y="540" width="60" height="30" as="geometry" />
        </mxCell>
        <mxCell id="h754bVSyxSi2Pqq50tC0-26" value="&lt;b&gt;信道传输&lt;/b&gt;" style="text;html=1;align=center;verticalAlign=middle;whiteSpace=wrap;rounded=0;" vertex="1" parent="1">
          <mxGeometry x="60" y="620" width="60" height="30" as="geometry" />
        </mxCell>
        <mxCell id="h754bVSyxSi2Pqq50tC0-27" value="" style="shape=image;verticalLabelPosition=bottom;labelBackgroundColor=default;verticalAlign=top;aspect=fixed;imageAspect=0;image=data:image/png,iVBORw0KGgoAAAANSUhEUgAAAMgAAADICAYAAACtWK6eAAAAAXNSR0IArs4c6QAAAARnQU1BAACxjwv8YQUAAAAJcEhZcwAADsMAAA7DAcdvqGQAABAeSURBVHhe7d0LVNRVHgfw8AUJKqQiKCQa5WILspiMjwMqxiPMFyW5sfkiM3XXHm6ipel2dlsfqfk4kkqsmmCIrshJXFJE8wFiuC1zVlEQFQWRRyoIWGbu/+f+bNUdLzPDMMzc//dzzhzu7w566siXe+9//v97be7cufMYAOjWgr8CgA4ICIAAAgIggIAACCAgAAIICIAAAgIggIAACCAgAAIICIAAAgIggIAACCAgAAIICIAAAgIggIAACCAgAAIICIAAAgIggIAACCAgAAIICIAAAgIggIAACCAgAAIICIAAAgIggIAACCAgAAIICIAAAgIggIAACCAgAAIICIAAAgIggIAACOAQTxOrq6tzKCoq8qqvr7fnLp3at29/tVu3buccHByquQssEAJipKtXr3amIDz8Kisrc+dv0Yujo2OVq6vreTc3t3P0otDQa+DAgXtbtGhxm78NmgkCYgCtVqs5cODAiH379kVQGLi7SbRs2fLWiy++mBAQELBnwIABe2nE4bfAjBAQAZomZWdnD8vJyQnav3//qNLSUg9+y6yUUaYiLCwsOSQkJLlfv34HuBvMAAHR4eTJk32Tk5PfyMjIGK1MpZy52yJQQEaOHLl59OjRf+MuaEIIyH3uBWP79u1vcJfFCg4O3hEdHb3o2Wef/Za7oAkgIAprCsb9bG1tb06ePHnx9OnTF3IXmJiqA3L79u1WS5YsWZaYmDiTu6xSUFDQzpUrV0ZwCSak2oAo64sxK1asWHThwoVnuMuqubu7n01LS/PkEkxElQGZP39+fEpKyiQupeHs7HxJCb5Bn8OAmOpuNQkICKiUMRykvLzcbePGjX/kEkxAVSNIVFRUdl5enoZLaaWmpnr16NEjn0toBNWMILGxsQvUEA4SExOTwE1oJFUEJCkpadratWtVcyn01KlTfnFxcXO5hEaQfoqVmZk5cubMmbu4VBUlJM9rNJoMLsEI0o8gCQkJVv0ZR2OsXLny49ra2nZcghGkDsiOHTteP3bs2DAuVUer1fpv2rRpFpdgBGkDQnfibtmy5S0uVUv5JTGloqLClUswkLQBoXAUFhb+mkvVKi8v72pt95hZEmkDsnPnzsncVD0KCEYR40gZELpydfHixae4VD0aRZKTk6dyCQaQMiAHDx4cwU1gWIsYR9aAvMhNYBhFjCNdQOgZ8srKShcu4T40ilRXVztxCXqQLiBHjhwJ4yY8hEaRrKysYC5BD9IF5MyZMz7cBB0QEMNIF5D8/Pw+3AQdEBDDSBWQqqqqLt9//30XLkGH0tLS7sePHx/CJTRAqoCcPn0ao4cevvnmm+HchAZIFRCsP/Rz+PDhUG5CA6QKyLVr1zpyEwQKCwu9L1261JNLEJAqIPX19W25CQ3ANEs/UgXk5s2bwjM54H8wHdWPbAHBCKKn4uJibDKnB0yxAAQQEAABqQJiZ2dXz00Ak5AqIK6ursXcBDAJqQLi4uJykZvQgKtXr+IzIz1gBFGpysrKrtwEAYwgKkV3HeDJy4ZhBFExbAfUMIwgKkZnvqelpb3KJeggVUCIRqPZz03Qw4YNG+bW1NQ4cgkPkS4g/v7+CIgBaPfJuLi4OVzCQ6QLiJ+f32Fugp7i4+NjcnNzA7mE+0gXEG9v72Nt2rTBJ+oGwiiim3QBocP1sQ4x3OHDh1/48ssvZ3AJTLqAEB8fnxxuggHWr18/t6SkpAeXoJAyIDTN4iYYoKKiohumWg+SMiCDBg1K9/LyyuUSDEAfHtLnI1yqnpQBIaGhodu5CQYy17mO9CFlRETEv7i0SNIGJDg4eHvr1q1/5BIMkJ2d/XxKSspELk3q3Llzv/r000//OnTo0Mt0nntBQYGPJe/2KG1AnnzyyUIlJDu4BAMpo4hJz3f8+uuvx06fPv2rkSNHnvr888/n3L8D/65duyZw0+JIGxBCowg3wUD5+fm+jR1FaO+tNWvWfBQSEnJh1qxZ2w4dOqRzq6Hdu3dHWeqRFTZ37tzhppzGjBmjxWGexunatev59PR0gy/7ZmZmjqJw7d+/fzR3Nejtt9+eGx0dvYhLiyH1CEIwzTJeaWmpBzcbdOXKFbd169bNCw8PL5w5c2aKIeEgO3fubJI1T2NJP4Lk5eVpoqKisrkEA2m1Whtu6qRMm8KV0WKCssaI5C69derUqWzUqFEbldemHj165HO3RZE+IIQCQkHhEvSkjAaJixcvjuLyF3TMhLKwnkiL66KiIi/u1lv//v33KlPfjfT3c5fFUkVAYmNjF6xdu3Yhl6AH+qB127Ztz3H5ALoiRYtuLvXSoUOH72m0GD169Mann35ay90WTxUBod9yyj/OSS7hEZydnS/5+vpmDR48mC7HbuZunZS1XXFZWZk7l4/Ut2/fgzRaUDi4y6qoIiAE06yGKYvrD6ZMmfIxl0J0+VZZlM/n8gH29vY1SsA20WjRu3dvq77lR/qrWPeEhoYaNCVQIzs7uzpuNoh++Ln5C2X0ObpgwYKpysK90/vvv/8Haw8HUU1Ahg8fnsBNeITHH3+8lpsNcnNzKwoKCkqh9tixY9dt2bJl4BdffDHo5ZdfXi/TLT6qCUjHjh2vdO7cuYRL0KFt27Y3uKmXl156KS4nJ8fhww8/fLNPnz5Z3C0V1QSEeHh4FHATdDA0IIGBgbsNGXWskaoCQjcwchN0MDQgaqCaq1gkPj5+9ooVKxZzqSo2NjZ36JNrmmrS6177/j6NRpPB3y6k1Wr9jxw5EsZlk+rVq9d3Q4cOTeXS7FQVkH379kW88847qrg3y97e/voLL7yQpLy+9Pf3z+Ruk6CAvPrqq2Z5rHnVqlWjmjMgmGJJqra2tgM9Pvv6669nzJ49eyvdYctvgQFUFZDu3burbpGuzBBs9uzZM47usKUHltLS0n7Lb4EeVBUQW1tbVW8oRw8sxcTEJE6YMOGblJSUSdwNAqoKCPzXiRMnAubPnx8fGRn5LXfBI6hqkU68vb3V9T/cgGnTpv1JmXoZdKczLdL1uVHRFFq1anULV7HMCAF5kDEBURNMsVSMPhgcOHDg11yCDgiIiq1Zs2YE3YHLpcHoicJTp075cSklVQWkvr7enpug+OGHH+y4aRR67FZZ6OdOnjw505L3tmoMVQXk7NmzvbkJitTUVKN/qGnkOH78+BBq09d58+ZtDAgIqPxEUVBQ4H33mySgqoAUFhY+y01Q0AeIxo4iujaVo6OlN23aNCsiIiJv6tSp6bt377b6A0JVFZCioiKMIA+haRI39fbTTz+1bujPHT16NGTOnDkJQUFBpbQX7/nz53vxW1YFI4jK0V283NQbjR61tbXtuBSqqKhwpb14R4wYkU+3uuzdu/dlfssqqOpzkNDQ0HOG7BaoBmlpaZ7u7u5nudRbRkbGGBpFMjMzR3KX3lxdXYvvbQHUrVu3c9xtkVQTEJof0yKSS1DQc/qLFi36HZdGKS4u9qTFPm0dWl5e7sbdelOmYDtpW6AhQ4Y026flIqoJCN2cR/cfcal6tJGbsqAOeOqpp0y2X1h6enokTb/oQFDu0puPj8+xhISE/lxaDNWsQYyZCsiKniJURo4oU4aD0NZKsbGx4crUq3d0dPTiJ554Qu/1De2jxU2LoooR5Pr1608EBgaW//zzzy25S5U8PT3/rfymzh43btxaLy+vE9zdpOjsDxpV6NQq7vo/tra2dcqo08nOzs7iHkdQRUDoH2nOnDlbuJROixYtfnJxcSlxdna++1Lal+61u3Tp8kt/mzZtfuA/YnZnzpzxoU/baWFPv7C4+65XXnkldt68edO5tCiqCAiFg0LCpRSUBfaWyMjIdcoPfmlz//AbikJCi/rc3NzBVCcmJmq8vb0t8mx76QOSl5fXPyoqSqpNzZYtWxYZEhKSzKXVOnnyZF8aVebOnWuWU3WNIX1AlNHjC2X0aNSlTEsiSzishdQBoYXhlClT9nJp9RwcHKqzsrI6cAlmIPVl3q1bt87gphToChQ3wUykDcjmzZvfNfQgSUvXuXPnUm6CmUgZEHo+YenSpcu4lIYSkMvcBDORMiBvvfXW37kpFbqky00wE+kC8tprrx2pqalx4lIqnTp1wghiZtIEhG5j12g0Nd99991A7pKOqe+dgoZJERDatZ2e9airq3PgLul4eXn9s2fPnqe4BDOx+oCsXr36z2o40kD5BZDETTAjqw5Iamrq+PXr13/ApdSwwVvzsOqA0GH3b7755kdcSsvb2/sYTbG4BDOy+inWjBkzFoSHhydyKaWoqKhV3AQzk+ZeLOWHKDsvL0/DpTSCg4O3L1++fCyXYGZSXMUi9Dyzo6NjFZdSsLGxuT1x4sRPuIRmIE1ASHJy8m+4KYVJkyZ9QpsZcAnNQKqAuLi4XKSdOri0esOGDUvhJjQTqQJC/Pz8DtMjnFxaNScnpwpuQjORLiCEnm9W1iQDuLRauHu3+UkZEEIPF8XHxw/l0urQ6U92dnZ1XEIzkTYgpF+/fgc+++yzMC6tiqOjI7ZJtQBSB4QMGjQoffXq1aO4tBodO3Ys5yY0o5YLF8p/wKmHh8fpXr165dE2Mw9vWmapysvLu9F/a0BAwD+4C5qBKjaOu6ekpKTHsmXLlljTGRVhYWFJS5cuHcclmJmqAnLPhg0b3l+1atVfuLR4tJay5gsO1kyVASGHDh0KX758+RJrOXVq8ODBX9GxzVyCmahiDaJL9+7dC4KCglKqqqpcCgoKfLjbYl24cOEZT0/Pk3js1rxUO4Lcb+vWrb+Pi4uLMeaEJHNLSkp6rnfv3rlcQhNDQFhpaWl3ZZ4fo/wATuMui+Tj45MVGxs7vH379le5C5qQaqdYD2vXrt31wMDA3coPYE5ZWZnb5cuXLfKwzytXrrhXV1c7DRky5CvugiaEEeQR6EB8mnZdu3atM3dZFEy1zAMjyCP4+vpmDRs2bNetW7faFBYWet++fbsVv2UxMIo0PYwgeigqKvKiU3LpVCRLGlEwijQ9jCB6cHJyqhwwYMDe4cOHb6XFcUlJiYelbG+KUaRpYQQxwo0bN9rTOXs0quTn5/tyt9nRMct79uzxpFvjuQtMDAFppJycnKF03AJ9PXHihNkf96VP1+lTdi7BxBAQE6qqqupy9OjRkKysrGA6/q2iosKV32oy48ePX/7ee+/N4hJMDAFpQnQ2uFar9T99+nQf5eVL0zFTb7BNOy5u27bNj0swMQTEzIqLiz0pKEp4+tBXZZRxqa2t7XD9+nVH+kqXlflbdaK9sugwz3bt2lUra4+7X999993Zvr6+R/lbwIQQEAtz8+bNtjU1NR2Ul+ONGzc6KP8+NrQIV1419vb2d1+tW7f+kb8dmhgCAiAg/TPpAI2BgAAIICAAAggIgAACAiCAgAAIICAAAggIgAACAiCAgAAIICAAAggIgAACAiCAgAAIICAAAggIgAACAiCAgAAIICAAAggIgAACAiCAgAAIICAAAggIgAACAiCAgAAIICAAAggIgAACAiCAgAAIICAAAggIwCM99th/AAVsSRuJkkdCAAAAAElFTkSuQmCC;" vertex="1" parent="1">
          <mxGeometry x="-260.5" y="620" width="60" height="60" as="geometry" />
        </mxCell>
        <mxCell id="h754bVSyxSi2Pqq50tC0-30" style="edgeStyle=orthogonalEdgeStyle;rounded=0;orthogonalLoop=1;jettySize=auto;html=1;exitX=1;exitY=0.5;exitDx=0;exitDy=0;entryX=0;entryY=0.5;entryDx=0;entryDy=0;" edge="1" parent="1" source="h754bVSyxSi2Pqq50tC0-28">
          <mxGeometry relative="1" as="geometry">
            <mxPoint x="-20" y="650" as="targetPoint" />
          </mxGeometry>
        </mxCell>
        <mxCell id="h754bVSyxSi2Pqq50tC0-28" value="" style="shape=image;verticalLabelPosition=bottom;labelBackgroundColor=default;verticalAlign=top;aspect=fixed;imageAspect=0;image=data:image/png,iVBORw0KGgoAAAANSUhEUgAAAMgAAADICAYAAACtWK6eAAAAAXNSR0IArs4c6QAAHw9JREFUeF7tnQn4fkVVx4+WprilqSiLpZZmKmJZKi65o6VZam5lRbYgKmqipoAk5K6IIpptamWZLSruWhAaJpZCpLiUmKkFkRblklt6PzJD9//+3/e9Z2bOzJ2575zneZ8fPP9Zz73fOzNnzvmey0gdci0ROVREvl9EDnC/A93fT4nIJ0WEv/zeLyJvE5GL6hh6H8WSNXCZGSf3AyJyLxG5u4jcMWIc7xSRd4jIW0TkfRH1e5WugUkNzAEQgPFL7jc5QGWB3xQRfh0oSoX1YjoNlATI94nIY4yBsTpLQPJCETlPN/1eqmtguwZKAQRwvEZEblrggXxwAMgDO0gKaHoHuigBEMBxjohcrqA+vyIiB3eQFNT4QrvKDZBDhkP4mTPq7nYi8u4Z++9dN66BnAA5SET+vgL93EJEzq1gHH0IDWogF0CuKyIfEJFrVKCTz4rIzUTk3yoYSx9CYxrIARDOGqeJyO0r0sVfi8hdRISzSZeuAbUGcgDkBBE5Rj2CcgWfIyJPKtdd72kJGrAGyPcMt+NnDXcRV69UOaxqcxoNKlVLH9YmDVgD5CR3GVirxk8VkfvWOrg+rvo0YAkQHA3fKyLfUt809xjRw0XkdysfYx9eJRqwBMivichxlcxr2zBeO5h979fAOPsQK9CAJUDOdrfXFUxr6xD+V0Rwr/9c7QPt45tfA1YAubWIvGf+6ahHcG8ReZO6dC+4sxqwAsgLROSxDWnxN0TkEQ2Ntw91Jg1YAYQ4DA7prQhRicSldOka2KoBK4BcICL7NqTrC0XkOg2Ntw91Jg1YAASz7ldnGn9Kt98qIl9LaaDXXb4GLAByPRH5RIOq+k4R+ZcGx92HXFADFgC5baMxF8Sq/E1BXfeuGtSABUCIGCTMtTXBqMDdTZeugY0asADIVUXk4gZ1zNYQvq0uXQNZAULjAASgtCRXEpEvtDTgPtbyGrBYQRg10YMlGEusNIRR4busGuvtLFcDVgD5IxF5cENq+gMReVhD4+1DnUkDVgCBQvTNM80hpttfdkyMMXV7nR3SgBVAUBmkCK3cTr/BAeSNO/Ss+1QjNGAJkBeJyKMjxjB3ldc7sLS0As6ts53p3xIgrW2z1j1kgqng933rzrwBfaJbNWAJEDr6k8Gi9YCF6PzPHFjevpD59GlEaMAaIHcSkdMjxlF7lT8VkZcNXF9/UftA+/hsNWANEEYHIcJhtsOsqjVY6gEL5HhdFq6BHACBC5cv7TUXrjum92oHlr/agbnu5BRzAARF/uIO3jP8oQMLqeG6LEQDuQCCek4WkUctRE+h0+CmHmvYu0Ir9vJ1aSAnQJgpFiCSdNYqXG7CRJ9Tfs+BpVOe5tRyprZzA4RhP11EnpJp/BbNHi0ilx88AXA/ye0J8AoHlh6oZfHkCrRRAiClzyRfEpGnisjhInJ9pQ5JLoonwH4OKIAlNwkF1j62YZB9d6lUA6UAwvQfJCJPyEy3QyYpVgR8rG7lHChhUdTIL4jI74wK7j8Cy7U1DSSU+W0Hlr9NaKNXzaCBkgDxw/c50i15qQjYwopEbpJxJikuLvGxuqJCdwRPQWyN6XZVDhiBRQs4RZdri/Sc77Gay1BvDoCMgXIfd4j/tsi5/YMDBuDYxFACzSjeuxqBL4uVZJuX74EjsOS86/m6W1W4lFxq7DxnPnLK3MjxJX9q0D8/QqH5y3Z5VpkTIH7ihOoe6n63HLY5vIDbvtJcyp0hIvzVXtARzEVQl0Y+5u5xNC4zxLVzXuH3HZrGI8vA38XKAlhqSIwaMw2e80+5LTaAABhTRhGeL/59/C6K6TS1Tg0AWTcHVhS2NYDlv1Z+sXMOubzkJaR8yJkAni0PlpzJSyHpAyj8WEFrl5s4YACO2DBnVpLXiQgm86JhCbUCJNdDf9xALnGisnHyqwOS85Tlx8V4ETxYcqaj+/IILLVRL91tBAwSu1rJHw9uTC8WERKzZpddAwgKPVZEjldqlotOjAopzJGYmj1Yvl3Zb0wx8p74leVDMQ0Y1nm+iPyKYXvrmvotEXn88PufnP3sIkDQ57MHyp8nKhVLEBUryWeU5bcVu8EILFczaG9TE1jkPFg+krGf1ab5AJBaApN+CeGMwsfno7k621WAoM9TROQIpWLxrQIkfKWt5IYjsOTkFCOTFmDhkJ/tRRIRGDa5R7qNlYIC2rlzgMEmoFmRXQYIiuLQp6X/yZl0B4sOWzm+hlcJeoJhhf97BJZ/Cqu6tfQ9ReTlCquUYZd7NcUF8TOsO9h1gKDPPx9Mpz+hVCx766OUZWOLYQL1YLlybCOKelgH/cpyvqL8piIHua93TmOEdnjmdE4dIJfcssNsovU6ftrwtMjoW0JuPAILVKm55LOje5Z/DuykNh6C+w7Zzk4NnMPG4h0gl6iGi0lAQioHjXDAf66moGGZ7x2BZR/Ddleb+o8RWKbyp/DFZutZk3DRe4cVl6Po8XWA/L/qMMcCkpsrtflIEXmJsqx1MS7f/DZM42cW2z+3194ahuvHWL7bcTLHugnFjklTz2yV7wDZU903c35b2hvfn3UHfc1Dy1UG65EHyxVydTJkBcZPzYPlX52e8HOrURgf3txjx9WocXaA7K02zJQ4N2ocEfGRwuYPh1YNAsO+B0vOL3uJSMxUfZqsIh0g6x8DbhKARPNFxhqEM+TbUp+ocX1WQw8WIiZ3TVhF+GDwfKKlA2Sz6rCG4CCnEfbnDynlH6QZ0EoZzlUeLJZ+URFDKVol2aLVAbL9eeGByi26Rj483FQ/tIHYDe4tPFhIhb1kSb636gCZfj1CTJl/50Dyj9PNVlECkj8PFvLdL03wFsBLIVo6QHSqwzOVr5FGcKBj5WEP3JIcPALLZVsa+MRY2V6SIjBKOkD0aoMpBcuIRjjg//Tg8o3vU4tCZKdfWVp/Rx7oIhKjnkPrk4+adEKl5zhmFk0ThPjiCIkpuGUhn7wHS4vzYPV/QezAO0DCNcft+SOU1Qjq4eVaiuCDdlxjkwEc0cFbHSBxT/v33RZKUzvpAWk6KFimRYDgTMk2K0o6QKLUJtxSw5/148rq8HVxhmldnpwj5iKzUrjAJV4lSjpAotT2zUowl0AgwK27RubwANaMK6TMz7nAqJA6c5clyhGusyjpAIlS26WV4MUCJNowU0J8X5rW5ay1+RK/ZdYRhHee5JPVARKu8NUaeNMCEnyfNPIzIsIZpiXxliwMDq29M6ucy0F6b22yQZMrWPgHna0d8jiN3E9EYEupWbhlx4sAULR8y86qF+1I2gFi94rCrIHFRENBCjsKvMS1Zc3l1tmDYilOjURffjH2MXeAxGpufT0CiEgZrYnFIFrvxwYLy3tshxDcGi7hHhSacQd3MGMFSMj5EEVLB0i06jZWDCHK/rgDSbSvUOTwS4XsRg7PrNqRLldmdIMdINGq21qRgyG36BqBgJq4BcCSU0oxpOScQ2jbOGAmseF3gISqXF+etG4nKYuTsxCQWFP8lyKkU06zaDEcRtnCJkkHSJL6JivD9vfrk6UuKfAOdzMPr26KQGnqnQtz8v+mjLFEXc4e2xIhqcbQAaJSU1KhZw6cvr+qbAGWx/sry46LQVnkQZGT4fD/hrwt5FPkhwMg560axWT1YGIdIGUeLxl0H63sCr5g6ISmpFR2KxL2cJ4CFO93g+K/yedYq5isHjUCBJZzn1nK/4UW8z/dD7qZ99X6VCbGRdrnw5Rjx6UeYrpVKZVMlIxOfqU4Z2UQIWBXTte02CbdRXUy9wqC3d3nJ+Qv++cp4dKH1GjEf3MxN/c9wtR4/b9DkECy0Z9UViA460kFc7ejV0DBCoZu10nIdlE5TdNihDtzYWsmcwGEFNDsmWFVT02rjNv5KweHwbeaaSVfQxyaAcmPKLvITdD2eQcKfMmwpG2TY1yabeXQixfDAmiez740QDwwckTZvcLFjIeyk5d+kvs7kNyxdMeuP1KWsVLAQ0y2YI2E5HbUtGddhvyMWmfRoL5LAoSgIb5COQVw4N4MWGoWLu1YSfCSLSGwC3IGwlU91P+LjxmcvBoh3RtzKylJ7uxTAy0FEC7MuDgrJc8aktAT/VabkD2K7ZX/afh/Y+eAceNVDhSxMRwws2hd89kO4jmLwyO6x8crt5gnzFkdcAmAYHUq9aUczw93ctzK5xYMEQDiXoNx4UfdoTvXmMjtgbMkgCCfOCbaWOF8+JrholPDvkgeRObnUzPDjg+5AxGIOYQEORgxzszR+LjN3ACBFypnzj2NfnLPcdMY/CrBi7afZqCRZf7d3RgDCH7Rrt2j/gkjhrFem1yUua5bpe7qmCahZNUQgU+pgC0cwGC7WERyvjzsdVHQ3MIKRq6IEsJ8eVm4Yc4JClYKv0rw92LDyRE+zI3+dZVtMlesYNsEnzDYJn94yGd4J2W7vhiuN7jh8KMf5l5McgGEbKM1nQFIgcx+NYfc3oGC2++coBiPnRttvsrWOdCxBLE1JXuURjjAa72WfXvkUgcktx6MKWzF/A8XGVjyP+n+8t/vEpG3J24VNfPYWCYHQLjmN0uimDS7PSuT6IY9tYX8kAMFudNLgWJ13Lw8gGQ1NVrs/HhRSfdAqK1GHj9swU7UFGy5TA6AEP97jwqVwu37IQlfI14czhO5QQHptRZ0XI4CElxxUoQwYRz8tElMs5pWUyZiXdcaICH5NKznomkPr9pnawq6MmSWZY+dGxRkk+Xyju3KBcOBFjM1biYa4TANSL6sKbymDFY23MK1/F5LYoqcVJk1QN4d8BWaHFyGAp9wdnpukzfJDUQEap7coDjfgQJiMyxRq3LycCB9lFIHWg/gdc2xrSJYSyOAGL3sjFgCpPbVwz/UdQdL3D948LlB8VEHCm7RP614y0I8gMlXriXV9l1zkcjqoxHOb5zjdkosAUKqMkBSu+COQoARZkwsW7lBcZ4DBdahGD8xTJta8mUOzRyeNQKgtJY9zjqcv6Ar2imxAgg8tZ9pSHMhB+GYaUHEwHmCFys1HRsZarmX4BZeI4T4HjtR8HkBQOK2GnBYx8tr5jJ7GSuAtEhqbK38s0WE88TpwxefVcNSuCMAJNpLtqcM3FzEbqyTkBQGAB1wfMxyMi21ZQUQXgrtw2tJP1NjxXTMeYL5J9HLTHXkIi0BCTSnGsE5lOi/sRwlIs/VVB6iHzFokN5hNaJQWX0ZxawAQjZRTTTgErRGYBHnCUCxKfIu1zwxO2PWhTBbI5yvsDwhIdl68QRm5XinppMll7ECCIe3pdFWjp87t9acJwDFVORd7veFoDNWEkgbNILhhOeszfeOBzArx5s0jS+9jAVACJldZ8dvXXdE2xHjfFqFX1KiEQGJhig79Dlg9iUBaRcj2h9iPVplGll9CbjoZJXwP3igahW8htluWbiR+zlmD0CqVZmbxmWxgrQOEA7aY1BAedOKwJBi5YD5BBHB/NtlpAELgOzr/IdaUixnJlKheWAQEdeqWJjYj28wvXOR52UBEAbKwa6lLEQfHoJvSAGwFMFnC9+tGIEvANaSLms0YAUQbOZaq0oNDwKLFDHUSxK8f/ECDpGkDLAhHbVa1gogtXvxrj6fGMe+2p8xdyScR2AV0QislFofL017iyxjBRDiLDa5NtSoOKxu+Erxq9lSpdUdyUMBB5GOIQJ/mJYvOKTdxZS1AggxzKlOeXMpFRcRD5bYoKO5xk6/0G0CDggRYuTFAczzMe03XccKICgBdg2Iw1oWKCw9WFIT2ZTQw5UdOFLPU0RZanOYlJhXNX1YAoT8F6vOcdVMNGIgMIZ4sMDvVZtgNWTlsCLHw0Vemw2rNl1kG48lQLgPeW9j1iytYnH39mDBka8GyRGgRtYoYs67OA1YAoQmuY2F+W7JQlQgHrJwbc0VRARYyaSrEcJ8ec6Qt2kkhutK026TZawBss9wv3BWLir6CjUMJ5UHC+TNJSQkwxNsKWR65TlDS6plS8QDmDiXnRdrgKDQw50bR23KzR1mC12P34bBDphDOEw/Udnwhc5t3WfgggESkGi4kr/u6tZIAKicvk2xHABhZC/PyOwdM3NPi8MX1LOXkO8vl8Af68HycaNOQkJlyQfC4R1fs7FgZQQkmueOfxpxIX9pNP4mm9EoKnZiHNi14aGxfWjqwWNLkNGqXMft4wFMTjcZWA89KVzsXVGIGwns7g9wQFinH/6NW3SNsCoCErbNOyk5AYJC+QpdaUbNcvFHXsApuhpWE08WB0dtLoGwzqdU/pCykyNF5IXKsngF4D5CnMg2CfEAxoIHSD6gHMOiiuUGCMpii5Hzpdv2QMhyFMowAmcWBGmsLLAs5hK+9B4ssIesE8aAtUwrDwsIrQ3xAMbbAJDE8Hppx15luRIAYeLEN2szu1ooiq/dXQzMsJhGPWG1NiVAzPhZ6fw2zLOIhKQ/o88xQYN2DCE+dDikApK5TNvaOZmWKwUQBs2trzZHeMokod/EW9daYBIB5LyIN7JufNQe2yTAEpIJmNXglMgxcXt+tLIuuTr4YLTghqOc0vZiJQHCSHjo/NYdmlMnREYrkvaUoOI5aJQ0BzfzOcUiT0dIktVacj8W0XlpgPhJWQIFi4z/FVHaSieA3add0/JVWY1zG4NiaB+sWg9XViLzLUaNxctcAPGKvfuQqdT/Dg7QNl63ZHNl2xZ6CA/oJrgoacUAC3cQWRLbj0ZEEhvuNDCnWwi8Zq8MYHBfYtDZXnqcGyDjAWFqhSGFvwe6v/w3lhNCevk7/lm8FDnb4OYaN/R7DxxWbMlyCYdnn9CTO58UgWcLkGiJsmFBwf8uRkgvTb5C/7vcKD9hTHtZ6tQEkCwTrKRReIt9rvScKwtUoR4s50bOnehEQKINwApJx0YWK//bdg71yTzJu05Kv9lu8ztAIt+ihGpsKVlZAMyNE9qZqgpdKr5UbMNCt6HcHwESrTEF/7BNpNh4KcDWyE8bL786N270SQP96i0eAlP6iPr3DpAotZlVwmP2IWatbW4IPmHOa4AF93eNcJ4CJFoQH7HipAqZORY2gIE3g5WQUIgwYVaX7NIBkl3FGzsIiemwHCVmcF58wEKexG1yV1eWFHUaIVc8jqHcRXE2wSshl6A/7n+y8gh0gOR6fNvbJWrvsfN0vUevuJDAjfV6ESF2ZJ2Q4BNAaVcB8ir+fKG54aEBKLNlN+sAKfQkR92E3FyTd4UwWO6NsIblFEznvNzs84mdGQsBVICkRvZMQgtu5Syd5vrpADFX6dYGQ3yfiFDk6w25thf+Hwb2VBaTqVlzTmFlgTfLp7YIScAz1X6OfyclBIYJU+kAMVXn1sZCWF9gUQEM5CfZJPhE8dIemnkKnFNYWfhx4K6ZAR5PBm0YgUptHSAqNSUXYk/OF1kjX3EOgSEZnu7vwIIJOacQSsw8iG6sUbg/ueVweGfbZSIdICZq3NoIAUyYc7X7d2JRUnJ+4DHNyoIFaheFi0UzAsMOkLyvEC4bgOOqym5YaYjntxLABljubNVgI+2kuP/vMcUOkHxPHFcNcv1pqXY4o3ABlku4kAQsWheSXOMo0S75XyDyJsQ5STpAktS3sTIuGoBDS9aGdQtKn1JCtCKm4zuU6nCGfkxCATpA7J8coOAMoXXfP2FIwfBU+2GoWySuA7DcTl2jjYKfdiEHUCBFSwdItOrWVoRKiOAtXN01cqLzV9KULVEGthPActsSnRXoA1N5EvldB4jdU4LeCLod7b3EyxwLpd0IbFvCYMCZJTQpj+0o0lp7/kA9dVRKEx0gKdrbsy4RjtxHaARmdih6WhGIsgELLh0tCa462nPg2nl1gNg8bvyUtDHarZMewNvbkhCDEk161wGS/qhf4ty7NS2RXRduqS9pCldYhhDoXMTcuabLxSmre5R0gESp7dJK5ELRxmSf4cgcaknAEzNzDu/EwLckhBVoqVv3mlcHSPyjPm6oqvVJgnkE0ujWvr6r2uFrnOIGE6/t+JqEAmtTRnSAxOt5j5qEkmq9Wtn/8mJxu9u6PG5wm8E03ZK8SkS4GI2SvoKEqy2EUBpmdPyhyMvesuBThhXrPg1OgpCBaF+0DpCwJ/5g50KiqUVUHvETnD1aFIKyAAWXbS1Lkkm9A0T/6PmKYg25gqIKSXNY1iFGaEm45OQm3Sq1dA1zf5bjbI4aSweITm049XF/AfPglJCshzsRbRanqfZy/ztBVoACI8IS5ZEigik+SjpAptWG0+HrhjgNGAc1cpiL5daUnasMwVSAgmCupUuSP1YHyPbXA/IznN20rO1mgToZ3loOqoCCc9QuyX7DWSo6RXcHyOZX5dqD79EbAxKRbqPfnOuFJDgKUGAs2EUhBXaSZ3KtAIGK37O8w+wOqdnXCj5hDuIcsLXmQS4Njy84vm1d4WqP9Sna9l/JPCyGcayIwEMWLTUAhHhtrCf8YKQg9cG1VmYEOADK+AdHqynFy6hPtlVam3+SlST6ye1Z8RAHCq3DZEq3b3CkCKQrqF1YQWG8j5Y5AcLSz0uIFYUVI1TI5QdI+EGdaSXcvGq3JPj4zEUhehsHCoKccgv6hQvXUxGxnSwZIhwzP9x7IOBOkjkAYpl+zU+em2p8hHhhUzxlyZrE9kQjpGfWltW0pylD8BJ9luC+xawNKMg3siqs+h8ZkqUSQVmreCLtpPGVBAguF3i+anNOxEyMRJ6HD8FIuHiECk5t2uizkjn6CFICFAQt5RYiIgEF3FJTgqMmZ68ahYQ7JOpJllIACfFfSp3U59zWbRtt52ofHOa0h2xu0yFzzkm7Tyo6QBGSCjpWb1xoAgoS1IQIKdTY3ydZiUI6DCiLJwArYLKUAMjTh5cJCpbSos2XzhmCdAQaYQ9OqCyuJNbChSSg4Jf7ubAdZYuYmtoM9xtM4TUJYDf7sOR+ECSez80Xu+3hsH8m1dkmIe0x6Y81crpzIYH/1UpI7ulBoaUmje2btAaAgnlYCof16HgLy4EMnMbkO9HSLam6zgmQk10GINVAMhZiBTtmTfu4WWAB0wgXTliLOJimCkk8PShym0qhPeWLGrLdjJkfZ5caHBy5HjAjrkYRuQBS8syheaBc+I1fEsiN2S5dVlGZrxJWo5QUyzdxxgOAEWPSVgzz0iK4d8Pvy3wxhZcSViay+c4lXJCead15DoDcYiBOw5p0TevBJrT3RRHZx9WHQZCt11UU7ZFIBnDEKJ7kl1jUAMUVFX2lFCEvIMAAFKRPmEueLCLPKNw5CYaIXcmShi0HQEi0gkdrbcINMFstwIED25QQPw44ALtW4GDyoIBILqeQ/YlzBaBIufuxHiNbUUuG+m3jg+wb0u9sYg0QlljrQ6Dl5DlDaNIas48FHIBqSvD49aDQrEpT7W37dz4+7PfRMatirUI6tKMHBpR7ZBogcf6nDBeVXOxmFWuAYFNvPfDm8w4c29g7SG/sQaHN/hr7ILGy4erBSsEdT0tCAlJCAKzSQeO0yqoBOL5QQhGWAGEf2FqI6aqOOdRi+mX7sioETHlQXD3zw8Eciy5ZKchX2LLgGY2FC1rWGEsXQOASkx+XtBeWVIYlQF6Uez9YQDFHiMhLR/3gWexBoQm3jR0iwAQU3BuxUuS4iIwdm2W9/Z0DIU6E+JXxofG/yw/uNNwxcfbjLz+y1qKTr1oOIqQtS4AQtVWz89qUXuC6gvOJh+hBsep2P9VGyL/z0AHFaQ4UWawwIQPqZffWgBVAWt9eYd3iC4ZJdt+MLwr+W2SJZZXg53OQZ+yyN52iASuAkG6s1VhnVj5tHsEYXcNywj0F5wlAcUFMI73OPBqwAghmt5vOM4Uqe+VgiZsHgAAYkMh1aVADVgC5OCDVcYNqUg0ZEyxmbr9StE5UrZr00gtZAIToMgCyi4IJlrgDv1IQM99lQRqwAAicUR9ckE6mpkLWVG7Y/UH7/KkK/d/b1YAFQFpMqhL6xEh6Q3Yov30i912XHdCABUCu5+h4lqYu/LFwVPQrhUUsyNJ0tPj5WACESLjZbjqNn9BFo/MEwMjFu2U87N5cLg1YAISxYdvPecGWa/60yw22XyXYQu3SeSqnXhfRthVA4KWCiaMV4aDtLU/8PbeVgfdxltWAFUBgBZmLYTBGY8TLHxlTsdfZLQ1YAQTvTIgNWhEIG1pJcNOKThc5TiuAoJyzrSlXMmkcE+3NRQQfqS5dA1s1YAmQkLzhcz6W7HHMc06u922rAUuAcEiHUTs3AVqqBuC6bT0tc6oOen2lBiwBQpcnDdFwj1H2PUexORjZ55hn79NIA9YAgfbmLBdGaTRE02b66mGqzuU3Zg0QNHbCBqrPubX5PJd+Ye5x9P4b0kAOgMA3S5w1VJC1CIH/pHjr0jUQpIEcAGEAhLASZXiNoNHkKQxNDARm/bY8j34X3WougKA0qP0hfp5b+qXg3E+g4f5zAgS1kH01hvjZSqUdHFaa3NF2cgMEtRJxeI6I5M6FsfoIOzh29KW2nHYJgHiQwHVbgvkE79ynFUgaY/kceluVaqAUQDxIuEQ0yx+3RqcAg+yrXboGTDRQEiB+wKSB9rnSTSbhKDy5Je8uJFYa7e18UwNzAGQMFChLSfJJPolQIYrxVAeODoxQ7fXyKg3MCZDxACGJ5iIPh8cD3A9mdf6b6L/x74xRiKxqkr1Q10CsBr4BdcvtBSvr0BQAAAAASUVORK5CYII=;" vertex="1" parent="1">
          <mxGeometry x="-140" y="620" width="60" height="60" as="geometry" />
        </mxCell>
        <mxCell id="h754bVSyxSi2Pqq50tC0-31" value="攻击模型" style="text;html=1;align=center;verticalAlign=middle;whiteSpace=wrap;rounded=0;fontStyle=1" vertex="1" parent="1">
          <mxGeometry x="-140" y="680" width="60" height="30" as="geometry" />
        </mxCell>
        <mxCell id="h754bVSyxSi2Pqq50tC0-32" value="生成样本" style="text;html=1;align=center;verticalAlign=middle;whiteSpace=wrap;rounded=0;fontStyle=1" vertex="1" parent="1">
          <mxGeometry x="-80" y="615" width="60" height="30" as="geometry" />
        </mxCell>
        <mxCell id="h754bVSyxSi2Pqq50tC0-34" value="输入数据" style="text;html=1;align=center;verticalAlign=middle;whiteSpace=wrap;rounded=0;fontStyle=1" vertex="1" parent="1">
          <mxGeometry x="-200.5" y="615" width="60" height="30" as="geometry" />
        </mxCell>
        <mxCell id="h754bVSyxSi2Pqq50tC0-35" value="" style="shape=image;verticalLabelPosition=bottom;labelBackgroundColor=default;verticalAlign=top;aspect=fixed;imageAspect=0;image=data:image/png,iVBORw0KGgoAAAANSUhEUgAAAMgAAADICAYAAACtWK6eAAAAAXNSR0IArs4c6QAACBpJREFUeF7t3VFuHEUUheE2Et4Ffja7ICsjrAx2QXhNdpFIGCUClBjPOHW4OWq5vrwmt+/0X/fMX2VD983hDwIIXCRwgw0CCFwmICCmA4ErBATEeCAgIGYAgYwAg2TcVG1CQEA2WWi3mREQkIybqk0ICMgmC+02MwICknFTtQkBAdlkod1mRkBAMm6qNiEgIJsstNvMCAhIxk3VJgQEZJOFdpsZAQHJuKnahICAbLLQbjMjICAZN1WbEBCQTRbabWYEBCTjpmoTAgKyyUK7zYyAgGTcVG1CQEBKC/3mh+9/nWx1/+7Dq8nrudbTBASkNBmfAnJz89NIu4eH3wRkhOSzFxGQZxHN/AMBmeHYvoqAlIgLSAn0cBsBGQZ66XICUgI93EZAhoEKSAloqY2AlEAzSAn0cBsBGQbKICWgpTYCUgLNICXQw20EZBgog5SAltoISAk0g5RAD7cRkGGgDFICWmojICXQDFICPdxGQIaBMkgJaKmNgJRAM0gJ9HAbARkGyiAloKU2AlICzSAl0MNtBGQYKIOUgJbaCEgJNIOUQA+3EZBhoAxSAlpqIyAl0AxSAj3cRkCGgTJICWipjYCUQDNICfRwGwEZBsogJaClNgJSAs0gJdDDbQRkGCiDlICW2ghICTSDlEAPtxGQYaAMUgJaaiMgJdAMUgI93OZFBeT3u9vXk3x+fPt+7HpnDsiZuU2uZ3KtFxeQm+P4OQHxn5rhB0SfOSCTn+3hOH6Z/GIZWcv/cREBuQRPQKKxEpAIW6fo41aBQdZZM8hlZgzCIIeACMj616ot1jqz4zhssSJsnSJbrIwzgzDI+uQwyDozBomY1YoYJEPNIAyyPjkMss6MQSJmtSIGyVAzCIOsTw6DrDNjkIhZrYhBMtQMwiDrk8Mg68wYJGJWK2KQDDWDMMj65DDIOjMGiZjVihgkQ80gDLI+OQyyzoxBIma1IgbJUDMIg6xPDoOsM2OQiFmtiEEy1AzCIOuTwyDrzBgkYlYrYpAMNYMwyPrkMMg6MwaJmNWKGCRDzSAMsj45DLLOjEEiZrUiBslQMwiDrE8Og6wzY5CIWa2IQTLUDDJokD/ubv999u2fx/Hkg+e+O46HS3/3+KNMPsdVQF5eQB4/WPvjbH1+l187Z//UrM7b8pMVR4fwOI77t++XP8OlMRj9bLZYUdqmHxz35u72i0BEH+rvouSzLQ/n6BAKSLbeJw5vMoTXIAgIg6yHREDWmYU/QGCQS6hPPITHiT8bg0y+YsAWK/omFJAQW/ByHwZhkFO//sAZxBlk/evQFmudmTPIcYz+hO3EQ2iLFeUjeneJLZYtli3WlbwJiIAIiIAESrbFCqDNv4LNId0hfX0QTxxevwfxe5D1gT6O0W2MQ3q0BA7pfoqVDc6Z/3N3WyxbrPWptsVaZ+b3IH4PEk3N8PbPGcQZJJrDyW2MM0i0BM4gziDZ4EyGl0EYJJrCySFkkGgJGIRBssGZDC+DMEg0hZNDyCDREjAIg2SDMxleBmGQaAonh5BBoiVgEAbJBmcyvAzCINEUTg4hg0RLwCAMkg3OZHgZhEGiKZwcQgaJloBBGCQbnMnwMgiDRFM4OYQMEi0BgzBINjiT4WUQBommcHIIGSRaAgZhkGxwJsPLIAwSTeHkEDJItAQMwiDZ4EyGl0EYJJrCySFkkGgJGIRBssGZDC+DMEg0hZNDyCDREjAIg2SDMxleBrm7fZ0tw3E89Xro1dfyXustINnKnDkgj18D/dQdPvfa8c//fnXelp/uni1Bp0pAMs5nDkh2R3NVAnKJ5YmfXrjTGWRu1LMrCYiAjD5Ye/oMko31XJWACIiAXMmTgAiIgAhIoFxnkADa/Bumog8xWMQgDMIgDBJ8pTBIAI1BImitIr8HyUj7PchlbrZYtli2WLZYwTerLVYAzRYrgtYqssXKSNti2WKtTw6DrDMLX5QZNSoVOYM4gziDOIMEXzcMEkBzBomgtYqcQTLSziDOIOuTwyDrzJxBIma1IgbJUDMIg6xPDoOsM2OQiFmtiEEy1AzCIOuTwyDrzBgkYlYrYpAMNYMwyPrkMMg6MwaJmNWKGCRDzSAMsj45DLLOjEEiZrUiBslQMwiDrE8Og6wzY5CIWa2IQTLUDLKRQbIRebpq9UHH13pPDuH0o0e/5gHRK1wnua30/Rb/9kX9/yDfAtDUNc8ckKl7fInXEZDSqgpICfRwGwEZBnrpcgJSAj3cRkCGgQpICWipjYCUQDNICfRwGwEZBsogJaClNgJSAs0gJdDDbQRkGCiDlICW2ghICTSDlEAPtxGQYaAMUgJaaiMgJdAMUgI93EZAhoEySAloqY2AlEAzSAn0cBsBGQbKICWgpTYCUgLNICXQw20EZBgog5SAltoISAk0g5RAD7cRkGGgDFICWmojICXQDFICPdxGQIaBMkgJaKmNgJRAM0gJ9HAbARkGyiAloKU2AlICzSAl0MNtBGQYKIOUgJbaCEgJNIOUQA+3EZBhoAxSAlpqIyAl0AxSAj3cRkCGgTJICWipjYCUQH8yyOCf+3cfXg1ezqUuEBAQo4HAFQICYjwQEBAzgEBGgEEybqo2ISAgmyy028wICEjGTdUmBARkk4V2mxkBAcm4qdqEgIBsstBuMyMgIBk3VZsQEJBNFtptZgQEJOOmahMCArLJQrvNjICAZNxUbUJAQDZZaLeZERCQjJuqTQgIyCYL7TYzAgKScVO1CQEB2WSh3WZGQEAybqo2ISAgmyy028wICEjGTdUmBP4CPZrGX9VhhWYAAAAASUVORK5CYII=;" vertex="1" parent="1">
          <mxGeometry x="-20" y="620" width="60" height="60" as="geometry" />
        </mxCell>
        <mxCell id="h754bVSyxSi2Pqq50tC0-36" value="" style="shape=image;verticalLabelPosition=bottom;labelBackgroundColor=default;verticalAlign=top;aspect=fixed;imageAspect=0;image=data:image/png,iVBORw0KGgoAAAANSUhEUgAAAMgAAADICAYAAACtWK6eAAAAAXNSR0IArs4c6QAAIABJREFUeF7tfQl8G8XZ939WhyXL95XYSRzHISRxDkhiJ1wvhRZ4obTQty30gpLkTWzgBT4otiFQ4rWhBSJTaPkKWIHGlJaW0uuFr+UoDZRCIXFIQg7nghxOYjuO79uSdufrrOzEiu1YlnalHUnz++m3sjzzXPP8d2d2Zp6HIFpGWGBV6cNziey6BIRcAiB7FBPVAagDpXUwoI5SU92AbKl7qbKkR0/mvL1EnCwB58sEOYTS6SDIAUUSpThIBHpYpjhGZPrZ+icertGT3HqShehJmFDKctv99yfLkuV/ZMjfJSBz/ZSlBYQBhngAxD4CrYOLHKOCu8EdZ2yoFsV+P2mftdnK0sfjzXJfgUzoUlAUgNACgEzzkddroOSVtiN5r7z66o2Sj20iolrEA+SG3/3OkFSz6w4C4X8AOkv7XqdtAGnwfGgDKGmgQCMlcgOo0HAmf4MgGyiEeCIjjhI5HiDxhJIkEJpJgSwQkgkqZwEkNWDZKfYC9BVHZYUYMK0wIRDRACksERcDdD2AxWHSn6qoQYH3KCXlz1eK76lCkGMiEQuQovvES6lM3wAQy3H/aSs6peWR/jSJSIAU3St+nQr0D9p6V9hQf81hL78+bLSZoCIRB5DC4rUiCCmboJ0ivDrd5LBXXBCJRogogETBEYiL00MOe0VuIBR4bBsxACksFe8CpT/lsZP0IzPtcdgr4vQjj/aSRARACkvFr4HSP2lvzojgsMdhL8+LCE0BhD1AVqxZk25ymzcCmB8pnaq5npT8yFEp/lBzPjpgEPYAWV1S9iwBbtWBrcNLBEq+56gUXw4vpUZqE9YAKSoWb6KEvhTunRgy/QT8h+Px8g9Cxj8IjMMWILfe8+AU2Wj6J0BnBMGOkcmC0m02qeviJ598si9cDRC2ACksKfsRgAfCteN0oxelax2VFQ/rRh6VBQlLgKws/eFsIzVsApCosr2i5EZYgHZBoBc7Hn94ZzgaJywBUlha9lNQ3BWOHaZHnSjwy/X28lv0KFugMoUdQDw7dLEZoIZAjRNt77sFKKVfX19ZEXZrTWEIkLIqAIW+d220pioWoPiXo7L8YlVo6YhIWAFk1b0PLREEYYuO7BtRohBKbq6qFH8VTkqHFUAKS6JPj1A6J6HkrapK8epQyqA277ABSPTpobZr+EePEHpF1bqKv/vXWn+twgYgq0vEnxHQO/Vn4siSiADVVfbyFeGidfgApLjsACE4J1w6hmM93EQm51U9IdZyrMMp0cMCIKvvXXsNEchfw6FDwkEHQsmjVZViWOxiCA+ARIdXesPVQXQ0zHE4HC69CTZRecIDINHh1UT7XfP6FMI319vLuA+MwT1AosMrzX3dPwaUvOSoFL/vX2P9tOIfINHhlX68yVuSDrhccx1P/XhEtEi9CjyaXPwDJDq80q+/UXqro7KCbf3htnANkOjwSt9+R4C/VtnLr9W3lGeXjmuAFJaWPQmKu3nugHCXXaBkwXOV4i5e9eQdIFtBsYhX40eE3JT+0FFZwU53clm4BUjhfRULIEs7uLR6RAlNNjnsIrdhS/kFSKl4Byh9OqJ8jVNlKcii9XZxO4/i8wuQEvE1gH6VR6NHmswUpGS9XazkUW8uAVIoirHoobrKB8hj5wdLZpfLuXHDU49+KVj81OTDJUBuLRG/IoO+rqYhorTUtQCVZbS3tqC99STaWpqRf8kXZjz3mHhYXS7aU+MSINGTg9o7hj8cJFlGZ2sz2loYKE6it7v7FJncuQse/8tvq+/3h24o23AJkO/fWXLQYomNRkwMpecM8u7u6kRHWys621vQ2doKp3NgVKnSM6fsf//N12brQOQJicAdQL572/3J+z79uLW3pwtxCYlISZ+E1PRJyvdo0d4CDAAdrR5AtLc0o7fn9FPibNxjLFb5oiVXJD7zjOhbA+1V8YkDdwC5+oabCo/s3zPq/h6rLQ5JKalITk1XgEMId+r51GnBrtTZ1oq21ma0t5xEZ3ub3+yzc89d+daffrPBbwIhaMidB1153Y2vHDvy+Y2+2Moaa0NiSioSk1KRmJKCGIvVl2YRXae3pwf9Pd3o7e1Whk5ski1Lsio2SUlLf/PDv795jSrEgkSEO4Bcds31O0/UH/MrGY7FGou4hARYbfGwWm2ItdnAnjpGkylI5g49G7fLhYH+Ps+nrw/9/X0KGBRQ9Gj75twSG3ty20f/zAi9FXyXgDuALPvCFe2d7W2qTjhMZrMClNhYGyyxsTCazDCxj3nwYzIrv+ltyEYpheR2w618XGDOL7Hr0MfpwsBAP5wKIPoVMMiS5Lt3qFyTCIJcu62Gq5CwXAHkW9+6Zeau/XsOyLIUErnZk8bMQGMyQzAaYTAYYVCuBuVvk2Ac/N0w+LsRxCD47mYyHeHszOFdbhckl9tzZWBgQHC54JbcvtPWSc2pubmX/e1Pr/5DJ+KMK0ZIHG1cqQYrXCaKxuyBgURjf0wiIVLi0c/3X3j08Gc/97V9tJ7+LDBl+oxH3nnt9w/pT7LRJdIFQG4QRXNKLxbKFPMJRR4ldB4BWCbVnOFi19cdxud7uT1awItPaCrnpKwpf5s9f3EtQJNlII2wQtEqA62Eyq0QhHYC0gHQDoB0CELf1mcfe8z/V2cBahMSgBSWlF1FQRYSioWU0PMIsNAXPfbu2IqTjfW+VI3W0akFJmVNw7nzz5ugdHQTqPA+odjcuizvT6/eeGPQJlJBA0jRfeKlVMJXQOhXAMydoIWU6pvff0eZbEYLvxZISk7FgoILA1CA7KQU1UZjzIZnH1uj+ZNFU4AU3leWDYmuBCHsXHJ+AFZRJqYfvftWICSibXVggcABMqQEOQIqVzsqK0Qt1dIEIEX3inlUoCsBsCDGKWoo0NXRju2bwjrjsBpm0j2NqTm5mHEum16qVchuh130a13MFwlUBcjNxXablfQ8AVAGDLMvAvhahw2t2BArWvi1gMFowNyFS5CcpvZaIfnEYRcDGqGMZVXVALKq+OEZhLh/QYDLtOrC2m01aDl5QivyUboaWiA5LR3Tz5mN+IQkjbiQZx128Xa1iasGkNUlZe9qCQ6meOvJE9i9rUZtG0TpaWgBNudIz5qKyVOmachFId0BAQsdj5fXqclIFYAUFq8VQUiZmoKNRav5RAMO1O5QJu3Rok8LsC06aZOykDY5EwwgwSqUkNvWrxOfU5OfOgApKTt05qKemkKeSYudBak7+BlONhzXkk2U9gQswPawseFTYnKKAg4GkhCUXzns5TeryTdggKwqFi8TCH1XTaF8pdXR3obWpka0nmzUfCeqrzJFSr34xCSwT0JisnK1xNpCrjoF3ltvL79cTUG4BshwQ7CzCx3sUM/gVU0jRTotW3yCcmKTPSHiEj1XPRZdAuT2+8Vz3BI9oCeDse3f7PRbu3IKrhl9vdqec9CT7oHKws7IxCUkIz4hETb2lEhIhCBMYEdyoAIE1v4PDnv5NwMj4d064CcII1dYKv4VlOr2pBg7HMQWGtn56d7uLs+1pxssNE2kFdbhbDjEPlZrrNc1JjYWBn7AMKLrKMiK9XaxWs0+VQUgq0vE5QSUq7PGzIj9vb1gE34GFna6TjlcpBww6le+81YEg8FzXsUcA3NMjHJlH4vVCouFgSEW7FRlmJbDJmNM/s8ffaBFTf1UAQgTqKikbAMFlqspXKhpeU7jeUDDvrucTuWpwz4yZVcKmX1nv7G/6dB3z+9KXUoHr8P/R73qsnrMuY0GIwSDoHxXDmOxg1inruz/7G/P/4acfwgIDBjsf5FatHh6MFuqBpBb7xdzJIn+r69b1yO1I6N6q28BAlRX2cvZ9ibVi2oAYZLdUSpmOaky1LpKdUmjBKMWGN0Cf3bYy/9LK+OoChAm5D333GPtNSY8RwHuM5xqZfQoXdUs0O6wlyerRm0UQqoDZIhHYal4F6H0MQpEg1Fp2YORSptiv6OyXPNQppoBhPXbrSUVF8tEflDPr4Aj1b941puC/Ga9XfxuMHTQFCBDChQVizdRIt8FkIJgKBXlEaYWIOQkgEcc68SfBUvDoACEKSOKotDQI99JQe4CkBssBaN8wsYCLxuJ8ZFn1j20J5gaBQ0gQ0qtWLMm3eg230WAOwGoGiExmIaL8gqWBcgmAXjuOZVXyH2VPugAOTWJXyPOgRt3gdLvgSDBV4Gj9SLFAuTvlMgb1q+r+HUoNQ4ZQE4B5YEfZcI18DVChespof8ZSmNEeevCAq8SSn9dVVnxv3qQJuQAGW6E1SXi+YTKXwMh1wM4Xw8GisqgvQVoTydoX9dfDSlTS6qeEGu15+g7B10BZLjYK79zU4kgYJ2QmgXERJdSfO9STmpKEuTm457PyWMAJfdUb9n9lN6k1y1AlufPuQxEeJcYTCBpmRCSMkCS0kGscXqzYVSeCViAtp6A1FIP2lwPOtB7uiUh91dv3v34BEgFpapuAbKiYP5FFPKHw63QD4L++AyQ5EmwJKcjPlmVmHRBMXSkMnG5nOhqb4PU2Qa5uR7m3jbYyMhzOBSk7MWa3RV6s5NuAXLLkvkziSB/NmSwg24zTsre27nZlu+UtHQkp2YgKS1NydsRLaG1ADuc1tHWgs62NnR1tqO7s2OEQAlExlyTdzZcChS/WFP7RGilH8ldtwC5IS8vzmZD15DIm5zjz0PiE5ORnJqGuMGjouYYi97sHTbysDMsLAU0O3DW09WJnq4u9HR3KmdmfCkF5j4MP8hLCV314uY9L/jSNph1dAsQZoQVS/O6KIUy6fAFIGcajgFEOVvNgg5EQeO3X7GTl8z5FRD0dKJXAUZg5/znmwbOGGoJ36iu2fVHv4XUqKGuAbK8II8NsWb6C5DRbBYFzeiexFK9DQwMgOVB72VAYE+Fbs9TQYu8hueb+hFD6ClhCCFf2rB590aN/NxvsjoHyNwPAXIR026HKwZ9VJvoGixBpzU2FjGWWOXKzm6zgAYxLKgBx2e4JVmCa9DplevAAFzOAc/xYeV3p+fq6lct1bMvnmgkFEtM3mf+DRSLX9hSu82X9sGso2uArCjIq6JAITNImyzgsGSGkwZXZJbZloHEE/DApnxnIDKaY5QIIJ4z4gYQQfCcIRcMfmfDZefXZVlS7tjsTLskScp5duboLFf50P+U3wbreH6Twd4WDQHA6fQAgIU/0mPJNriQafCWTSJS7kub97EInboqwfW2Cap+S35eISGoGmrGwHFEMqH1jLdZEySreXUGEiX4gnJlABr8LhgGnXzQ2ZWAD6fBAHp6yKG5kCFgYCUyphtcSBRGCbfkMidXb9/eHgKxzspS3wBZNmcJkYUtZ2pwzG3EcdmkN1v6LY/ZICA93oTMxBgYCUFTtxMnOp3ocQYtFZ/fsvvaME2QwJ4cpmHzjuFtq2tqdemLuhRquOGWF+SNelttkow4JPENkgSLEfnT47FsRiLiY4wjfO3tPS14b7/mafh89XG/67HhFAPHWUp9dU3tFL8ZaNhQ/wDJz9sCgiWj2YD3J8mt/zEV2SlnX6vpGnDj0TcPa+gC2pJOFmSca/ReFBzBkeKT6i21mmSIClQ73QPklqV5TxOKO0ZT1AWCXc4YONUL7xWoPX1uf3FuEq5dkOZT/Xf2tmDjPj6fJAwcDCTjlNera2qvG69SKP6ve4Asz5/3bRD6m7GMc9Btwkl55PAkFMacCM87L5umzDl8KU1dTjy1UdXESb6wDbiORaA4zzh+CFcCODbU1BYFzFADAroHyIqC+dMo5DG9o0k24pCbr7mIzWzAg9fMmFB3/nRjHU50+baNY0KENaycbpCQa/BBZory6i21mqZz9ldN3QOEKba8II8BZNQkd71UwE6Xb3dif42kdrtZGbFYcWHWhMj+cXsTthzpnFCbUFfOMbowSRh/LYZSFL24pdYRanlH488JQOb+BiDfHsuA210WDAR5ATGQzrz0nCRcPc+3+ccQHwYOBhKeyjxTP+LGeK07XA9ChK9u2Lzr/+lRNy4AsiI/7w5K8PRYBjzgNut+8XC47N/On4yFUyZ28Iu3eYiZUCw6YzvJWP0nGYS8lz7eFdRwPr6CkQuAfD8/b5FAsHUspRolo7LCzku576ocJFon/mLhZ+8eRWPnOK9MdWKEFEHCLKMP8w/AVV1Tq9uDPFwAZHAewvZXj5r9pUsWUOvmYx6SEW/G3V/M9suNX9/ZjI8O6m43xqi6ZBvcyDz74uBQu63VNbWjrnP5ZSSVG3EEkHlvA/TK0fRnb9m3Oy1g6yJ6LxfOSMRXF6b7Jeau+h68XNPgV9tgN2InBtnJQR9KdXVNrSa5PXzgPW4V/XvUoArL8/NEEJSNpdE+lxntVP8Zlm5emom5mf6lTGZ7s+xvH4FT8snxxu18rSoYCLDY5H1icExeBPdWb679iVayBEqXG4Dckj/vOkLomMHEeNh2YjEKWHP1DJiYB/lZXvy4HvtODIsG4icdLZslChLm+Db/gAB65S9q9ryjpTyB0Pa/pwLh6kfbVcsWTnXL7qNjNe2mAnbrfD1k7mQbbl6W6Yf2p5v840Ab3qpVNU9lQPKM1ni60YXJPqx/sLZGQZj8/KZdJ1QXQiWC3ACE6bu8II8ZMmMs3fcLNrT163f4cd3CdFwwI7B43cfaB/DMP8a8T6jkFoGRWWjqh9WH9Q+AHKqu2a3rSP+8AeQNAFeP1X09CYnY1ezTq8XAPMCP1mxr+/+5PBtWc+DHhl/a1IA9jYEFTfBDBZ+apJiAWaTPp7qg5IXqLbtX+VY5NLW4AsgtBXk/JsCasUyVmJmCt4/42DlBtvclM5Pw5fkTWz0fS8Qdx7vx2y2NQdbAN3bnxhEkO32cIxHyverNu1/2jXJoanEFkBX5875JCX11LFPNPicDbxwdwEmdbeqLMRIUXsJ276q3Hvbs+8dwtG38nbLBdqtL0w0Y6Oj2lW1mdU2tPpE+qAFXAFlZsCBXhvT52QByoN+gu8W0/8xLxRdmqZuM9dNjXXjlE33NbaclW5AfL6O+cWQ0xZF9Rv9VXbPnYl+RFKp6XAFkcKLOTg4ljWYw9gRJzEjCc+8fg0vWRwCE3PRYrLpoYjt3fXWG6o/rsV9Hr3y/sTgDQnsn6o6Nf7iLAI9uqKl9wFddQ1WPO4Dckp+3kRBcPhZA5syahDd3N+P9z0K/JcNqMmDlRVmYkqTNNpj6jgGwCXtH3/hbyrV2sHPSrVh50RTsrK3HwSO+vIYm11TX7H5Ta7kCpc8dQFYU5FVS4N6zAaSj340XPjyO5u6zBgoI1Hbjtv9OwWQsyJrYrt1xiZ5R4eDJXry4qQEuKbRPTLa+w9Z5avc34sDnLBnt2IVSfPbiltpZE9U1FPX5A8hZJuqzZqYj79zJih0Pt/SBrToPuIPvOAIBLjs3GVfMSQ1Kn+6u78YbtS1o7QnNDeFr52VgaY4nzaQvAAHF09Vbalm2Y90X7gDy34vmTpeMZNQwHzNyUrFw7unxPnOc9w604Xh78LaIz55kw+Wzk5GdHNzI8p39biVE0MeHfJkgq+OXQ2GLht8Iduypx6HDZx9iyRRf/uWWWrampfvCHUCYRZcX5LEQlTlnWjd7SjIWLZw6wuibj3Rg65EuHGvvhxZz99w0K9gbnClJFszP8m8jolqesr+pF3WtfTjWNoC61n70u9XfWZCZEIO5mbGjxvPatuMY6o6PPUnnaXjF+oRLgNySP/dlQsh3znSqrMkJKFg0fUxfY8Ot4+39yhOlpceJtj4J7b0utPW64D5jDM+GSWxzocVsgMUkwGIywMr+Zt+NAmJMBLlpsQowAtl8qBYwxqLD1kqOtPajq19Cv1NCn1vGgFtGn0vCgItdZQVEZ+rP6CXHmpAca0Sy1YTEWAOmp1iVSCxxMWPvmq7ZdgT1jWc5O8/R8IpngJQSQkbks8tIi8OFBROLFqK1g0Ya/Y9qDqGpeeyFQp6GV/wCZMmcq4ggvHWm88XHW/DFS7h4ORK2uNn4wQF0dY25wr+xuqb2Szwpz+UQa3AesgPAguHGZqkKrrt6vu7tz9IUTCRDk9lkhsUWC0EIfKOj1sZ57c1dYGkcRisCIbf8YvPuX2otg5r0uQBIUamYDxlzQJBDQWcQIMd98NNFUt3+Efs3rvjCubDFarMwp4bh25tb0Nk+8UVMc4wZKekZMFv0q1tP7wDe+cf+0c1ksXWaL7j2JUrlowIx1IHQA1XrxBGR+9WwsZo0dA2QVfeuvVIQCAtJ+Q3JLaGjvQW93d3o6+kC7WpFTn/zCFssW5KDyRnxatpIRVoU9Ufq4Hb5t/KdkJyEpNTgrK34o3RjUxc2fTJ6oO32+Elwp02D1RaHxOQUJW/Kv0cAf5BlWvX8ExV/84dfMNroFiCFJWWl/b29j588UY/25pNobxv5bn2OyYlE4p1DI2/2ZMzK9S8ogtYG7+/tQ1N9vd9sLFYrMqZos6/Lb6GGNTxw8CRq943cnMsSH7Hol+5hL01T0jKQlJKK5PQM2Gxxd1XZK8aMe6aGbP7S0DNA6M6aj0YFxpCyGYKEGWecfdbzmyy3y6U8QfwtsXFxSJs8yd/mmrcb6w3WUcmEemn0OGBMp3mLluKX/9euS1/UpVCsJwtLyigo0FhfhwO72Xzcu7BpIBN+vnEAtmHh9VnewGuvmgeiU81aTzShu+tU+vcJOS0DB3MoPRY2L//L27shyd4Lkz1UQK0rBmcuVyalpCB75mwkJqeCpZ5zVFbossd0KZQCkNKyQ6Ce1XKZyuhobsaRg/vR1eE9wWVnn6cZXUiEDGHwHPSyxdMxeZJnb5DeitvpUt5gsdzjvhajyaQAwxJr9bVJ0Os1nujEpq1HTvFlwfzaqYAmyYShGRcDQ1JqGiZlTkWMdZguMt3peKJiYdCF9oGhfgFSXPYHEHz9TB0YQNqam9Da3OQFFhYLls1HkgQZ581IwuI8/Y7VfegX7qrs2tuArZ+3oYMK6JAFsKj7rCSlpCElLR1JqemwxY9+06KUPL6+Urxfj0rrGCBrHwQhj5zNaENgaWs5ie6u0wnvWVyEvKx45KSyrRFmT3JMtnckWlS1AMtX0tgxgLq2Aew40o4eCQoI4tgnIRHJqRmw2sbfmyZI8uLnfvKw7nKkM2Pp1mtWl5R/g0D+va89ysa+fV2d6OnuQldnB7o62tDd6dnZysCRmRSDrETPhwFmUoIZpihofDUvWHT5xk4n6tv7Ud/hREPHAKgp1gOGpETExSfBFhcPNhyccOkgNodD9H3MOWEG/jfQLUBuf/CRaW6ny/9XPoM2YesmvT1d6OnqRG9Pt7KOwv5mJcVmwqR4swKWyQkxp777b07+W7b2unGic0BJQ93U6VSyWrW7DYi1xSM2Lh6x8fGwDX5nOxcCL+QTh13UZQJPXT9BmHCFJeJegM4OvBNGUmBA6e/rgcvphHOgH06XE66BAbBtIBZBQpxJRoKJIslqRJLNhCSLEUlsd6vVCGMAoUO10GUiNNv7XGjrcaO9b/DT40KXbESfbIRTMMNotsJisSqTaIslFjEWKwSDpltc1jns5fdNRIdg1lXjFqCZvIWlZU9jjAy3mjEdRpjtKZLcLkiSpKx+S5Jb+Vt2S5BkNyC7IbvdAJVB2ItMWQKVJQiQYYAMEyiMggQDoYghgEmQEMO2yhsNyhZ5s5HAbBBgNgpg26wEZcRLAcqoUfS7KQYkAQMgcEoCnBLgogRuKigfGYIS0Z5xoyzKrWAAu6tTYgQxGAYd2wDChpKEgBAD2GtwYhBABAECYXw1df5xu4kQ4aqqdWXRlfRxLTVKhaLitddTQv7sT1s9tWFPqZ6eLvR1d6G3tweugX7IEoXBKMAcY4UpJgYmkxlmsxkmcwzM5hiYzGbFicO9OG3EWi2K+gvwNWh4XT9Bbrv/0WRJ6m/l0Uk621pxov4o2tta0d/rCRPK3uxMnpqtLI7F2vS54BdMWxNgY5W9XNfb33UNEGUeUlz2IQguCmbHBcKrv68XB/fVoqXJe0/SOXkLkDl17NOOgfDkuO2DDnv5j/Usv/4BUiqK/z5gMGbiHL0Zd9cnm8DWZYaXuectQdqkwNIe6E1PVeSR8R+OJ8o/UIWWRkR0D5BVxeIXBUL/rpH+qpP959sjsxkvu/QKmC3BjXKiumKqE6RdWTYhSRRF9aNKqCir7gFy550/i3FaWtoooN+NSMM6pOaDjSP2WeWdn4/UDE+8rmjxWICA/KnKLo7YSqQ3++geIMo8pER8DaBf1ZvxRpOHnVth2/SHF0tsLBYsvgDsGi1DAKF3V9krfqp3e/ABkNK194KSSr0bc0i+0UDCniDsSRItHgtQ2bB0/RNra/RuDy4AclupeIFEqfdtWeeWbWtpxq5PPvaSMiNzKmYvOF/nkgdFvGMOe/m0oHAKkAkXAPEMs8pYYr6RYRMDNICWzdmW/N1bN3uxYOsgs/J0efRBS1OcSftXDnv5zcFk6C8vbgBSVCL+ioJ+z19FQ9WOrYfUbvcO3pGVnYOZc/Qfnkg7m9HbHfaKZ7Wjrx5lbgBSWFJ+GyA/o57qwaN0srEee3ds9WI4NWcmZpw7N3hC6IgTkeTzq37y8Kc6EmlMUbgBSNEPHjqPGoTtPBh1NBmb6o9j3y7vM0HZubMw/RxNNivr10wUex2V5dzcGbgByOA8ZDeAPP32/tklazx+FAd2e984IxAkv3DYy/+blz7kCiBFJeLPKOidvBh3NDkbjh7BZ3t2ev0rkkBCCb1p/bqKX/PSh1wBpLB47bUgZOReDl6sPShn/ZFD+HwfexieLhECklbJTWa98KTIzQ5trgByww2/MyTn1B4AKPc5Do4d/hyH9u+JKJAQkF9X2cWbeLqfcQUQZtjVJWXPEuBWnow8lqxHD32Gwwf2RgxIeBtesY7hDiDhcspwCBUMIAwowwt7s8WGXGFWuBtecQkQtrt3wNLCPIqrVfWzOfu+ndvR1HDMq8rM2fOQNZ37keQpnXgcXnEJkMGnkWEjAAAJXElEQVTXvesBrAqnO+xogbpnzT8Pk7O42LI0blfwOLziFiCrS9Z+g4D4HFRu3N7TQQUWbujTzR+CHdkdXsLkLAmXwytuAXL77WKc20YPAAirU0gdba3KDmB5WIR0FvFk3qICxCck6QDG/onA6/CKW4AwwYtKyjZQYLl/XabfVscPH8TB/bVeAqamT0LeogL9Cj2OZLwOrzgHSPm3KOTfcus1ZxF85ycfo73FO70cAwgDCoeF2+EV1wBZfreYZDYpw6w0Dp3mrCIfrzuIg3u9nyJTpucidzZ/29B4Hl5xDZDBt1kvAeBqZdYXMI92hoSFDWLhg3grPA+vuAdIUbF4EyWUgSRsCkvZsHvbZiWI9lBhERnnL16mhCPlrHA9vOIeICvWrEk3uc1smJXImeOMEJe93m2oO4zjdYf+HSePZWAELNZYZGbnYEr2DCUoNYflZYe9nLtToMPtzKXVhytQVFr2CqW4kUPnUUR2OgcUYDQcPwLXgFP5zRxjweQp05CVPYPHp8aprqCEfn/9ugqun/DcA2R1ibiSgL7AG0CGgMEOUbH8JMOBkTltugISzkuHyxgza8OjD3jHYeVMKe4BcuuDj0yRnS62N4sLj4oAYAxCgLzisIvf5gwPI8TlHiBMo9Ul4p8J6PV67ozIAYanFyjIivV2sVrPfeKLbGEBkMKStbcBRJcRTwb6+tBYfxSNx+pODaVYWjM2x2AxssJgKDXSzwi6jZTMesYueueA8MUjdVYnLABy2/1iriQpi4a6ScnEkuaw+QUDhsvlmXxbrDZMnuoBBssoFa6FEPy+al35DeGgH1cAWVUsXkYEeRqRkQ0iTPv35HwaBbIBsD3hunjVyzLonjjmAYZbcis+wjLEMmBMmpoNo8EYDn5zdh08qRZZDu6jBKijIEdB5aNUQB2VhaPPV4rv8WIEXQOksLDQRBOnXEcovR6EXssyN49l2MH0lyGzO0szzUDRWF8HWfKkvLDFJyhPi8lZ2Vpnig2Z3mcyVvqBrdkMruWMJhgFPQlKXhUIeT3ThndEUfTcSXRYdAmQ1aVrvydQ4RoKes3ZQOFlzxAi5PCBPTh2+OCpBT4m18w585A5LYfXBb6guSoDCwF5nYC+U2Wv+E3QGPvISFcAKbx37S0QhNsAusxH+UNajWWv3fvpJ2DpDoYKW/2et3hpNEmnXz1DNkGWn3U8UfGiX801aKQLgKwuLrsRBLcR4DINdNSE5Gg5QNhcY8nFX9CEHxdE2bBKhS0xFHgPFM+uryz/Xaj1DilAiorXfpWyJwZVhlKBF7aFKQgasfnGpzUfQXK7TsnMwLEgf1l4vrb1tWdUAsgpdoS8QWT52arKitd9FUHtekFwp9FFLiwW7wKh6qfgCsJcZLSnB8t9vrDgQrX7hy96Wt2gKBUdlRXloTBGSABSVCo+Rim9LxQKq8EzCpDRraj2A2Q4l1Al/QwqQG4uttuspOfv2k7CtX+E9PV0Y8uH3q/yrbZ45Efy/EONO8+4NMjnBkNMwbOPrWkbt6pKFYIGkMLih5aBCN5J+1RSIhRkPvjbX7xe6zIZLrmSxdYOmklDofaYPLUaXY3GUIJ8yQv2hz8MhgGC0pu3/+CRaW6Dqy4YCgWLx7aP3kd3V6cXu0UXXoq4+IRgiRDRfEzGmLSfP/rA6ffrGlkjKAApLCljZwLCKrjC/l3bcaLeO1zoufPPx6SssImIqpHLqUWWHHHYxRy1qI1FR3OArC4pe5en9Q1fDc5Wzg+dEb9qak4uZpzLX+QRX3XWYb3nHfby1VrKpSlACkvLngbFHVoqECra0TdZobK8N19K6APr11U8qpU0mgGksHhtEQh5TivBQ01Xckv418Y3vMQwGA246IvqrHmGWj+e+Gt5OEsTgKz4wYPTTAbj5lDGzg3GW5UtH7yLvt4eL1/Kv/hyWG02nvwrHGRtdEnupRt+8qOjaiujCUCKSsUfU0rXqC3sROlpvSKyb+dWNDXUe4k1e8FiZGRmTVTUaP0ALUAIebRqnfhAgGRGNFcdIEUlD8+icNUARBcHmNQ22HB60Ym6ltadKG3aQWAqqLI/xE6WqlZUB0hhadmToLhbNQl1TCg6UddZ5xA85VhXfo+aUqkKkFXF4kKBYDNAY9QUUq+0ohN1vfUMGZAplj5fKe5QSzJVAVJYIj4H0CK1hFODzjinPwNmEZ2oB2xClQmQKoddVC0LsmoAWVlaGm+gls8JSLrKGuuaXKRO1LW+8QTQ6a0Q+nMdjz/OgkYEXFQDyOritf9FCPljwBJxRiA6Uddfh6mZckFFgJT9nBDcrj9zaStRdKKurX39oa5m0h71AFKytinShles81iqArb1fXhhW94vufLLwTn/648HhX+bVoe9PFUNNVUBCAvoJhD6rhoC8Uhjx5aP0dHqnVNwYf4FSEwJqw3MXHWNDHLt83bxr4EKrQpAVhdH5vBqyPh1Bw/gyGf7vPoiO3cWpp8zO9D+0Wd7rbcoqKK1Om+z1AFISdkmAixVRS8OiXS2teLTmn95SR7WQRw4AAgFNq+3lwccX00VgBSWlH0OIJdD31ZFZMntxkfvvuV1BNdgNOLCy68CIbqJp62KrhwROeiwl88MVF61ANKul+DRgRrE3/a7PtmEthbvZErzlyxDcmqYLQsFY5u0v53g3a7DYS9PCpRUwABhAaaRmOmJ7x/B5eihz3D4wF4vC0ybcQ5yZs0JL6vwAxCgo8HscDhOR/fzoycCB8jdD2TCZPLe8+2HILw3aWs+iV1bN3mpkZyWrqRvjpYQWcDlynI89eOGQLgHDJBbi8X5MqE7AxEiHNq6nAPY/M+NkCXplDomcwyWXvpFCIIhHFTkTgeBkgXPVYq7AhE8YIBE+hrIcOPv3roZrc1NXv3BIr2npGUE0kfRtn5aQKbk8kCT9UQB4qfxR2vG1kLYmsjwwtZC2JpItATfAlGABN/mZ+XY0tSI2u1bvOqkZkxG3vn5OpM0MsSJAsTfftZooau/rxfb/vX+qdyETDyWUGfRRZdGRm5Cf/tDo3ZRgPhr2EGAKJdhYGET7dNvMYmSa4QMJRwhBILA/hJAhLFHptF9Wf52ivrtogBR36YToOgBiQdfDFaecnB/LXq7ukAMAgRigMEgICNzKmKsViX7ktJq6Dr03fOjB4yD2FOCYHvVH/x78Lf+/r7BN2Z0MF+m5xqNDXy6C9UAyP8HAGTXmxtC1loAAAAASUVORK5CYII=;" vertex="1" parent="1">
          <mxGeometry x="359.5" y="570" width="60" height="60" as="geometry" />
        </mxCell>
      </root>
    </mxGraphModel>
  </diagram>
</mxfile>
